<?xml version="1.0" encoding="utf-8"?>
<!-- Generator: Adobe Illustrator 18.0.0, SVG Export Plug-In . SVG Version: 6.00 Build 0)  -->
<!DOCTYPE svg PUBLIC "-//W3C//DTD SVG 1.1//EN" "http://www.w3.org/Graphics/SVG/1.1/DTD/svg11.dtd">
<svg version="1.1" id="Layer_1" xmlns="http://www.w3.org/2000/svg" xmlns:xlink="http://www.w3.org/1999/xlink" x="0px" y="0px"
	 viewBox="333.7 136.3 219.2 213.5" enable-background="new 333.7 136.3 219.2 213.5" xml:space="preserve">
<g>
	<g>
		<path fill="#72BE44" d="M447.3,225.4c0,0,4.5,6.5,10.8,16.5c3.2,5,6.8,10.9,10.6,17.2c1.9,3.2,3.9,6.4,5.8,9.8
			c2,3.4,3.9,6.8,5.9,10.2c2,3.4,3.9,6.9,5.8,10.2c1.9,3.4,3.8,6.7,5.6,10c3.6,6.5,6.8,12.5,9.6,17.8c5.5,10.5,8.9,17.6,8.9,17.6
			s-4.5-6.5-10.8-16.5c-3.2-5-6.8-10.9-10.6-17.2c-1.9-3.2-3.9-6.4-5.8-9.8c-2-3.4-3.9-6.8-5.9-10.2c-2-3.4-3.9-6.8-5.8-10.2
			c-1.9-3.4-3.8-6.7-5.6-10c-3.6-6.5-6.8-12.6-9.6-17.8C450.6,232.5,447.3,225.4,447.3,225.4z"/>
		<path fill="#72BE44" d="M424.2,311.6c0,0,6.5-4.5,16.5-10.8c5-3.2,10.9-6.8,17.2-10.6c3.2-1.9,6.4-3.9,9.8-5.8
			c3.4-2,6.8-4,10.2-5.9c3.4-1.9,6.9-3.9,10.2-5.8c3.4-1.9,6.7-3.8,10-5.6c6.5-3.6,12.5-6.8,17.8-9.6c10.5-5.5,17.6-8.9,17.6-8.9
			s-6.5,4.5-16.5,10.8c-5,3.2-10.9,6.8-17.2,10.6c-3.2,1.9-6.4,3.9-9.8,5.8c-3.3,2-6.8,4-10.2,5.9c-3.4,2-6.9,3.9-10.2,5.8
			c-3.4,1.9-6.7,3.8-10,5.6c-6.5,3.6-12.6,6.8-17.8,9.6C431.3,308.2,424.2,311.6,424.2,311.6z"/>
		<path fill="#72BE44" d="M495.2,219c0,0-1.4,7.8-4,19.3c-1.3,5.8-2.9,12.5-4.7,19.7c-0.9,3.6-1.8,7.3-2.8,11.1c-1,3.8-2,7.6-3,11.4
			s-2.1,7.6-3.1,11.4c-1,3.7-2.1,7.4-3.1,11c-2,7.1-4,13.7-5.8,19.4c-3.5,11.3-6.2,18.8-6.2,18.8s1.4-7.8,4-19.3
			c1.3-5.8,2.9-12.5,4.7-19.7c0.9-3.6,1.8-7.3,2.8-11.1c1-3.8,2-7.6,3-11.4s2.1-7.6,3.1-11.4c1-3.7,2.1-7.4,3.1-11
			c2.1-7.1,4-13.7,5.8-19.4C492.5,226.5,495.2,219,495.2,219z"/>
		<path fill="#72BE44" d="M417.9,263.7c0,0,7.8,1.4,19.3,4c5.8,1.3,12.5,2.9,19.7,4.7c3.6,0.9,7.3,1.8,11.1,2.8c3.8,1,7.6,2,11.4,3
			s7.6,2.1,11.4,3.1c3.7,1,7.4,2.1,11,3.1c7.1,2,13.7,4,19.4,5.8c11.3,3.5,18.8,6.2,18.8,6.2s-7.8-1.4-19.3-4
			c-5.8-1.3-12.5-2.9-19.7-4.7c-3.6-0.9-7.3-1.8-11.1-2.8c-3.8-1-7.6-2-11.4-3s-7.6-2.1-11.4-3.1c-3.7-1-7.4-2.1-11-3.1
			c-7.1-2-13.7-4-19.4-5.8C425.3,266.3,417.9,263.7,417.9,263.7z"/>
	</g>
	<g>
		<path fill="#FF3366" d="M449.7,225.4c0,0,4.5,6.5,10.8,16.5c3.2,5,6.8,10.9,10.6,17.2c1.9,3.2,3.9,6.4,5.8,9.8
			c2,3.4,3.9,6.8,5.9,10.2c2,3.4,3.9,6.9,5.8,10.2c1.9,3.4,3.8,6.7,5.6,10c3.6,6.5,6.8,12.5,9.6,17.8c5.5,10.5,8.9,17.6,8.9,17.6
			s-4.5-6.5-10.8-16.5c-3.2-5-6.8-10.9-10.6-17.2c-1.9-3.2-3.9-6.4-5.8-9.8c-2-3.4-3.9-6.8-5.9-10.2c-2-3.4-3.9-6.8-5.8-10.2
			c-1.9-3.4-3.8-6.7-5.6-10c-3.6-6.5-6.8-12.6-9.6-17.8C453.1,232.5,449.7,225.4,449.7,225.4z"/>
		<path fill="#FF3366" d="M426.6,311.6c0,0,6.5-4.5,16.5-10.8c5-3.2,10.9-6.8,17.2-10.6c3.2-1.9,6.4-3.9,9.8-5.8
			c3.4-2,6.8-4,10.2-5.9c3.4-1.9,6.9-3.9,10.2-5.8c3.4-1.9,6.7-3.8,10-5.6c6.5-3.6,12.5-6.8,17.8-9.6c10.5-5.5,17.6-8.9,17.6-8.9
			s-6.5,4.5-16.5,10.8c-5,3.2-10.9,6.8-17.2,10.6c-3.2,1.9-6.4,3.9-9.8,5.8c-3.3,2-6.8,4-10.2,5.9c-3.4,2-6.9,3.9-10.2,5.8
			c-3.4,1.9-6.7,3.8-10,5.6c-6.5,3.6-12.6,6.8-17.8,9.6C433.8,308.2,426.6,311.6,426.6,311.6z"/>
		<path fill="#FF3366" d="M497.6,219c0,0-1.4,7.8-4,19.3c-1.3,5.8-2.9,12.5-4.7,19.7c-0.9,3.6-1.8,7.3-2.8,11.1c-1,3.8-2,7.6-3,11.4
			s-2.1,7.6-3.1,11.4c-1,3.7-2.1,7.4-3.1,11c-2,7.1-4,13.7-5.8,19.4c-3.5,11.3-6.2,18.8-6.2,18.8s1.4-7.8,4-19.3
			c1.3-5.8,2.9-12.5,4.7-19.7c0.9-3.6,1.8-7.3,2.8-11.1c1-3.8,2-7.6,3-11.4s2.1-7.6,3.1-11.4c1-3.7,2.1-7.4,3.1-11
			c2.1-7.1,4-13.7,5.8-19.4C494.9,226.5,497.6,219,497.6,219z"/>
		<path fill="#FF3366" d="M420.3,263.7c0,0,7.8,1.4,19.3,4c5.8,1.3,12.5,2.9,19.7,4.7c3.6,0.9,7.3,1.8,11.1,2.8c3.8,1,7.6,2,11.4,3
			s7.6,2.1,11.4,3.1s7.4,2.1,11,3.1c7.1,2,13.7,4,19.4,5.8c11.3,3.5,18.8,6.2,18.8,6.2s-7.8-1.4-19.3-4c-5.8-1.3-12.5-2.9-19.7-4.7
			c-3.6-0.9-7.3-1.8-11.1-2.8c-3.8-1-7.6-2-11.4-3s-7.6-2.1-11.4-3.1c-3.7-1-7.4-2.1-11-3.1c-7.1-2-13.7-4-19.4-5.8
			C427.7,266.3,420.3,263.7,420.3,263.7z"/>
	</g>
</g>
<g>
	<g>
		<path fill="#FF3366" d="M472.9,223.5c0,0-0.2-4.6-0.2-11.4c0-3.4,0-7.4,0.1-11.7c0.1-2.2,0.1-4.4,0.2-6.6c0.1-2.3,0.2-4.6,0.2-6.9
			c0.1-2.3,0.2-4.6,0.3-6.9c0.1-2.3,0.3-4.5,0.4-6.7c0.3-4.3,0.5-8.3,0.8-11.8c0.6-6.9,1.1-11.6,1.1-11.6s0.2,4.6,0.2,11.4
			c0,3.4,0,7.4-0.1,11.8c-0.1,2.2-0.1,4.4-0.2,6.6c-0.1,2.3-0.2,4.6-0.2,6.9c-0.1,2.3-0.2,4.6-0.3,6.9c-0.1,2.3-0.3,4.5-0.4,6.7
			c-0.3,4.3-0.5,8.4-0.8,11.8C473.5,218.8,472.9,223.5,472.9,223.5z"/>
		<path fill="#FF3366" d="M511.1,183.1c0,0-4.6,0.8-11.5,1.8c-3.4,0.5-7.5,1-11.8,1.5c-2.1,0.2-4.4,0.5-6.6,0.7
			c-2.3,0.2-4.5,0.5-6.8,0.7s-4.6,0.4-6.8,0.6c-2.3,0.2-4.5,0.4-6.6,0.5c-4.3,0.3-8.3,0.6-11.7,0.8c-6.9,0.4-11.4,0.5-11.4,0.5
			s4.6-0.8,11.5-1.8c3.4-0.5,7.5-1,11.8-1.5c2.1-0.2,4.4-0.5,6.6-0.7c2.3-0.2,4.5-0.5,6.8-0.7s4.6-0.4,6.8-0.6
			c2.3-0.2,4.5-0.4,6.6-0.5c4.3-0.3,8.3-0.6,11.7-0.8C506.5,183.2,511.1,183.1,511.1,183.1z"/>
		<path fill="#FF3366" d="M447.5,215.2c0,0,3.1-3.8,8-9.3c2.4-2.8,5.3-6,8.4-9.4c1.6-1.7,3.2-3.5,4.8-5.2c1.7-1.8,3.3-3.6,5-5.3
			c1.7-1.8,3.4-3.6,5.1-5.3c1.7-1.8,3.3-3.4,4.9-5.1c3.2-3.3,6.2-6.3,8.9-8.9c5.2-5.2,8.9-8.5,8.9-8.5s-3.1,3.8-8,9.3
			c-2.4,2.8-5.3,6-8.4,9.4c-1.6,1.7-3.2,3.5-4.8,5.2c-1.7,1.8-3.3,3.6-5,5.3c-1.7,1.8-3.4,3.6-5.1,5.3c-1.7,1.8-3.3,3.4-4.9,5.1
			c-3.2,3.3-6.3,6.3-8.9,8.9C451.1,211.9,447.5,215.2,447.5,215.2z"/>
		<path fill="#FF3366" d="M499.3,210.2c0,0-3.4-2.6-8.2-6.8c-2.4-2.1-5.2-4.6-8.2-7.3c-1.5-1.4-3-2.7-4.6-4.2
			c-1.5-1.4-3.1-2.9-4.7-4.4c-1.5-1.5-3.1-3-4.6-4.4s-3-2.9-4.4-4.3c-2.8-2.8-5.5-5.5-7.7-7.8c-4.5-4.6-7.3-7.8-7.3-7.8
			s3.4,2.6,8.2,6.8c2.4,2.1,5.2,4.6,8.2,7.3c1.5,1.4,3,2.7,4.6,4.2c1.5,1.4,3.1,2.9,4.7,4.4c1.5,1.5,3.1,3,4.6,4.4s3,2.9,4.4,4.3
			c2.9,2.8,5.5,5.5,7.7,7.8C496.5,206.9,499.3,210.2,499.3,210.2z"/>
	</g>
	<g>
		<path fill="#66CC33" d="M471.8,222.9c0,0-0.2-4.6-0.2-11.4c0-3.4,0-7.4,0.1-11.7c0.1-2.2,0.1-4.4,0.2-6.6c0.1-2.3,0.2-4.6,0.2-6.9
			c0.1-2.3,0.2-4.6,0.3-6.9c0.1-2.3,0.3-4.5,0.4-6.7c0.3-4.3,0.5-8.3,0.8-11.8c0.6-6.9,1.1-11.6,1.1-11.6s0.2,4.6,0.2,11.4
			c0,3.4,0,7.4-0.1,11.8c-0.1,2.2-0.1,4.4-0.2,6.6c-0.1,2.3-0.2,4.6-0.2,6.9c-0.1,2.3-0.2,4.6-0.3,6.9c-0.1,2.3-0.3,4.5-0.4,6.7
			c-0.3,4.3-0.5,8.4-0.8,11.8C472.3,218.3,471.8,222.9,471.8,222.9z"/>
		<path fill="#66CC33" d="M509.9,182.5c0,0-4.6,0.8-11.5,1.8c-3.4,0.5-7.5,1-11.8,1.5c-2.1,0.2-4.4,0.5-6.6,0.7
			c-2.3,0.2-4.5,0.5-6.8,0.7s-4.6,0.4-6.8,0.6c-2.3,0.2-4.5,0.4-6.6,0.5c-4.3,0.3-8.3,0.6-11.7,0.8c-6.9,0.4-11.4,0.5-11.4,0.5
			s4.6-0.8,11.5-1.8c3.4-0.5,7.5-1,11.8-1.5c2.1-0.2,4.4-0.5,6.6-0.7c2.3-0.2,4.5-0.5,6.8-0.7s4.6-0.4,6.8-0.6
			c2.3-0.2,4.5-0.4,6.6-0.5c4.3-0.3,8.3-0.6,11.7-0.8C505.4,182.6,509.9,182.5,509.9,182.5z"/>
		<path fill="#66CC33" d="M446.3,214.6c0,0,3.1-3.8,8-9.3c2.4-2.8,5.3-6,8.4-9.4c1.6-1.7,3.2-3.5,4.8-5.2c1.7-1.8,3.3-3.6,5-5.3
			c1.7-1.8,3.4-3.6,5.1-5.3c1.7-1.8,3.3-3.4,4.9-5.1c3.2-3.3,6.2-6.3,8.9-8.9c5.2-5.2,8.9-8.5,8.9-8.5s-3.1,3.8-8,9.3
			c-2.4,2.8-5.3,6-8.4,9.4c-1.6,1.7-3.2,3.5-4.8,5.2c-1.7,1.8-3.3,3.6-5,5.3c-1.7,1.8-3.4,3.6-5.1,5.3c-1.7,1.8-3.3,3.4-4.9,5.1
			c-3.2,3.3-6.3,6.3-8.9,8.9C449.9,211.3,446.3,214.6,446.3,214.6z"/>
		<path fill="#66CC33" d="M498.1,209.6c0,0-3.4-2.6-8.2-6.8c-2.4-2.1-5.2-4.6-8.2-7.3c-1.5-1.4-3-2.7-4.6-4.2
			c-1.5-1.4-3.1-2.9-4.7-4.4c-1.5-1.5-3.1-3-4.6-4.4s-3-2.9-4.4-4.3c-2.8-2.8-5.5-5.5-7.7-7.8c-4.5-4.6-7.3-7.8-7.3-7.8
			s3.4,2.6,8.2,6.8c2.4,2.1,5.2,4.6,8.2,7.3c1.5,1.4,3,2.7,4.6,4.2c1.5,1.4,3.1,2.9,4.7,4.4c1.5,1.5,3.1,3,4.6,4.4s3,2.9,4.4,4.3
			c2.9,2.8,5.5,5.5,7.7,7.8C495.3,206.4,498.1,209.6,498.1,209.6z"/>
	</g>
</g>
<g>
	<g>
		<path fill="#FF3366" d="M380,251.1c0,0,0.3,4.6,0.6,11.4c0.1,3.4,0.2,7.4,0.3,11.7c0,2.2,0.1,4.4,0,6.6c0,2.3,0,4.6,0,6.9
			s-0.1,4.6-0.1,6.9s-0.1,4.5-0.1,6.7c-0.1,4.3-0.3,8.4-0.4,11.8c-0.3,6.9-0.7,11.6-0.7,11.6s-0.3-4.6-0.6-11.4
			c-0.1-3.4-0.2-7.4-0.3-11.7c0-2.2-0.1-4.4,0-6.6c0-2.3,0-4.6,0-6.9s0.1-4.6,0.1-6.9s0.1-4.5,0.1-6.7c0.1-4.3,0.3-8.4,0.4-11.8
			C379.6,255.8,380,251.1,380,251.1z"/>
		<path fill="#FF3366" d="M343.2,292.7c0,0,4.6-1,11.4-2.2c3.4-0.6,7.4-1.2,11.7-1.9c2.1-0.3,4.3-0.7,6.6-1c2.2-0.3,4.5-0.6,6.8-0.9
			s4.6-0.6,6.8-0.9c2.2-0.3,4.5-0.5,6.6-0.8c4.3-0.5,8.3-0.9,11.7-1.2c6.8-0.6,11.4-0.8,11.4-0.8s-4.6,1-11.4,2.2
			c-3.4,0.6-7.4,1.2-11.7,1.9c-2.1,0.3-4.3,0.7-6.6,1c-2.2,0.3-4.5,0.6-6.8,0.9s-4.6,0.6-6.8,0.9c-2.2,0.3-4.5,0.5-6.6,0.8
			c-4.3,0.5-8.3,0.9-11.7,1.2C347.8,292.5,343.2,292.7,343.2,292.7z"/>
		<path fill="#FF3366" d="M405.7,258.5c0,0-3,3.9-7.7,9.6c-2.3,2.9-5.1,6.1-8.1,9.6c-1.5,1.7-3,3.6-4.6,5.4s-3.2,3.7-4.8,5.5
			c-1.6,1.8-3.3,3.7-4.9,5.5s-3.2,3.6-4.8,5.3c-3.1,3.4-6,6.5-8.6,9.2c-5.1,5.4-8.6,8.8-8.6,8.8s3-3.9,7.7-9.6
			c2.3-2.8,5.1-6.1,8.1-9.6c1.5-1.7,3-3.6,4.6-5.4s3.2-3.7,4.8-5.5c1.6-1.8,3.3-3.7,4.9-5.5s3.2-3.6,4.8-5.3c3.1-3.4,6-6.5,8.6-9.2
			C402.2,261.9,405.7,258.5,405.7,258.5z"/>
		<path fill="#FF3366" d="M354.1,265.3c0,0,3.5,2.5,8.5,6.6c2.5,2,5.4,4.4,8.5,7c1.5,1.3,3.1,2.6,4.7,4s3.2,2.8,4.8,4.2
			c1.6,1.4,3.2,2.8,4.8,4.3c1.6,1.4,3.1,2.8,4.6,4.2c2.9,2.7,5.7,5.3,8,7.5c4.6,4.5,7.5,7.6,7.5,7.6s-3.5-2.5-8.5-6.5
			c-2.5-2-5.4-4.4-8.5-7c-1.5-1.3-3.1-2.6-4.7-4s-3.2-2.8-4.8-4.2c-1.6-1.4-3.2-2.9-4.8-4.3c-1.6-1.4-3.1-2.8-4.6-4.2
			c-2.9-2.7-5.7-5.3-8-7.5C357,268.4,354.1,265.3,354.1,265.3z"/>
	</g>
	<g>
		<path fill="#66CC33" d="M381.2,251.7c0,0,0.3,4.6,0.6,11.4c0.1,3.4,0.2,7.4,0.3,11.7c0,2.2,0.1,4.4,0,6.6c0,2.3,0,4.6,0,6.9
			s-0.1,4.6-0.1,6.9s-0.1,4.5-0.1,6.7c-0.1,4.3-0.3,8.4-0.4,11.8c-0.3,6.9-0.7,11.6-0.7,11.6s-0.3-4.6-0.6-11.4
			c-0.1-3.4-0.2-7.4-0.3-11.7c0-2.2-0.1-4.4,0-6.6c0-2.3,0-4.6,0-6.9s0.1-4.6,0.1-6.9s0.1-4.5,0.1-6.7c0.1-4.3,0.3-8.4,0.4-11.8
			C380.8,256.3,381.2,251.7,381.2,251.7z"/>
		<path fill="#66CC33" d="M344.4,293.3c0,0,4.6-1,11.4-2.2c3.4-0.6,7.4-1.2,11.7-1.9c2.1-0.3,4.3-0.7,6.6-1c2.2-0.3,4.5-0.6,6.8-0.9
			s4.6-0.6,6.8-0.9c2.2-0.3,4.5-0.5,6.6-0.8c4.3-0.5,8.3-0.9,11.7-1.2c6.8-0.6,11.4-0.8,11.4-0.8s-4.6,1-11.4,2.2
			c-3.4,0.6-7.4,1.2-11.7,1.9c-2.1,0.3-4.3,0.7-6.6,1c-2.2,0.3-4.5,0.6-6.8,0.9s-4.6,0.6-6.8,0.9c-2.2,0.3-4.5,0.5-6.6,0.8
			c-4.3,0.5-8.3,0.9-11.7,1.2C349,293.1,344.4,293.3,344.4,293.3z"/>
		<path fill="#66CC33" d="M406.9,259.1c0,0-3,3.9-7.7,9.6c-2.3,2.9-5.1,6.1-8.1,9.6c-1.5,1.7-3,3.6-4.6,5.4s-3.2,3.7-4.8,5.5
			c-1.6,1.8-3.3,3.7-4.9,5.5s-3.2,3.6-4.8,5.3c-3.1,3.4-6,6.5-8.6,9.2c-5.1,5.4-8.6,8.8-8.6,8.8s3-3.9,7.7-9.6
			c2.3-2.8,5.1-6.1,8.1-9.6c1.5-1.7,3-3.6,4.6-5.4s3.2-3.7,4.8-5.5c1.6-1.8,3.3-3.7,4.9-5.5s3.2-3.6,4.8-5.3c3.1-3.4,6-6.5,8.6-9.2
			C403.4,262.5,406.9,259.1,406.9,259.1z"/>
		<path fill="#66CC33" d="M355.3,265.9c0,0,3.5,2.5,8.5,6.6c2.5,2,5.4,4.4,8.5,7c1.5,1.3,3.1,2.6,4.7,4s3.2,2.8,4.8,4.2
			c1.6,1.4,3.2,2.8,4.8,4.3c1.6,1.4,3.1,2.8,4.6,4.2c2.9,2.7,5.7,5.3,8,7.5c4.6,4.5,7.5,7.6,7.5,7.6s-3.5-2.5-8.5-6.5
			c-2.5-2-5.4-4.4-8.5-7c-1.5-1.3-3.1-2.6-4.7-4s-3.2-2.8-4.8-4.2c-1.6-1.4-3.2-2.9-4.8-4.3c-1.6-1.4-3.1-2.8-4.6-4.2
			c-2.9-2.7-5.7-5.3-8-7.5C358.2,269,355.3,265.9,355.3,265.9z"/>
	</g>
</g>
</svg>
