<?xml version="1.0" encoding="utf-8"?>
<!-- Generator: Adobe Illustrator 18.1.1, SVG Export Plug-In . SVG Version: 6.00 Build 0)  -->
<svg version="1.1" id="Layer_1" xmlns="http://www.w3.org/2000/svg" xmlns:xlink="http://www.w3.org/1999/xlink" x="0px" y="0px"
	 viewBox="4194.8 -303.8 560 560" enable-background="new 4194.8 -303.8 560 560" xml:space="preserve">
<path fill="none" stroke="#E5096D" stroke-width="30" stroke-miterlimit="10" d="M4474.8-288.8c146.4,0,265,118.5,265,265
	s-118.5,265-265,265s-265-118.6-265-265S4328.4-288.8,4474.8-288.8z"/>
<path fill="none" stroke="#32B732" stroke-width="15" stroke-miterlimit="10" d="M4440.9,88.3c-1.1,0-1.8-0.2-2.2-0.6
	c-0.4-0.4-0.6-1.1-0.6-2.3c0.2-46.3,0.3-87.9,0.4-127.1c0-7.2-0.1-14.6-0.2-21.7c0-3.4-0.1-6.7-0.1-10.1c0-0.4,0-0.8,0-1.3V-76h25.4
	c7.4,0,17.2,0,27-0.1c1.2,0,1.9,0.2,2.3,0.6s0.6,1.1,0.6,2.2c-0.1,4.2-0.1,8.5-0.1,12.7c0,1.6,0,3.3,0,4.9c0,0.5,0,1,0.1,1.5l0.7-1
	c0.9-1.2,1.7-2.3,2.6-3.4c9.9-13,23.5-20.1,40.3-21.1c10.6-0.6,20.4,0.7,29.2,4.1c9,3.4,16.6,8.9,22.7,16.4
	c8.3,10.3,13.1,22.9,15,39.5c0.2,1.5,0.4,3,0.6,4.5l0.3,2.1V88.2h-55.1V62.6c0-20.3,0-40.6,0-60.9c0-7.8-0.7-13.6-2.3-18.9
	c-2.6-9-7.4-14.6-14.6-17.3c-3.3-1.2-6.7-1.8-10.2-1.8c-9,0-17.2,4-22.5,10.8c-4.7,6.1-6.9,12.3-6.8,18.9c0,1.4,0,2.8,0,4.2
	c0,1-0.1,2.1-0.1,3.1c0,20.7,0,41.4,0,62.1v22.1c0,2.9-0.2,3.1-3,3.1h-22.6C4459.9,88.2,4450.5,88.2,4440.9,88.3L4440.9,88.3z
	 M4438.9-75.2v0.4c0,0.5,0,0.9,0,1.2c0,3.4,0.1,6.7,0.1,10.1c0.1,7.1,0.2,14.5,0.2,21.7c-0.1,39.2-0.2,80.8-0.4,127.1
	c0,0.9,0.1,1.4,0.4,1.7c0.3,0.3,0.8,0.4,1.6,0.4v0.5v-0.4c9.6,0,18.9-0.1,26.8-0.1h22.6c1.1,0,1.8,0,2-0.2s0.2-1,0.2-2.1V63
	c0-20.7,0-41.4,0-62.1c0-1,0-2.1,0.1-3.1c0-1.4,0.1-2.8,0-4.2c-0.1-6.9,2.1-13.2,6.9-19.4c5.5-7.1,13.9-11.2,23.2-11.2
	c3.6,0,7.1,0.6,10.5,1.8c7.4,2.7,12.3,8.5,15.1,17.8c1.6,5.4,2.3,11.3,2.3,19.1c0,20.3,0,40.6,0,60.9v24.7h53.5V-13l-0.3-2.1
	c-0.2-1.5-0.4-3-0.6-4.5c-1.9-16.5-6.6-28.9-14.9-39.1c-5.9-7.3-13.4-12.8-22.3-16.1c-8.7-3.3-18.4-4.7-28.9-4
	c-16.6,1-29.9,8-39.7,20.8c-0.9,1.1-1.7,2.3-2.6,3.4l-1.6,2.1l-0.2-0.6c-0.4-1-0.4-1.7-0.4-2.5c0-1.6,0-3.3,0-4.9
	c0-4.2,0-8.5,0.1-12.7c0-0.9-0.1-1.4-0.4-1.7s-0.8-0.4-1.7-0.4c-9.8,0-19.6,0.1-27,0.1H4438.9z"/>
<path fill="none" stroke="#32B732" stroke-width="15" stroke-miterlimit="10" d="M4345.9-130.1c0.5-1.8,0.9-3.6,1.5-5.4
	c2.8-8,8.2-13.5,16.1-16.5c9.8-3.6,19.7-3.6,29,1.3c11,5.8,16.3,17.5,13.9,30.1c-2.1,10.7-8.6,17.6-18.9,20.9
	c-9,2.8-18,2.5-26.6-1.7c-8.2-4-12.8-10.8-14.6-19.7c-0.1-0.4-0.3-0.9-0.4-1.3C4345.9-124.9,4345.9-127.5,4345.9-130.1z"/>
<path fill="none" stroke="#32B732" stroke-width="15" stroke-miterlimit="10" d="M4403.3,87.8c-0.9,0-1.5,0-2.1,0
	c-16.6,0-33.2,0-49.8,0c-1.9,0-2.3-0.6-2.3-2.4c0-52.9,0-105.8,0-158.6c0-0.7,0-1.3,0-2.2c18.1,0,36.1,0,54.2,0
	C4403.3-21,4403.3,33.2,4403.3,87.8z"/>
</svg>
