<?xml version="1.0" encoding="utf-8"?>
<!-- Generator: Adobe Illustrator 18.0.0, SVG Export Plug-In . SVG Version: 6.00 Build 0)  -->
<!DOCTYPE svg PUBLIC "-//W3C//DTD SVG 1.1//EN" "http://www.w3.org/Graphics/SVG/1.1/DTD/svg11.dtd">
<svg version="1.1" id="Layer_1" xmlns="http://www.w3.org/2000/svg" xmlns:xlink="http://www.w3.org/1999/xlink" x="0px" y="0px"
	 viewBox="0 0 960 560" enable-background="new 0 0 960 560" xml:space="preserve">
<g>
	<g>
		<path fill="#999999" d="M663.5,240.9c0,0,16.9,24.7,41.9,62.9c12,19.5,26.3,41.9,40.9,65.5c7.8,12,15.2,24.7,22.1,37.3
			c7.8,12.7,15.2,26.3,23,39.3c7.8,13,15.2,26.3,22.1,39.3c7.8,12.7,14.6,25.6,21.4,38.3c13.6,24.7,26.3,47.7,36.7,68.1
			c21.4,39.9,34.1,67.2,34.1,67.2s-16.9-24.7-41.9-62.9c-12-19.5-26.3-41.9-40.9-65.5c-7.8-12-15.2-24.7-22.1-37.3
			c-7.8-12.7-15.2-26.3-23-39.3c-7.8-12.7-15.2-26.3-22.1-39.3c-7.8-12.7-14.6-25.6-21.4-38.3c-13.6-24.7-26.3-48.7-36.7-68.1
			C676.5,268.1,663.5,240.9,663.5,240.9z"/>
		<path fill="#999999" d="M575.3,571.1c0,0,24.7-16.9,62.9-41.9c19.5-12,41.9-26.3,65.5-40.9c12-7.8,24.7-15.2,37.3-22.1
			c12.7-7.8,26.3-15.2,39.3-23c12.7-7.8,26.3-15.2,39.3-22.1c12.7-7.8,25.6-14.6,38.3-21.4c24.7-13.6,47.7-26.3,68.1-36.7
			c39.9-21.4,67.2-34.1,67.2-34.1S968.5,346,930.2,371c-19.5,12-41.9,26.3-65.5,40.9c-12,7.8-24.7,15.2-37.3,22.1
			c-12.7,7.8-26.3,15.2-39.3,23c-12.7,7.8-26.3,15.2-39.3,22.1c-12.7,7.8-25.6,14.6-38.3,21.4c-24.7,13.6-48.7,26.3-68.1,36.7
			C602.2,557.5,575.3,571.1,575.3,571.1z"/>
		<path fill="#999999" d="M847.5,216.2c0,0-5.2,29.8-15.2,74c-5.2,22.1-11,47.7-17.8,75.6c-3.2,13.6-6.8,28.2-11,42.5
			c-3.2,14.6-7.8,28.9-12,43.5c-3.2,14.6-7.8,28.9-12,43.5c-4.2,14.6-7.8,28.2-12,41.9c-7.8,27.3-15.2,52.9-22.1,74
			c-13.6,43.5-23.7,72.4-23.7,72.4s5.2-29.8,15.2-74c5.2-22.1,11-47.7,17.8-75.6c3.2-13.6,6.8-28.2,11-42.5
			c3.2-14.6,7.8-28.9,11-43.5c4.2-14.6,7.8-28.9,12-43.5c4.2-14.6,7.8-28.2,12-42.5c7.8-27.3,15.2-52.9,22.1-74
			C837.1,245.1,847.5,216.2,847.5,216.2z"/>
		<path fill="#999999" d="M551.3,387.2c0,0,29.8,5.2,74,15.2c22.1,5.2,47.7,11,75.6,17.8c13.6,3.2,28.2,6.8,42.5,11
			c14.6,4.2,28.9,7.8,43.5,12c14.6,4.2,28.9,7.8,43.5,12c14.6,3.2,28.2,7.8,41.9,12c27.3,7.8,52.9,15.2,74,22.1
			c43.5,13.6,72.4,23.7,72.4,23.7s-29.8-5.2-74-15.2c-22.1-5.2-47.7-11-75.6-17.8c-13.6-3.2-28.2-6.8-42.5-11
			c-14.6-4.2-28.9-7.8-43.5-12c-14.6-3.2-28.9-7.8-43.5-12c-14.6-4.2-28.2-7.8-41.9-12c-27.3-7.8-52.9-15.2-74-22.1
			C579.5,397.6,551.3,387.2,551.3,387.2z"/>
	</g>
	<g>
		<path fill="#CCCCCC" d="M672.9,240.9c0,0,16.9,24.7,41.9,62.9c12,19.5,26.3,41.9,40.9,65.5c7.8,12,15.2,24.7,22.1,37.3
			c7.8,12.7,15.2,26.3,23,39.3c7.8,13,15.2,26.3,22.1,39.3c7.8,12.7,14.6,25.6,21.4,38.3c13.6,24.7,26.3,47.7,36.7,68.1
			c21.4,39.9,34.1,67.2,34.1,67.2s-16.9-24.7-41.9-62.9c-12-19.5-26.3-41.9-40.9-65.5c-7.8-12-15.2-24.7-22.1-37.3
			c-7.8-12.7-15.2-26.3-23-39.3c-7.8-12.7-15.2-26.3-22.1-39.3c-7.8-12.7-14.6-25.6-21.4-38.3C730,351.5,717.4,327.5,707,308
			C685.6,268.1,672.9,240.9,672.9,240.9z"/>
		<path fill="#CCCCCC" d="M584.4,571.1c0,0,24.7-16.9,62.9-41.9c19.5-12,41.9-26.3,65.5-40.9c12-7.8,24.7-15.2,37.3-22.1
			c12.7-7.8,26.3-15.2,39.3-23c12.7-7.8,26.3-15.2,39.3-22.1c12.7-7.8,25.6-14.6,38.3-21.4c24.7-13.6,47.7-26.3,68.1-36.7
			c39.9-21.4,67.2-34.1,67.2-34.1S977.6,346,939.3,371c-19.5,12-41.9,26.3-65.5,40.9c-12,7.8-24.7,15.2-37.3,22.1
			c-12.7,7.8-26.3,15.2-39.3,23c-12.7,7.8-26.3,15.2-39.3,22.1c-12.7,7.8-25.6,14.6-38.3,21.4C695,514,671,526.7,651.5,537.1
			C611.6,557.5,584.4,571.1,584.4,571.1z"/>
		<path fill="#CCCCCC" d="M856.9,216.2c0,0-5.2,29.8-15.2,74c-5.2,22.1-11,47.7-17.8,75.6c-3.2,13.6-6.8,28.2-11,42.5
			c-4.2,14.6-7.8,28.9-12,43.5c-4.2,14.6-7.8,28.9-12,43.5c-3.2,14.6-7.8,28.2-12,41.9c-7.8,27.3-15.2,52.9-22.1,74
			c-13.6,43.5-23.7,72.4-23.7,72.4s5.2-29.8,15.2-74c5.2-22.1,11-47.7,17.8-75.6c3.2-13.6,6.8-28.2,11-42.5
			c4.2-14.6,7.8-28.9,12-43.5c3.2-14.6,7.8-28.9,12-43.5c4.2-14.6,7.8-28.2,12-42.5c7.8-27.3,15.2-52.9,22.1-74
			C845.9,245.1,856.9,216.2,856.9,216.2z"/>
		<path fill="#CCCCCC" d="M560.7,383.9c0,0,29.8,5.2,74,15.2c22.1,5.2,47.7,11,75.6,17.8c13.6,3.2,28.2,6.8,42.5,11
			s28.9,7.8,43.5,12c14.6,4.2,28.9,7.8,43.5,12c14.6,3.2,28.2,7.8,42.5,12c27.3,7.8,52.9,15.2,74,22.1
			c43.5,13.6,72.4,23.7,72.4,23.7s-29.8-5.2-74-15.2c-22.1-5.2-47.7-11-75.6-17.8c-13.6-3.2-28.2-6.8-42.5-11
			c-14.6-4.2-28.9-7.8-43.5-12c-14.6-3.2-28.9-7.8-43.5-12c-14.6-4.2-28.2-7.8-42.5-12c-27.3-7.8-52.9-15.2-74-22.1
			C588.6,394.3,560.7,383.9,560.7,383.9z"/>
	</g>
</g>
<g>
	<g>
		<path fill="#CCCCCC" d="M464,367.4c0,0,6.8,9.7,16.5,25.3c4.9,7.8,10.7,16.5,16.2,26.3c2.9,4.9,6.2,9.7,8.8,14.9
			c2.9,5.2,6.2,10.7,9.1,15.6c2.9,5.2,6.2,10.7,8.8,15.6c2.9,5.2,5.8,10.1,8.4,15.2c5.5,9.7,10.7,19.1,14.6,27.3
			c8.4,15.9,13.6,26.9,13.6,26.9s-6.8-9.7-16.5-25.3c-4.9-7.8-10.7-16.5-16.2-26.3c-2.9-4.9-6.2-9.7-8.8-14.9
			c-2.9-5.2-6.2-10.7-9.1-15.6c-2.9-5.2-6.2-10.7-8.8-15.6c-2.9-5.2-5.8-10.1-8.4-15.2c-5.5-9.7-10.7-19.5-14.6-27.3
			C469.2,378.4,464,367.4,464,367.4z"/>
		<path fill="#CCCCCC" d="M428.6,499.4c0,0,9.7-6.8,25.3-16.5c7.8-4.9,16.5-10.7,26.3-16.2c4.9-2.9,9.7-6.2,14.9-8.8
			c5.2-2.9,10.7-6.2,15.6-9.1c5.2-2.9,10.7-6.2,15.6-8.8c5.2-2.9,10.1-5.8,15.2-8.4c9.7-5.5,19.1-10.7,27.3-14.6
			c15.9-8.4,26.9-13.6,26.9-13.6s-9.7,6.8-25.3,16.5c-7.8,4.9-16.5,10.7-26.3,16.2c-4.9,2.9-9.7,6.2-14.9,8.8
			c-5.2,2.9-10.7,6.2-15.6,9.1c-5.2,2.9-10.7,6.2-15.6,8.8c-5.2,2.9-10.1,5.8-15.2,8.4c-9.7,5.5-19.5,10.7-27.3,14.6
			C439.7,493.9,428.6,499.4,428.6,499.4z"/>
		<path fill="#CCCCCC" d="M537.6,357.7c0,0-1.9,12-6.2,29.5c-1.9,8.8-4.5,19.1-7.1,30.2c-1.3,5.5-2.6,11.4-4.5,16.9
			c-1.3,5.8-2.9,11.7-4.9,17.5c-1.3,5.8-2.9,11.7-4.9,17.5c-1.6,5.8-2.9,11.4-4.9,16.5c-2.9,11-6.2,21.1-8.8,29.5
			c-5.5,17.5-9.4,28.9-9.4,28.9s1.9-12,6.2-29.5c1.9-8.8,4.5-19.1,7.1-30.2c1.3-5.5,2.6-11.4,4.5-16.9c1.3-5.8,2.9-11.7,4.5-17.5
			s2.9-11.7,4.9-17.5c1.6-5.8,2.9-11.4,4.9-16.9c2.9-11,6.2-21.1,8.8-29.5C533.4,369,537.6,357.7,537.6,357.7z"/>
		<path fill="#CCCCCC" d="M419.2,426.1c0,0,12,1.9,29.5,6.2c8.8,1.9,19.1,4.5,30.2,7.1c5.5,1.3,11.4,2.6,16.9,4.5
			c5.5,1.9,11.7,2.9,17.5,4.9c5.8,1.6,11.7,2.9,17.5,4.9c5.8,1.3,11.4,2.9,16.5,4.9c11,2.9,21.1,6.2,29.5,8.8
			c17.5,5.5,28.9,9.4,28.9,9.4s-12-1.9-29.5-6.2c-8.8-1.9-19.1-4.5-30.2-7.1c-5.5-1.3-11.4-2.6-16.9-4.5s-11.7-2.9-17.5-4.9
			c-5.8-1.3-11.7-2.9-17.5-4.9c-5.8-1.6-11.4-2.9-16.5-4.9c-11-2.9-21.1-6.2-29.5-8.8C430.3,430,419.2,426.1,419.2,426.1z"/>
	</g>
	<g>
		<path fill="#999999" d="M467.9,367.4c0,0,6.8,9.7,16.5,25.3c4.9,7.8,10.7,16.5,16.2,26.3c2.9,4.9,6.2,9.7,8.8,14.9
			c2.9,5.2,6.2,10.7,9.1,15.6c2.9,5.2,6.2,10.7,8.8,15.6c2.9,5.2,5.8,10.1,8.4,15.2c5.5,9.7,10.7,19.1,14.6,27.3
			c8.4,15.9,13.6,26.9,13.6,26.9s-6.8-9.7-16.5-25.3c-4.9-7.8-10.7-16.5-16.2-26.3c-2.9-4.9-6.2-9.7-8.8-14.9
			c-2.9-5.2-6.2-10.7-9.1-15.6c-2.9-5.2-6.2-10.7-8.8-15.6c-2.9-5.2-5.8-10.1-8.4-15.2c-5.5-9.7-10.7-19.5-14.6-27.3
			C472.8,378.4,467.9,367.4,467.9,367.4z"/>
		<path fill="#999999" d="M432.5,499.4c0,0,9.7-6.8,25.3-16.5c7.8-4.9,16.5-10.7,26.3-16.2c4.9-2.9,9.7-6.2,14.9-8.8
			c5.2-2.9,10.7-6.2,15.6-9.1c5.2-2.9,10.7-6.2,15.6-8.8c5.2-2.9,10.1-5.8,15.2-8.4c9.7-5.5,19.1-10.7,27.3-14.6
			c15.9-8.4,26.9-13.6,26.9-13.6s-9.7,6.8-25.3,16.5c-7.8,4.9-16.5,10.7-26.3,16.2c-4.9,2.9-9.7,6.2-14.9,8.8
			c-5.2,2.9-10.7,6.2-15.6,9.1c-5.2,2.9-10.7,6.2-15.6,8.8c-5.2,2.9-10.1,5.8-15.2,8.4c-9.7,5.5-19.5,10.7-27.3,14.6
			C443.2,493.9,432.5,499.4,432.5,499.4z"/>
		<path fill="#999999" d="M541.2,357.7c0,0-1.9,12-6.2,29.5c-1.9,8.8-4.5,19.1-7.1,30.2c-1.3,5.5-2.6,11.4-4.5,16.9
			c-1.6,5.8-2.9,11.7-4.9,17.5c-1.6,5.8-2.9,11.7-4.9,17.5c-1.3,5.8-2.9,11.4-4.9,16.5c-2.9,11-6.2,21.1-8.8,29.5
			c-5.5,17.5-9.4,28.9-9.4,28.9s1.9-12,6.2-29.5c1.9-8.8,4.5-19.1,7.1-30.2c1.3-5.5,2.6-11.4,4.5-16.9c1.6-5.8,2.9-11.7,4.9-17.5
			c1.3-5.8,2.9-11.7,4.9-17.5c1.6-5.8,2.9-11.4,4.9-16.9c2.9-11,6.2-21.1,8.8-29.5C537,369,541.2,357.7,541.2,357.7z"/>
		<path fill="#999999" d="M422.8,424.8c0,0,12,1.9,29.5,6.2c8.8,1.9,19.1,4.5,30.2,7.1c5.5,1.3,11.4,2.6,16.9,4.5
			c5.8,1.6,11.7,2.9,17.5,4.9c5.8,1.6,11.7,2.9,17.5,4.9c5.8,1.3,11.4,2.9,16.9,4.9c11,2.9,21.1,6.2,29.5,8.8
			c17.5,5.5,28.9,9.4,28.9,9.4s-12-1.9-29.5-6.2c-8.8-1.9-19.1-4.5-30.2-7.1c-5.5-1.3-11.4-2.6-16.9-4.5c-5.8-1.6-11.7-2.9-17.5-4.9
			c-5.8-1.3-11.7-2.9-17.5-4.9c-5.8-1.6-11.4-2.9-16.9-4.9c-11-2.9-21.1-6.2-29.5-8.8C434.1,428.7,422.8,424.8,422.8,424.8z"/>
	</g>
</g>
<g>
	<g>
		<path fill="#CCCCCC" d="M756.3,61.4c0,0,8.4,12.3,20.8,31.5c5.8,9.7,13.3,20.8,20.4,32.8c3.9,5.8,7.8,12.3,11,18.8
			c3.9,6.5,7.8,13.3,11.4,19.5c3.9,6.5,7.8,13.3,11,19.5c3.9,6.5,7.1,12.7,10.7,19.1c6.8,12.3,13.3,23.7,18.2,34.1
			c10.7,20.1,16.9,33.7,16.9,33.7s-8.4-12.3-20.8-31.5c-5.8-9.7-13.3-20.8-20.4-32.8c-3.9-5.8-7.8-12.3-11-18.8
			c-3.9-6.5-7.8-13.3-11.4-19.5c-3.9-6.5-7.8-13.3-11-19.5c-3.9-6.5-7.1-12.7-10.7-19.1c-6.8-12.3-13.3-24.3-18.2-34.1
			C762.8,75.1,756.3,61.4,756.3,61.4z"/>
		<path fill="#CCCCCC" d="M712.2,226.6c0,0,12.3-8.4,31.5-20.8c9.7-5.8,20.8-13.3,32.8-20.4c5.8-3.9,12.3-7.8,18.8-11
			c6.5-3.9,13.3-7.8,19.5-11.4c6.5-3.9,13.3-7.8,19.5-11c6.5-3.9,12.7-7.1,19.1-10.7c12.3-6.8,23.7-13.3,34.1-18.2
			c20.1-10.7,33.7-16.9,33.7-16.9s-12.3,8.4-31.5,20.8c-9.7,5.8-20.8,13.3-32.8,20.4c-5.8,3.9-12.3,7.8-18.8,11
			c-6.5,3.9-13.3,7.8-19.5,11.4c-6.5,3.9-13.3,7.8-19.5,11c-6.5,3.9-12.7,7.1-19.1,10.7c-12.3,6.8-24.3,13.3-34.1,18.2
			C725.8,219.8,712.2,226.6,712.2,226.6z"/>
		<path fill="#CCCCCC" d="M848.1,49.1c0,0-2.6,14.9-7.8,37c-2.6,11-5.5,23.7-9.1,38c-1.6,6.8-3.2,14-5.5,21.4
			c-1.6,7.1-3.9,14.6-5.8,21.7c-1.6,7.1-3.9,14.6-5.8,21.7c-2.3,7.1-3.9,14-5.8,20.8c-3.9,13.6-7.8,26.3-11,37
			c-6.8,21.7-12,36-12,36s2.6-14.9,7.8-37c2.6-11,5.5-23.7,9.1-38c1.6-6.8,3.2-14,5.5-21.4c1.6-7.1,3.9-14.6,5.5-21.7
			c2.3-7.1,3.9-14.6,5.8-21.7c2.3-7.1,3.9-14,5.8-21.4c3.9-13.6,7.8-26.3,11-37C843.3,63.7,848.1,49.1,848.1,49.1z"/>
		<path fill="#CCCCCC" d="M700.2,134.8c0,0,14.9,2.6,37,7.8c11,2.6,23.7,5.5,38,9.1c6.8,1.6,14,3.2,21.4,5.5
			c7.1,2.3,14.6,3.9,21.7,5.8c7.1,2.3,14.6,3.9,21.7,5.8c7.1,1.6,14,3.9,20.8,5.8c13.6,3.9,26.3,7.8,37,11c21.7,6.8,36,12,36,12
			s-14.9-2.6-37-7.8c-11-2.6-23.7-5.5-38-9.1c-6.8-1.6-14-3.2-21.4-5.5c-7.1-2.3-14.6-3.9-21.7-5.8c-7.1-1.6-14.6-3.9-21.7-5.8
			c-7.1-2.3-14-3.9-20.8-5.8c-13.6-3.9-26.3-7.8-37-11C714.1,140,700.2,134.8,700.2,134.8z"/>
	</g>
	<g>
		<path fill="#999999" d="M761.2,61.4c0,0,8.4,12.3,20.8,31.5c5.8,9.7,13.3,20.8,20.4,32.8c3.9,5.8,7.8,12.3,11,18.8
			c3.9,6.5,7.8,13.3,11.4,19.5c3.9,6.5,7.8,13.3,11,19.5c3.9,6.5,7.1,12.7,10.7,19.1c6.8,12.3,13.3,23.7,18.2,34.1
			c10.7,20.1,16.9,33.7,16.9,33.7s-8.4-12.3-20.8-31.5c-5.8-9.7-13.3-20.8-20.4-32.8c-3.9-5.8-7.8-12.3-11-18.8
			c-3.9-6.5-7.8-13.3-11.4-19.5c-3.9-6.5-7.8-13.3-11-19.5c-3.9-6.5-7.1-12.7-10.7-19.1c-6.8-12.3-13.3-24.3-18.2-34.1
			C767.4,75.1,761.2,61.4,761.2,61.4z"/>
		<path fill="#999999" d="M716.7,226.6c0,0,12.3-8.4,31.5-20.8c9.7-5.8,20.8-13.3,32.8-20.4c5.8-3.9,12.3-7.8,18.8-11
			c6.5-3.9,13.3-7.8,19.5-11.4c6.5-3.9,13.3-7.8,19.5-11c6.5-3.9,12.7-7.1,19.1-10.7c12.3-6.8,23.7-13.3,34.1-18.2
			c20.1-10.7,33.7-16.9,33.7-16.9s-12.3,8.4-31.5,20.8c-9.7,5.8-20.8,13.3-32.8,20.4c-5.8,3.9-12.3,7.8-18.8,11
			c-6.5,3.9-13.3,7.8-19.5,11.4c-6.5,3.9-13.3,7.8-19.5,11c-6.5,3.9-12.7,7.1-19.1,10.7c-12.3,6.8-24.3,13.3-34.1,18.2
			C730.4,219.8,716.7,226.6,716.7,226.6z"/>
		<path fill="#999999" d="M853,49.1c0,0-2.6,14.9-7.8,37c-2.6,11-5.5,23.7-9.1,38c-1.6,6.8-3.2,14-5.5,21.4
			c-2.3,7.1-3.9,14.6-5.8,21.7c-2.3,7.1-3.9,14.6-5.8,21.7c-1.6,7.1-3.9,14-5.8,20.8c-3.9,13.6-7.8,26.3-11,37
			c-6.8,21.7-12,36-12,36s2.6-14.9,7.8-37c2.6-11,5.5-23.7,9.1-38c1.6-6.8,3.2-14,5.5-21.4c2.3-7.5,3.9-14.6,5.8-21.7
			c1.6-7.1,3.9-14.6,5.8-21.7c2.3-7.1,3.9-14,5.8-21.4c3.9-13.6,7.8-26.3,11-37C847.5,63.7,853,49.1,853,49.1z"/>
		<path fill="#999999" d="M705.1,133.1c0,0,14.9,2.6,37,7.8c11,2.6,23.7,5.5,38,9.1c6.8,1.6,14,3.2,21.4,5.5
			c7.1,2.3,14.6,3.9,21.7,5.8c7.1,2.3,14.6,3.9,21.7,5.8c7.1,1.6,14,3.9,21.4,5.8c13.6,3.9,26.3,7.8,37,11c21.7,6.8,36,12,36,12
			s-14.9-2.6-37-7.8c-11-2.6-23.7-5.5-38-9.1c-6.8-1.6-14-3.2-21.4-5.5c-7.1-2.3-14.6-3.9-21.7-5.8c-7.1-1.6-14.6-3.9-21.7-5.8
			c-7.1-2.3-14-3.9-21.4-5.8c-13.6-3.9-26.3-7.8-37-11C719,138.3,705.1,133.1,705.1,133.1z"/>
	</g>
</g>
</svg>
