<?xml version="1.0" encoding="utf-8"?>
<!-- Generator: Adobe Illustrator 18.0.0, SVG Export Plug-In . SVG Version: 6.00 Build 0)  -->
<!DOCTYPE svg PUBLIC "-//W3C//DTD SVG 1.1//EN" "http://www.w3.org/Graphics/SVG/1.1/DTD/svg11.dtd">
<svg version="1.1" id="Layer_1" xmlns="http://www.w3.org/2000/svg" xmlns:xlink="http://www.w3.org/1999/xlink" x="0px" y="0px"
	 viewBox="0 0 960 560" enable-background="new 0 0 960 560" xml:space="preserve">
<g>
	<g>
		<path fill="#72BE44" d="M447.3,225.4c0,0,4.5,6.5,10.8,16.5c3.2,5,6.8,10.9,10.6,17.2c1.9,3.2,3.9,6.4,5.8,9.8
			c2,3.4,3.9,6.8,5.9,10.2c2,3.4,3.9,6.9,5.8,10.2c1.9,3.4,3.8,6.7,5.6,10c3.6,6.5,6.8,12.5,9.6,17.8c5.5,10.5,8.9,17.6,8.9,17.6
			s-4.5-6.5-10.8-16.5c-3.2-5-6.8-10.9-10.6-17.2c-1.9-3.2-3.9-6.4-5.8-9.8c-2-3.4-3.9-6.8-5.9-10.2c-2-3.4-3.9-6.8-5.8-10.2
			c-1.9-3.4-3.8-6.7-5.6-10c-3.6-6.5-6.8-12.6-9.6-17.8C450.6,232.5,447.3,225.4,447.3,225.4z"/>
		<path fill="#72BE44" d="M424.2,311.6c0,0,6.5-4.5,16.5-10.8c5-3.2,10.9-6.8,17.2-10.6c3.2-1.9,6.4-3.9,9.8-5.8
			c3.4-2,6.8-4,10.2-5.9c3.4-1.9,6.9-3.9,10.2-5.8c3.4-1.9,6.7-3.8,10-5.6c6.5-3.6,12.5-6.8,17.8-9.6c10.5-5.5,17.6-8.9,17.6-8.9
			s-6.5,4.5-16.5,10.8c-5,3.2-10.9,6.8-17.2,10.6c-3.2,1.9-6.4,3.9-9.8,5.8c-3.3,2-6.8,4-10.2,5.9c-3.4,2-6.9,3.9-10.2,5.8
			c-3.4,1.9-6.7,3.8-10,5.6c-6.5,3.6-12.6,6.8-17.8,9.6C431.3,308.2,424.2,311.6,424.2,311.6z"/>
		<path fill="#72BE44" d="M495.2,219c0,0-1.4,7.8-4,19.3c-1.3,5.8-2.9,12.5-4.7,19.7c-0.9,3.6-1.8,7.3-2.8,11.1c-1,3.8-2,7.6-3,11.4
			c-1,3.8-2.1,7.6-3.1,11.4c-1,3.7-2.1,7.4-3.1,11c-2,7.1-4,13.7-5.8,19.4c-3.5,11.3-6.2,18.8-6.2,18.8s1.4-7.8,4-19.3
			c1.3-5.8,2.9-12.5,4.7-19.7c0.9-3.6,1.8-7.3,2.8-11.1c1-3.8,2-7.6,3-11.4c1-3.8,2.1-7.6,3.1-11.4c1-3.7,2.1-7.4,3.1-11
			c2.1-7.1,4-13.7,5.8-19.4C492.5,226.5,495.2,219,495.2,219z"/>
		<path fill="#72BE44" d="M417.9,263.7c0,0,7.8,1.4,19.3,4c5.8,1.3,12.5,2.9,19.7,4.7c3.6,0.9,7.3,1.8,11.1,2.8c3.8,1,7.6,2,11.4,3
			c3.8,1,7.6,2.1,11.4,3.1c3.7,1,7.4,2.1,11,3.1c7.1,2,13.7,4,19.4,5.8c11.3,3.5,18.8,6.2,18.8,6.2s-7.8-1.4-19.3-4
			c-5.8-1.3-12.5-2.9-19.7-4.7c-3.6-0.9-7.3-1.8-11.1-2.8c-3.8-1-7.6-2-11.4-3c-3.8-1-7.6-2.1-11.4-3.1c-3.7-1-7.4-2.1-11-3.1
			c-7.1-2-13.7-4-19.4-5.8C425.3,266.3,417.9,263.7,417.9,263.7z"/>
	</g>
	<g>
		<path fill="#FF3366" d="M449.7,225.4c0,0,4.5,6.5,10.8,16.5c3.2,5,6.8,10.9,10.6,17.2c1.9,3.2,3.9,6.4,5.8,9.8
			c2,3.4,3.9,6.8,5.9,10.2c2,3.4,3.9,6.9,5.8,10.2c1.9,3.4,3.8,6.7,5.6,10c3.6,6.5,6.8,12.5,9.6,17.8c5.5,10.5,8.9,17.6,8.9,17.6
			s-4.5-6.5-10.8-16.5c-3.2-5-6.8-10.9-10.6-17.2c-1.9-3.2-3.9-6.4-5.8-9.8c-2-3.4-3.9-6.8-5.9-10.2c-2-3.4-3.9-6.8-5.8-10.2
			c-1.9-3.4-3.8-6.7-5.6-10c-3.6-6.5-6.8-12.6-9.6-17.8C453.1,232.5,449.7,225.4,449.7,225.4z"/>
		<path fill="#FF3366" d="M426.6,311.6c0,0,6.5-4.5,16.5-10.8c5-3.2,10.9-6.8,17.2-10.6c3.2-1.9,6.4-3.9,9.8-5.8
			c3.4-2,6.8-4,10.2-5.9c3.4-1.9,6.9-3.9,10.2-5.8c3.4-1.9,6.7-3.8,10-5.6c6.5-3.6,12.5-6.8,17.8-9.6c10.5-5.5,17.6-8.9,17.6-8.9
			s-6.5,4.5-16.5,10.8c-5,3.2-10.9,6.8-17.2,10.6c-3.2,1.9-6.4,3.9-9.8,5.8c-3.3,2-6.8,4-10.2,5.9c-3.4,2-6.9,3.9-10.2,5.8
			c-3.4,1.9-6.7,3.8-10,5.6c-6.5,3.6-12.6,6.8-17.8,9.6C433.8,308.2,426.6,311.6,426.6,311.6z"/>
		<path fill="#FF3366" d="M497.6,219c0,0-1.4,7.8-4,19.3c-1.3,5.8-2.9,12.5-4.7,19.7c-0.9,3.6-1.8,7.3-2.8,11.1c-1,3.8-2,7.6-3,11.4
			c-1,3.8-2.1,7.6-3.1,11.4c-1,3.7-2.1,7.4-3.1,11c-2,7.1-4,13.7-5.8,19.4c-3.5,11.3-6.2,18.8-6.2,18.8s1.4-7.8,4-19.3
			c1.3-5.8,2.9-12.5,4.7-19.7c0.9-3.6,1.8-7.3,2.8-11.1c1-3.8,2-7.6,3-11.4c1-3.8,2.1-7.6,3.1-11.4c1-3.7,2.1-7.4,3.1-11
			c2.1-7.1,4-13.7,5.8-19.4C494.9,226.5,497.6,219,497.6,219z"/>
		<path fill="#FF3366" d="M420.3,263.7c0,0,7.8,1.4,19.3,4c5.8,1.3,12.5,2.9,19.7,4.7c3.6,0.9,7.3,1.8,11.1,2.8c3.8,1,7.6,2,11.4,3
			c3.8,1,7.6,2.1,11.4,3.1c3.8,1,7.4,2.1,11,3.1c7.1,2,13.7,4,19.4,5.8c11.3,3.5,18.8,6.2,18.8,6.2s-7.8-1.4-19.3-4
			c-5.8-1.3-12.5-2.9-19.7-4.7c-3.6-0.9-7.3-1.8-11.1-2.8c-3.8-1-7.6-2-11.4-3c-3.8-1-7.6-2.1-11.4-3.1c-3.7-1-7.4-2.1-11-3.1
			c-7.1-2-13.7-4-19.4-5.8C427.7,266.3,420.3,263.7,420.3,263.7z"/>
	</g>
</g>
</svg>
