<?xml version="1.0" encoding="utf-8"?>
<!-- Generator: Adobe Illustrator 18.0.0, SVG Export Plug-In . SVG Version: 6.00 Build 0)  -->
<!DOCTYPE svg PUBLIC "-//W3C//DTD SVG 1.1//EN" "http://www.w3.org/Graphics/SVG/1.1/DTD/svg11.dtd">
<svg version="1.1" id="Layer_1" xmlns="http://www.w3.org/2000/svg" xmlns:xlink="http://www.w3.org/1999/xlink" x="0px" y="0px"
	 viewBox="570 210 140 140" enable-background="new 570 210 140 140" xml:space="preserve">
<path fill="#CCCCCC" d="M640,210c38.7,0,70,31.3,70,70s-31.3,70-70,70s-70-31.3-70-70S601.3,210,640,210z M658.5,238.4
	c-1,0.1-2.1,0.2-3.1,0.5c-7.5,1.7-12.7,6.1-15.5,13.3c-1.4,3.7-1.6,7.5-0.8,11.5c0,0.1,0,0.3,0.1,0.6c-17.6-1.2-32-8.6-43.3-21.9
	c-2.7,4.8-3.5,9.9-2.2,15.2c1.2,5.3,4.2,9.5,8.7,12.7c-3.2-0.1-6.4-0.9-9.3-2.5c-0.5,7.5,4.9,18.2,16.6,20.9c-3,0.8-6.1,0.9-9.3,0.3
	c0.9,2.8,2.3,5.3,4.3,7.4c2,2.2,4.3,3.9,7,5.1c2.7,1.3,5.4,1.9,8.3,2c-9.2,7-19.4,9.9-30.8,8.7c0.1,0.1,0.1,0.1,0.2,0.2
	c6.4,3.9,13.2,6.7,20.6,8.1c4.1,0.8,8.2,1.2,12.4,1c11.2-0.2,21.7-3,31.2-9.2c7.6-4.9,13.7-11.4,18.3-19.1
	c3.8-6.4,6.5-13.3,7.9-20.6c0.8-4.3,1.2-8.7,1-13.1c0-0.3,0.1-0.5,0.3-0.7c3.7-2.8,7-6,9.6-9.9c0.1-0.1,0.2-0.3,0.3-0.5
	c0,0,0-0.1,0.1-0.2c-3.8,1.6-7.6,2.8-11.8,3.1c4.3-2.8,7.3-6.5,9-11.5c-0.8,0.5-1.6,0.9-2.3,1.3c-3.4,1.7-6.8,2.9-10.5,3.7
	c-0.3,0.1-0.5,0-0.7-0.2c-3-3.1-6.7-5.1-11-5.9c-1-0.2-2.1-0.2-3-0.5"/>
</svg>
