<?xml version="1.0" encoding="utf-8"?>
<!-- Generator: Adobe Illustrator 18.0.0, SVG Export Plug-In . SVG Version: 6.00 Build 0)  -->
<!DOCTYPE svg PUBLIC "-//W3C//DTD SVG 1.1//EN" "http://www.w3.org/Graphics/SVG/1.1/DTD/svg11.dtd">
<svg version="1.1" id="Layer_1" xmlns="http://www.w3.org/2000/svg" xmlns:xlink="http://www.w3.org/1999/xlink" x="0px" y="0px"
	 viewBox="0 0 377.1 175.8" enable-background="new 0 0 377.1 175.8" xml:space="preserve">
<g>
	<g>
		<path fill="#A3E084" stroke="#A3E084" stroke-width="0.767" stroke-miterlimit="10" d="M319.7,112.4c2.7,2.5,5.4,5,8.1,7.4
			c1.1-0.7,2.2-1.3,3.3-2c3.1-2.2,2.8-5.1-0.7-6.7c-1.2-0.6-2.3-1.5-3.4-2.2c0.2-0.2,0.3-0.3,0.5-0.5c-1.4-0.3-2.9-0.5-4.3-0.8
			c0-0.3,0.1-0.5,0.1-0.8c1.7-0.6,3.4-1.1,4.5-1.5c1.4-2.6-5.1-3.9-0.5-6.5c1.8,1.1,3.6,2.2,5.4,3.2c2.5-4.5,1.8-6.2-4-8.9
			c0.6-0.7,1.2-1.4,1.6-2c-4.6-2.5-11.9-0.9-13.3-7.7c-0.1-0.6-1.5-0.9-2.2-1.4c-2.2-1.7-5.5-2.7-5.3-7.1c4,4.5,11.2,5.1,11.7,10.8
			c3.5,0.8,6.6,1.5,9.6,2.2c-0.1-0.8-0.5-0.9-0.5-1c0.1-2.9-0.7-6.2,0.6-8.6c2.2-4.2,2.4-4.3-2.3-6.4c-3.4-1.5-6.2-3.9-9.3-5.8
			c-2.4-1.4-3.5-4.7-7.9-3.5c-2.1,0.6-5.2-0.5-7.5-1.4c-4.6-1.9-6.6-5.5-6.7-10.1c-2.7,1-5.2,1.9-7.6,2.8c-2.4,0.9-4.2,0-4.8-1.9
			c-0.5-2-0.7-4.2-0.2-6.2c0.5-2.4,1.9-4.6,2.9-6.9c0.2,0.2,0.5,0.4,0.7,0.7c1.3-0.9,2.5-1.7,3.8-2.6c0.4-0.3,0.6-0.8,1-1.1
			c4-3.3,3.9-7.8-0.5-10.7c-2-1.3-4.3-2.4-6.4-3.6c-1.6-1-3.1-2.6-4.8-2.9c-7.3-1.1-8.5-2.7-5.2-8.4c-1.6-1-3.1-2.3-4.8-3.1
			c-4.5-2.1-6.2-1.4-8.1,2.9c-0.8,1.7-1.6,3.5-2.5,5.5c-7.7-5.3-14.9-10.3-22-15.1c-1.2,3.8-2.9,7.3-3.3,10.9
			c-0.4,3.2-1.7,5.4-4.4,7.3c-1,0.7-1.3,2.2-2,3.2c-0.5,0.8-1.1,1.8-1.9,2.2c-4.5,2.3-9.1,4.4-10.7,9.2c-0.1,0.4-0.6,0.7-1,1.2
			c-1.8-1.2-3.4-2.3-5.6-3.8c-3,5.8-5.7,11.2-8.8,16.5c-1.1,1.9-3.2,4.7-4.8,4.7c-3-0.1-6.7-0.5-8.6-3.7c-1.1-1.8-3.5-3.1-6-5.3
			c-0.8,3.2-0.9,5.2-1.9,7c-1.9,3.7-4.3,7.3-6.5,11c-1.3,2.2-2.8,4.4-4.2,6.6c-1.7,2.7-3.1,5.5-5.1,7.9c-2.7,3.3-6.2,6.1-8.8,9.4
			c-1.6,2-3.5,4.8,0.8,6.4c-0.8,2.2-5.5,2.3-3.2,5.6c0.1,0.1-0.5,0.6-0.8,0.7c-2.5,1.3-5,2.6-7.9,4.1c-0.8-3.8-2.7-2.7-4.9-1.5
			c-3.5,1.8-6.7,5.7-11.2,1.2c-0.5,0.6-1.1,1.1-1,1.4c1.3,4.6-2.3,4.6-5.7,5c-2.2,0.2-4.6,0.3-6.3,1.2c-3.7,2.2-6,0.8-8.3-1.5
			c-0.5-0.5-1.1-0.9-1.5-1.3c-2.7,1.6-5.1,3.4-7.8,4.6c-2,0.8-4.8,1.6-6.5,1c-3.3-1.2-6.4-3.2-8.8-5.5c-2.4-2.3-3.8-5.3-5.7-8.1
			c0.6-0.7,1.2-1.4,1.8-2.1c-4.4,2.2-8.1,4.9-11.8,7.6c-3.4,2.5-6.7,5-11.3,6.1c-3.7,0.9-7.9,2.5-10.2,5c-2.4,2.6-3.5,6-7.7,7.2
			c-0.2,0.1-0.3,0.7-0.3,1c0.3,3.2-2.1,4.3-5,4.6c-3.7,0.4-6.9,1-7.7,4.9c-0.1,0.4-1.2,0.8-2,0.9c-5.4,1.1-10.8,2.2-16.1,3.3
			c-1.7,0.4-3.3,1.2-5,1.8c0.9,0.8,1.5,0.9,2.1,0.9c19.1,0.5,38.1,1.1,57.2,1.5c9,0.2,18-0.2,27-0.1c3,0,6,1.4,9.1,1.5
			c25.2,0.7,50.4,1.4,75.5,1.8c14.2,0.3,28.3,0.4,42.5,0.1c36.9-0.9,73.8-2.1,110.8-3.3c5.5-0.2,11.1-0.5,16.7-0.8
			c0.1-1.8,0.2-3.2,0.3-5.7c0.1,2.5,0.2,4,0.3,5.9c3.9-0.3,7.3-0.6,11.1-0.9c-2.6-6.4-4.9-12.1-7-17.3c-2.8,0-5,0.1-7.2,0
			c-1.9-0.1-4-0.8-5.8-0.4c-2.8,0.7-5.4,2-6.9,2.7c-2.8-2.6-4.5-5.5-7-6.2c-3.4-0.9-3.7-2.6-3.9-4.9c-0.1-0.8-0.3-1.5-0.5-2.4
			c-2.9,1.7-3.6,1.4-5.1-1.7c1.2-0.3,2.4-0.5,3.6-0.8c3.1-0.9,5.6,0.6,6.3,3.8L319.7,112.4z M356.6,72.4c1.9,1.8,1.6,3.9-1.1,5.4
			c-0.8,0.5-1.9,0.9-2.3,1.5c-4.5,7.1-6.4,15-7.9,22.9c-0.5,2.6,1.2,5.7,2.3,8.4c0.2,0.5,3.2,0.9,3.6,0.4c1.5-1.5,2.4-3.5,3.4-5.3
			c0.7-1.2,1.1-2.5,1.6-3.7c2-4.4,4.1-8.7,5.9-13.1c1.6-4.1,2.5-8.4,4.4-12.4c0.7-1.6,3.4-2.4,5.2-3.6c0.3,0.3,0.6,0.5,1,0.8
			c1.1-2.3,2.3-4.7,3.7-7.6C369.1,67.7,361.3,66.3,356.6,72.4z"/>
		<path fill="#A3E084" stroke="#A3E084" stroke-width="0.767" stroke-miterlimit="10" d="M319.9,112.3c-0.7-3.2-3.2-4.7-6.3-3.8
			c-1.2,0.4-2.4,0.6-3.6,0.8c1.5,3.1,2.2,3.4,5.1,1.7c0.2,0.8,0.4,1.6,0.5,2.4c0.2,2.3,0.5,4,3.9,4.9c2.5,0.7,4.1,3.6,7,6.2
			c1.5-0.6,4.1-2,6.9-2.7c1.8-0.4,3.8,0.3,5.8,0.4c2.2,0.1,4.3,0,7.2,0c2.1,5.2,4.4,10.9,7,17.3c-3.8,0.3-7.2,0.6-11.1,0.9
			c-0.1-1.9-0.2-3.3-0.3-5.9c-0.1,2.4-0.2,3.8-0.3,5.7c-5.6,0.3-11.1,0.6-16.7,0.8c-36.9,1.1-73.8,2.4-110.8,3.3
			c-14.1,0.4-28.3,0.2-42.5-0.1c-25.2-0.5-50.4-1.1-75.5-1.8c-3-0.1-6-1.4-9.1-1.5c-9-0.1-18,0.3-27,0.1c-19.1-0.4-38.1-1-57.2-1.5
			c-0.6,0-1.3-0.1-2.1-0.9c1.7-0.6,3.3-1.4,5-1.8c5.3-1.2,10.7-2.2,16.1-3.3c0.7-0.2,1.9-0.5,2-0.9c0.8-3.9,4-4.5,7.7-4.9
			c2.9-0.3,5.2-1.5,5-4.6c0-0.3,0.1-0.9,0.3-1c4.1-1.2,5.3-4.6,7.7-7.2c2.3-2.5,6.5-4.1,10.2-5c4.6-1.1,7.9-3.6,11.3-6.1
			c3.7-2.7,7.4-5.4,11.8-7.6c-0.6,0.7-1.3,1.4-1.8,2.1c1.9,2.7,3.3,5.8,5.7,8.1c2.4,2.3,5.6,4.3,8.8,5.5c1.7,0.7,4.5-0.2,6.5-1
			c2.7-1.1,5.1-2.9,7.8-4.6c0.4,0.3,1,0.7,1.5,1.3c2.4,2.3,4.7,3.7,8.3,1.5c1.7-1,4.2-1,6.3-1.2c3.5-0.4,7-0.4,5.7-5
			c-0.1-0.3,0.5-0.8,1-1.4c4.5,4.5,7.7,0.6,11.2-1.2c2.3-1.2,4.1-2.3,4.9,1.5c2.8-1.5,5.4-2.8,7.9-4.1c0.3-0.2,0.8-0.7,0.8-0.7
			c-2.3-3.3,2.4-3.4,3.2-5.6c-4.3-1.6-2.4-4.4-0.8-6.4c2.6-3.3,6.1-6.1,8.8-9.4c2-2.4,3.4-5.3,5.1-7.9c1.4-2.2,2.8-4.3,4.2-6.6
			c2.2-3.6,4.5-7.2,6.5-11c0.9-1.7,1-3.8,1.9-7c2.6,2.2,4.9,3.5,6,5.3c2,3.3,5.6,3.7,8.6,3.7c1.6,0,3.7-2.8,4.8-4.7
			c3.1-5.3,5.8-10.7,8.8-16.5c2.2,1.5,3.8,2.6,5.6,3.8c0.4-0.4,0.9-0.7,1-1.2c1.7-4.8,6.3-6.9,10.7-9.2c0.9-0.4,1.4-1.4,1.9-2.2
			c0.7-1.1,1-2.5,2-3.2c2.7-2,4-4.2,4.4-7.3c0.4-3.6,2.1-7.1,3.3-10.9c7.1,4.8,14.3,9.8,22,15.1c0.9-2.1,1.7-3.8,2.5-5.5
			c1.9-4.3,3.7-5,8.1-2.9c1.7,0.8,3.2,2.1,4.8,3.1c-3.3,5.7-2.1,7.3,5.2,8.4c1.7,0.3,3.2,1.9,4.8,2.9c2.1,1.2,4.4,2.3,6.4,3.6
			c4.4,2.9,4.6,7.4,0.5,10.7c-0.4,0.3-0.6,0.8-1,1.1c-1.2,0.9-2.5,1.8-3.8,2.6c-0.2-0.2-0.5-0.4-0.7-0.7c-1,2.3-2.3,4.5-2.9,6.9
			c-0.5,2-0.3,4.2,0.2,6.2c0.5,1.9,2.3,2.8,4.8,1.9c2.4-0.9,4.8-1.8,7.6-2.8c0.1,4.5,2.1,8.2,6.7,10.1c2.3,1,5.4,2,7.5,1.4
			c4.4-1.2,5.5,2.1,7.9,3.5c3.2,1.8,6,4.3,9.3,5.8c4.7,2.1,4.5,2.2,2.3,6.4c-1.3,2.4-0.5,5.7-0.6,8.6c0,0.1,0.4,0.2,0.5,1
			c-3.1-0.7-6.2-1.4-9.6-2.2c-0.5-5.6-7.7-6.2-11.7-10.8c-0.1,4.3,3.2,5.3,5.3,7.1c0.7,0.5,2.1,0.8,2.2,1.4
			c1.4,6.7,8.7,5.2,13.3,7.7c-0.4,0.5-1,1.2-1.6,2c5.7,2.8,6.4,4.4,4,8.9c-1.8-1.1-3.5-2.1-5.4-3.2c-4.6,2.6,1.9,3.9,0.5,6.5
			c-1.1,0.4-2.8,0.9-4.5,1.5c0,0.3-0.1,0.5-0.1,0.8c1.4,0.3,2.9,0.5,4.3,0.8c-0.2,0.2-0.3,0.3-0.5,0.5c1.1,0.7,2.1,1.6,3.4,2.2
			c3.5,1.6,3.8,4.5,0.7,6.7c-1.1,0.7-2.2,1.4-3.3,2c-2.7-2.5-5.4-5-8.1-7.4c0,0,0.3,0.1,0.3,0.1L319.9,112.3z"/>
		<path fill="#A3E084" stroke="#A3E084" stroke-width="0.767" stroke-miterlimit="10" d="M356.6,72.4c4.7-6.1,12.5-4.7,19.8-6.5
			c-1.4,2.9-2.6,5.3-3.7,7.6c-0.3-0.3-0.6-0.5-1-0.8c-1.8,1.2-4.4,2-5.2,3.6c-1.9,4-2.8,8.3-4.4,12.4c-1.8,4.4-3.9,8.8-5.9,13.1
			c-0.6,1.2-1,2.5-1.6,3.7c-1,1.8-2,3.8-3.4,5.3c-0.5,0.5-3.4,0.1-3.6-0.4c-1.1-2.7-2.8-5.7-2.3-8.4c1.5-7.9,3.3-15.8,7.9-22.9
			c0.4-0.7,1.5-1.1,2.3-1.5C358.1,76.3,358.5,74.2,356.6,72.4z"/>
		<polygon fill="#A3E084" stroke="#A3E084" stroke-width="0.767" stroke-miterlimit="10" points="319.9,112.3 319.9,112.5 
			319.7,112.4 		"/>
	</g>
	<polygon fill="#EFFF55" stroke="#E9FF6A" stroke-width="0.8" stroke-miterlimit="10" points="293.8,64.5 281.8,63.3 273.9,72.5 
		271.4,60.7 260.2,56.1 270.6,50 271.5,37.9 280.6,45.9 292.4,43.1 287.5,54.2 	"/>
	<g>
		<path fill="#FF5B84" d="M71.7,164l0.6-0.7h0.9l1.1-5.6c-1.2,0-2.2,0.3-2.9,1c-0.7,0.6-1.1,1.5-1.1,2.5l0,0.2l-1.7,0.8
			c0.2-1.8,0.9-3.1,2.1-4s3.1-1.3,5.6-1.3h5.1l-0.8,2.5H80c0.1-0.2,0.1-0.5,0.1-0.7c0-0.8-1.2-1.1-3.6-1.1h-0.4l-1.1,5.6h3.8
			l-0.9,0.9c-0.9-0.1-1.8-0.2-2.7-0.2h-0.4l-0.5,2.6c-0.4,2.2-1.3,3.9-2.5,5.2s-2.7,1.9-4.3,1.9c-0.9,0-1.7-0.3-2.4-1l1.3-1.3
			c0.5,1,1.2,1.4,2.2,1.4c0.9,0,1.7-0.4,2.2-1.3s1-2.3,1.4-4.5l0.6-3.1H71.7z"/>
		<path fill="#FF5B84" d="M81.5,170.1l0.7-2.7l0.9-4.3c0.1-0.4,0.1-0.8,0.1-1.1c0-0.5-0.2-0.8-0.5-0.8c-0.6,0-1.5,0.7-2.7,2l0.2-0.8
			c1.4-1.5,2.5-2.2,3.5-2.2c0.8,0,1.3,0.5,1.3,1.4c0,0.4-0.1,0.9-0.2,1.4l-0.4,2.1h0.1c0.7-1.5,1.5-2.7,2.5-3.6s1.8-1.4,2.6-1.4
			c0.4,0,0.8,0.1,1.1,0.3l-1.2,1.6c-0.3-0.2-0.6-0.3-0.9-0.3c-1.1,0-2.7,1.7-4.6,5l-0.6,3.2L81.5,170.1z"/>
		<path fill="#FF5B84" d="M98.7,167.6l-0.1,0.7c-1.9,1.3-3.5,2-4.8,2c-0.8,0-1.5-0.3-2-0.9c-0.5-0.6-0.8-1.3-0.8-2.3
			c0-1.7,0.6-3.2,1.9-4.7c1.3-1.5,2.6-2.2,4.1-2.2c0.5,0,0.9,0.2,1.3,0.5c0.3,0.4,0.5,0.8,0.5,1.4c0,1.1-0.6,2.1-1.7,2.9
			s-2.5,1.2-4.1,1.2l0,0.4c0,1.7,0.6,2.6,1.9,2.6C95.8,169.2,97.1,168.7,98.7,167.6z M92.8,165.7c1.3-0.1,2.3-0.4,3.1-1
			c0.7-0.6,1.1-1.3,1.1-2.2c0-0.9-0.3-1.3-1-1.3c-0.7,0-1.4,0.5-2,1.4C93.4,163.5,93,164.5,92.8,165.7z"/>
		<path fill="#FF5B84" d="M107.6,165.2h-0.2c-0.7,1.5-1.5,2.7-2.4,3.6s-1.8,1.4-2.6,1.4c-1.2,0-1.9-0.8-1.9-2.3
			c0-1.1,0.3-2.2,0.9-3.3s1.4-2.1,2.4-2.9c0.6-0.5,1.3-0.9,1.9-1.1c0.6-0.2,1.6-0.3,2.8-0.3c0.3-1.2,0.7-2,1.1-2.7s0.9-1.2,1.6-1.7
			c1.2-0.9,2.4-1.4,3.8-1.4c0.6,0,1.1,0.1,1.6,0.2l-1.2,1.2c-0.7-0.3-1.3-0.5-1.8-0.5c-0.9,0-1.6,0.3-2.1,1s-0.9,2-1.3,3.8l-1.4,7
			c-0.1,0.7-0.2,1.1-0.2,1.3c0,0.4,0.2,0.6,0.5,0.6c0.6,0,1.5-0.6,2.6-1.9l-0.2,0.8c-1.3,1.4-2.4,2.1-3.4,2.1
			c-0.8,0-1.3-0.4-1.3-1.3c0-0.3,0.1-0.8,0.2-1.5L107.6,165.2z M108.3,161.7c-0.7-0.3-1.5-0.5-2.2-0.5c-1.1,0-1.9,0.7-2.5,2
			c-0.8,1.6-1.1,3-1.1,4.3c0,0.9,0.3,1.4,0.8,1.4c0.5,0,1.2-0.5,2.2-1.6s1.8-2.3,2.5-3.6L108.3,161.7z"/>
		<path fill="#FF5B84" d="M120.4,167.6l-0.1,0.7c-1.9,1.3-3.5,2-4.8,2c-0.8,0-1.5-0.3-2-0.9c-0.5-0.6-0.8-1.3-0.8-2.3
			c0-1.7,0.6-3.2,1.9-4.7c1.3-1.5,2.6-2.2,4.1-2.2c0.5,0,0.9,0.2,1.3,0.5c0.3,0.4,0.5,0.8,0.5,1.4c0,1.1-0.6,2.1-1.7,2.9
			s-2.5,1.2-4.1,1.2l0,0.4c0,1.7,0.6,2.6,1.9,2.6C117.6,169.2,118.9,168.7,120.4,167.6z M114.6,165.7c1.3-0.1,2.3-0.4,3.1-1
			c0.7-0.6,1.1-1.3,1.1-2.2c0-0.9-0.3-1.3-1-1.3c-0.7,0-1.4,0.5-2,1.4C115.1,163.5,114.7,164.5,114.6,165.7z"/>
		<path fill="#FF5B84" d="M123.2,170.1l0.7-2.7l0.9-4.3c0.1-0.4,0.1-0.8,0.1-1.1c0-0.5-0.2-0.8-0.5-0.8c-0.6,0-1.5,0.7-2.7,2
			l0.2-0.8c1.4-1.5,2.5-2.2,3.5-2.2c0.8,0,1.3,0.5,1.3,1.4c0,0.4-0.1,0.9-0.2,1.4l-0.4,2.1h0.1c0.7-1.5,1.5-2.7,2.5-3.6
			s1.8-1.4,2.6-1.4c0.4,0,0.8,0.1,1.1,0.3l-1.2,1.6c-0.3-0.2-0.6-0.3-0.9-0.3c-1.1,0-2.7,1.7-4.6,5l-0.6,3.2L123.2,170.1z"/>
		<path fill="#FF5B84" d="M138.6,167.3l-0.2,0.8c-1.3,1.4-2.4,2.1-3.5,2.1c-0.8,0-1.3-0.4-1.3-1.3c0-0.3,0.1-0.8,0.2-1.5l0.6-3.1
			c0.2-0.9,0.2-1.4,0.2-1.7c0-0.5-0.2-0.7-0.6-0.7c-0.3,0-0.7,0.1-1.4,0.3l0.1-0.5l4.3-1.4l-0.7,2.8l-0.9,4.3
			c-0.1,0.7-0.2,1.1-0.2,1.3c0,0.4,0.2,0.6,0.5,0.6C136.6,169.3,137.5,168.6,138.6,167.3z M135.4,158.7l0.6-1.2l2.5-1.6l-0.8,1.6
			L135.4,158.7z"/>
		<path fill="#FF5B84" d="M147.1,167.6l-0.1,0.7c-1.9,1.3-3.5,2-4.7,2c-0.8,0-1.5-0.3-2-0.9s-0.8-1.3-0.8-2.3c0-1.7,0.6-3.3,1.9-4.7
			s2.7-2.1,4.3-2.1c0.7,0,1.4,0.1,2,0.4l-0.6,2.3h-0.5l0-0.1c0.1-0.3,0.1-0.5,0.1-0.6c0-0.8-0.5-1.2-1.6-1.2c-1,0-1.9,0.6-2.6,1.7
			s-1,2.5-1,4.1c0,1.6,0.6,2.4,1.8,2.4C144.2,169.2,145.6,168.6,147.1,167.6z"/>
		<path fill="#FF5B84" d="M149,170.1l0.7-2.7l1.2-6.1c0.4-2.1,1.2-3.8,2.4-5s2.6-1.8,4.3-1.8c0.6,0,1.1,0.1,1.6,0.2l-1.2,1.3
			c-0.7-0.3-1.3-0.5-1.8-0.5c-0.8,0-1.4,0.3-1.9,0.8c-0.3,0.3-0.5,0.7-0.7,1.2s-0.4,1.4-0.8,2.9l-0.9,3.8h0.1
			c0.6-1.2,1.3-2.2,2.2-2.9c0.9-0.7,1.8-1.1,2.7-1.1c1,0,1.5,0.5,1.5,1.4c0,1-0.4,1.8-1.2,2.5s-2,1.1-3.5,1.4
			c1.7,2.3,2.9,3.5,3.7,3.5c0.5,0,1.1-0.4,1.9-1.1l-0.1,0.6c-1.2,1.1-2.1,1.6-2.8,1.6c-0.6,0-1.1-0.3-1.7-0.8
			c-0.6-0.6-1.6-1.8-3-3.7l-0.9,4.3L149,170.1z M151.9,165.2l0,0.1h0.3c1.2,0,2.3-0.3,3.2-1s1.3-1.5,1.3-2.4c0-0.6-0.2-0.9-0.7-0.9
			C155,161.1,153.6,162.5,151.9,165.2z"/>
		<path fill="#FF5B84" d="M159.4,169.7l1.2-1.2c0.8,0.6,1.5,0.8,2.3,0.8c0.5,0,0.9-0.1,1.2-0.4c0.3-0.3,0.5-0.6,0.5-0.9
			c0-0.4-0.3-1-1-1.7l-0.8-0.9c-0.8-0.9-1.2-1.6-1.2-2.1c0-0.8,0.4-1.5,1.1-2.1s1.6-0.9,2.6-0.9c0.5,0,1.1,0.1,1.8,0.3l-0.4,1.9
			h-0.6l0-0.1c0-0.1,0-0.1,0-0.2c0-0.8-0.5-1.2-1.5-1.2c-1.1,0-1.7,0.5-1.7,1.4c0,0.5,0.3,1.1,1,1.8l0.7,0.8
			c0.8,0.9,1.2,1.6,1.2,2.2c0,0.8-0.4,1.5-1.2,2.1s-1.8,0.9-2.8,0.9C161.1,170.2,160.3,170,159.4,169.7z"/>
		<path fill="#FF5B84" d="M168.6,170l0.6-2.6l1.2-6.1c0.4-2.1,1.2-3.8,2.4-5s2.6-1.8,4.3-1.8c0.6,0,1.1,0.1,1.6,0.2l-1.2,1.3
			c-0.7-0.3-1.3-0.5-1.8-0.5c-0.9,0-1.6,0.3-2.1,1c-0.5,0.7-0.9,2-1.3,3.9l-0.9,4.8h0.1c0.7-1.5,1.5-2.7,2.4-3.6
			c0.9-0.9,1.8-1.4,2.6-1.4c1.2,0,1.9,0.8,1.9,2.3c0,1.7-0.7,3.4-2,5c-1.4,1.7-3.1,2.5-5.1,2.5c-0.3,0-0.7,0-1.1,0L168.6,170z
			 M170.7,168.8c0.7,0.3,1.5,0.5,2.2,0.5c1.1,0,1.9-0.7,2.5-2c0.8-1.6,1.1-3,1.1-4.3c0-0.9-0.3-1.4-0.8-1.4c-0.5,0-1.2,0.5-2.2,1.6
			c-0.9,1.1-1.8,2.3-2.5,3.6L170.7,168.8z"/>
		<path fill="#FF5B84" d="M187.3,165.2h-0.2c-1.7,3.3-3.3,5-4.9,5c-0.9,0-1.4-0.6-1.4-1.7c0-0.3,0-0.7,0.1-1.2l0.9-4.3
			c0.1-0.7,0.2-1.1,0.2-1.3c0-0.4-0.2-0.5-0.5-0.5c-0.6,0-1.4,0.6-2.6,1.9l0.2-0.8c1.3-1.4,2.4-2.1,3.5-2.1c0.9,0,1.3,0.4,1.3,1.3
			c0,0.3-0.1,0.8-0.2,1.5l-0.9,4.3c-0.1,0.4-0.1,0.7-0.1,0.8c0,0.5,0.2,0.7,0.5,0.7c0.4,0,1.1-0.5,2-1.6c0.9-1.1,1.7-2.3,2.5-3.7
			l0.6-3.2l1.9-0.1l-0.7,2.7l-0.9,4.3c-0.1,0.7-0.2,1.1-0.2,1.3c0,0.4,0.2,0.6,0.5,0.6c0.6,0,1.5-0.6,2.6-1.9l-0.2,0.8
			c-1.3,1.4-2.4,2.1-3.5,2.1c-0.9,0-1.3-0.4-1.3-1.3c0-0.3,0.1-0.8,0.2-1.5L187.3,165.2z"/>
		<path fill="#FF5B84" d="M193,170.1l0.7-2.7l0.9-4.3c0.1-0.4,0.1-0.8,0.1-1.1c0-0.5-0.2-0.8-0.5-0.8c-0.6,0-1.5,0.7-2.7,2l0.2-0.8
			c1.4-1.5,2.5-2.2,3.5-2.2c0.8,0,1.3,0.5,1.3,1.4c0,0.4-0.1,0.9-0.2,1.4l-0.4,2.1h0.1c0.7-1.5,1.5-2.7,2.5-3.6s1.8-1.4,2.6-1.4
			c0.4,0,0.8,0.1,1.1,0.3l-1.2,1.6c-0.3-0.2-0.6-0.3-0.9-0.3c-1.1,0-2.7,1.7-4.6,5l-0.6,3.2L193,170.1z"/>
		<path fill="#FF5B84" d="M203.4,169.9c-0.7-0.4-1.1-1.1-1.1-2.1c0-1.7,0.7-3.4,2.1-5c1.4-1.6,3.1-2.4,5.1-2.4c0.4,0,1.2,0,2.5,0.1
			l-0.6,2.6l-0.4,2c-0.2,1.1-0.4,1.9-0.4,2.4c-0.3,2.1-0.6,3.5-1,4.3s-0.9,1.6-1.7,2.4c-1.2,1.1-2.6,1.7-4.2,1.7
			c-1,0-1.9-0.2-2.5-0.6c-0.6-0.4-1-0.9-1-1.6C200.2,172.4,201.3,171.1,203.4,169.9z M209.2,165.2h-0.1c-0.6,1.4-1.4,2.5-2.2,3.3
			s-1.8,1.3-2.7,1.5c-1.5,1.1-2.3,2-2.3,3c0,0.6,0.3,1.1,0.9,1.5c0.6,0.4,1.3,0.6,2.1,0.6c1,0,1.9-0.4,2.5-1.2
			c0.6-0.8,1-2.1,1.3-3.9L209.2,165.2z M209.9,161.7c-0.7-0.3-1.4-0.5-2.1-0.5c-0.8,0-1.4,0.3-2,1c-0.4,0.6-0.8,1.4-1.2,2.4
			s-0.5,2-0.5,2.8c0,0.8,0.3,1.2,0.8,1.2c1.2,0,2.7-1.7,4.6-5L209.9,161.7z"/>
		<path fill="#FF5B84" d="M213,168.4l1.7-1.3l1.3,1.7c-0.1,1.2-0.4,2.1-1.1,2.7c-0.7,0.6-1.6,1-2.8,1l0.5-0.5
			c0.9-0.1,1.5-0.7,1.6-1.8L213,168.4z"/>
		<path fill="#FF5B84" d="M231.8,170.2l0.1-2.3c0-4.5-0.4-7.7-1.2-9.5c-0.9-1.9-1.9-2.8-3.2-2.8c-1.1,0-2.2,0.7-3,2.2l-0.4-0.2
			c1.3-2,2.7-3,4.3-3c3.7,0,5.5,4.2,5.5,12.7l2.8-4.4c1.7-2.7,2.6-4.3,2.6-5c0-0.2-0.3-0.3-0.8-0.3h-0.7l0.1-0.5h3.8l-0.1,0.5h-0.7
			l-7.9,12.5L231.8,170.2z"/>
		<path fill="#FF5B84" d="M246.7,167.3l-0.2,0.8c-1.3,1.4-2.4,2.1-3.5,2.1c-0.8,0-1.3-0.4-1.3-1.3c0-0.3,0.1-0.8,0.2-1.5l0.6-3.1
			c0.2-0.9,0.2-1.4,0.2-1.7c0-0.5-0.2-0.7-0.6-0.7c-0.3,0-0.7,0.1-1.4,0.3l0.1-0.5l4.3-1.4l-0.7,2.8l-0.9,4.3
			c-0.1,0.7-0.2,1.1-0.2,1.3c0,0.4,0.2,0.6,0.5,0.6C244.6,169.3,245.5,168.6,246.7,167.3z M243.4,158.7l0.6-1.2l2.5-1.6l-0.8,1.6
			L243.4,158.7z"/>
		<path fill="#FF5B84" d="M248.1,170.1l0.7-2.7l0.9-4.3c0.1-0.4,0.1-0.8,0.1-1.1c0-0.5-0.2-0.8-0.5-0.8c-0.6,0-1.5,0.7-2.7,2
			l0.2-0.8c1.4-1.5,2.5-2.2,3.5-2.2c0.8,0,1.3,0.5,1.3,1.4c0,0.4-0.1,0.9-0.2,1.4l-0.4,2.1h0.1c0.7-1.5,1.5-2.7,2.5-3.6
			s1.8-1.4,2.6-1.4c0.4,0,0.8,0.1,1.1,0.3l-1.2,1.6c-0.3-0.2-0.6-0.3-0.9-0.3c-1.1,0-2.7,1.7-4.6,5L250,170L248.1,170.1z"/>
		<path fill="#FF5B84" d="M258.5,169.9c-0.7-0.4-1.1-1.1-1.1-2.1c0-1.7,0.7-3.4,2.1-5c1.4-1.6,3.1-2.4,5.1-2.4c0.4,0,1.2,0,2.5,0.1
			l-0.6,2.6l-0.4,2c-0.2,1.1-0.4,1.9-0.4,2.4c-0.3,2.1-0.6,3.5-1,4.3c-0.3,0.8-0.9,1.6-1.7,2.4c-1.2,1.1-2.6,1.7-4.2,1.7
			c-1,0-1.9-0.2-2.5-0.6c-0.6-0.4-1-0.9-1-1.6C255.3,172.4,256.4,171.1,258.5,169.9z M264.3,165.2h-0.1c-0.6,1.4-1.4,2.5-2.2,3.3
			s-1.8,1.3-2.7,1.5c-1.5,1.1-2.3,2-2.3,3c0,0.6,0.3,1.1,0.9,1.5c0.6,0.4,1.3,0.6,2.1,0.6c1,0,1.9-0.4,2.5-1.2
			c0.6-0.8,1-2.1,1.3-3.9L264.3,165.2z M265,161.7c-0.7-0.3-1.4-0.5-2.1-0.5c-0.8,0-1.4,0.3-2,1c-0.4,0.6-0.8,1.4-1.2,2.4
			c-0.3,1.1-0.5,2-0.5,2.8c0,0.8,0.3,1.2,0.8,1.2c1.2,0,2.7-1.7,4.6-5L265,161.7z"/>
		<path fill="#FF5B84" d="M274.6,167.3l-0.2,0.8c-1.3,1.4-2.4,2.1-3.5,2.1c-0.8,0-1.3-0.4-1.3-1.3c0-0.3,0.1-0.8,0.2-1.5l0.6-3.1
			c0.2-0.9,0.2-1.4,0.2-1.7c0-0.5-0.2-0.7-0.6-0.7c-0.3,0-0.7,0.1-1.4,0.3l0.1-0.5l4.3-1.4l-0.7,2.8l-0.9,4.3
			c-0.1,0.7-0.2,1.1-0.2,1.3c0,0.4,0.2,0.6,0.5,0.6C272.6,169.3,273.5,168.6,274.6,167.3z M271.4,158.7l0.6-1.2l2.5-1.6l-0.8,1.6
			L271.4,158.7z"/>
		<path fill="#FF5B84" d="M276,170.1l0.7-2.7l0.9-4.3c0.1-0.7,0.2-1.1,0.2-1.3c0-0.4-0.2-0.5-0.5-0.5c-0.6,0-1.4,0.6-2.6,1.9
			l0.2-0.8c1.3-1.4,2.4-2.1,3.5-2.1c0.8,0,1.3,0.4,1.3,1.3c0,0.3-0.1,0.8-0.2,1.5l-0.4,2.2h0.1c0.7-1.5,1.6-2.7,2.5-3.6
			c0.9-0.9,1.8-1.4,2.6-1.4c1,0,1.4,0.5,1.4,1.6c0,0.3,0,0.8-0.1,1.3l-0.9,4.3c-0.1,0.7-0.2,1.1-0.2,1.3c0,0.4,0.2,0.6,0.5,0.6
			c0.6,0,1.5-0.6,2.6-1.9l-0.2,0.8c-1.3,1.4-2.4,2.1-3.5,2.1c-0.8,0-1.3-0.4-1.3-1.3c0-0.3,0.1-0.8,0.2-1.5l0.9-4.3
			c0.1-0.3,0.1-0.6,0.1-0.8c0-0.5-0.2-0.7-0.5-0.7c-1.1,0-2.7,1.8-4.7,5.3l-0.6,3.1L276,170.1z"/>
		<path fill="#FF5B84" d="M294.2,167.3l-0.2,0.8c-1.3,1.4-2.4,2.1-3.5,2.1c-0.8,0-1.3-0.4-1.3-1.3c0-0.3,0.1-0.8,0.2-1.5l0.6-3.1
			c0.2-0.9,0.2-1.4,0.2-1.7c0-0.5-0.2-0.7-0.6-0.7c-0.3,0-0.7,0.1-1.4,0.3l0.1-0.5l4.3-1.4l-0.7,2.8l-0.9,4.3
			c-0.1,0.7-0.2,1.1-0.2,1.3c0,0.4,0.2,0.6,0.5,0.6C292.2,169.3,293,168.6,294.2,167.3z M291,158.7l0.6-1.2l2.5-1.6l-0.8,1.6
			L291,158.7z"/>
		<path fill="#FF5B84" d="M301.8,165.2h-0.2c-0.7,1.5-1.5,2.7-2.4,3.6c-0.9,0.9-1.8,1.4-2.6,1.4c-1.2,0-1.9-0.8-1.9-2.3
			c0-1.7,0.7-3.4,2-5c1.4-1.7,3.1-2.5,5.2-2.5c0.8,0,1.7,0,2.6,0.1l-0.6,2.6l-0.9,4.3c-0.1,0.7-0.2,1.1-0.2,1.3
			c0,0.4,0.2,0.6,0.5,0.6c0.6,0,1.5-0.6,2.6-1.9l-0.2,0.8c-1.3,1.4-2.4,2.1-3.5,2.1c-0.9,0-1.3-0.4-1.3-1.3c0-0.3,0.1-0.8,0.2-1.5
			L301.8,165.2z M302.5,161.7c-0.7-0.3-1.5-0.5-2.2-0.5c-1.1,0-1.9,0.7-2.6,2c-0.8,1.6-1.1,3-1.1,4.3c0,0.9,0.3,1.4,0.8,1.4
			c0.5,0,1.2-0.5,2.2-1.6c0.9-1.1,1.8-2.3,2.5-3.6L302.5,161.7z"/>
	</g>
</g>
</svg>
