<?xml version="1.0" encoding="utf-8"?>
<!-- Generator: Adobe Illustrator 18.0.0, SVG Export Plug-In . SVG Version: 6.00 Build 0)  -->
<!DOCTYPE svg PUBLIC "-//W3C//DTD SVG 1.1//EN" "http://www.w3.org/Graphics/SVG/1.1/DTD/svg11.dtd">
<svg version="1.1" id="Layer_1" xmlns="http://www.w3.org/2000/svg" xmlns:xlink="http://www.w3.org/1999/xlink" x="0px" y="0px"
	 viewBox="0 0 28.8 29.1" enable-background="new 0 0 28.8 29.1" xml:space="preserve">
<g>
	<g>
		<path fill="#72BE44" d="M8.6,4.4c0,0,0.9,1.3,2.2,3.3c0.6,1,1.4,2.2,2.1,3.4c0.4,0.6,0.8,1.3,1.2,2c0.4,0.7,0.8,1.4,1.2,2
			c0.4,0.7,0.8,1.4,1.2,2c0.4,0.7,0.7,1.3,1.1,2c0.7,1.3,1.4,2.5,1.9,3.6c1.1,2.1,1.8,3.5,1.8,3.5S20.3,25,19.1,23
			c-0.6-1-1.4-2.2-2.1-3.4c-0.4-0.6-0.8-1.3-1.2-2c-0.4-0.7-0.8-1.4-1.2-2c-0.4-0.7-0.8-1.4-1.2-2c-0.4-0.7-0.8-1.3-1.1-2
			C11.6,10.2,10.9,9,10.4,8C9.3,5.9,8.6,4.4,8.6,4.4z"/>
		<path fill="#72BE44" d="M4,21.7c0,0,1.3-0.9,3.3-2.2c1-0.6,2.2-1.4,3.4-2.1c0.6-0.4,1.3-0.8,2-1.2c0.7-0.4,1.4-0.8,2-1.2
			c0.7-0.4,1.4-0.8,2-1.2c0.7-0.4,1.3-0.8,2-1.1c1.3-0.7,2.5-1.4,3.6-1.9c2.1-1.1,3.5-1.8,3.5-1.8s-1.3,0.9-3.3,2.2
			c-1,0.6-2.2,1.4-3.4,2.1c-0.6,0.4-1.3,0.8-2,1.2c-0.7,0.4-1.4,0.8-2,1.2c-0.7,0.4-1.4,0.8-2,1.2c-0.7,0.4-1.3,0.8-2,1.1
			c-1.3,0.7-2.5,1.4-3.6,1.9C5.4,21,4,21.7,4,21.7z"/>
		<path fill="#72BE44" d="M18.2,3.2c0,0-0.3,1.6-0.8,3.9c-0.3,1.2-0.6,2.5-0.9,3.9c-0.2,0.7-0.4,1.5-0.6,2.2
			c-0.2,0.8-0.4,1.5-0.6,2.3c-0.2,0.8-0.4,1.5-0.6,2.3c-0.2,0.7-0.4,1.5-0.6,2.2c-0.4,1.4-0.8,2.7-1.2,3.9c-0.7,2.3-1.2,3.8-1.2,3.8
			s0.3-1.6,0.8-3.9c0.3-1.2,0.6-2.5,0.9-3.9c0.2-0.7,0.4-1.5,0.6-2.2c0.2-0.8,0.4-1.5,0.6-2.3c0.2-0.8,0.4-1.5,0.6-2.3
			c0.2-0.7,0.4-1.5,0.6-2.2c0.4-1.4,0.8-2.7,1.2-3.9C17.7,4.7,18.2,3.2,18.2,3.2z"/>
		<path fill="#72BE44" d="M2.7,12.1c0,0,1.6,0.3,3.9,0.8c1.2,0.3,2.5,0.6,3.9,0.9c0.7,0.2,1.5,0.4,2.2,0.6c0.8,0.2,1.5,0.4,2.3,0.6
			c0.8,0.2,1.5,0.4,2.3,0.6c0.7,0.2,1.5,0.4,2.2,0.6c1.4,0.4,2.7,0.8,3.9,1.2c2.3,0.7,3.8,1.2,3.8,1.2s-1.6-0.3-3.9-0.8
			c-1.2-0.3-2.5-0.6-3.9-0.9c-0.7-0.2-1.5-0.4-2.2-0.6c-0.8-0.2-1.5-0.4-2.3-0.6c-0.8-0.2-1.5-0.4-2.3-0.6c-0.7-0.2-1.5-0.4-2.2-0.6
			c-1.4-0.4-2.7-0.8-3.9-1.2C4.2,12.6,2.7,12.1,2.7,12.1z"/>
	</g>
	<g>
		<path fill="#FFFFFF" d="M9.1,4.4c0,0,0.9,1.3,2.2,3.3c0.6,1,1.4,2.2,2.1,3.4c0.4,0.6,0.8,1.3,1.2,2c0.4,0.7,0.8,1.4,1.2,2
			c0.4,0.7,0.8,1.4,1.2,2c0.4,0.7,0.8,1.3,1.1,2c0.7,1.3,1.4,2.5,1.9,3.6c1.1,2.1,1.8,3.5,1.8,3.5S20.8,25,19.5,23
			c-0.6-1-1.4-2.2-2.1-3.4c-0.4-0.6-0.8-1.3-1.2-2c-0.4-0.7-0.8-1.4-1.2-2c-0.4-0.7-0.8-1.4-1.2-2c-0.4-0.7-0.8-1.3-1.1-2
			C12.1,10.2,11.4,9,10.9,8C9.8,5.9,9.1,4.4,9.1,4.4z"/>
		<path fill="#FFFFFF" d="M4.5,21.7c0,0,1.3-0.9,3.3-2.2c1-0.6,2.2-1.4,3.4-2.1c0.6-0.4,1.3-0.8,2-1.2c0.7-0.4,1.4-0.8,2-1.2
			c0.7-0.4,1.4-0.8,2-1.2c0.7-0.4,1.3-0.8,2-1.1c1.3-0.7,2.5-1.4,3.6-1.9c2.1-1.1,3.5-1.8,3.5-1.8S25,10,23,11.2
			c-1,0.6-2.2,1.4-3.4,2.1c-0.6,0.4-1.3,0.8-2,1.2c-0.7,0.4-1.4,0.8-2,1.2c-0.7,0.4-1.4,0.8-2,1.2c-0.7,0.4-1.3,0.8-2,1.1
			c-1.3,0.7-2.5,1.4-3.6,1.9C5.9,21,4.5,21.7,4.5,21.7z"/>
		<path fill="#FFFFFF" d="M18.7,3.2c0,0-0.3,1.6-0.8,3.9c-0.3,1.2-0.6,2.5-0.9,3.9c-0.2,0.7-0.4,1.5-0.6,2.2
			c-0.2,0.8-0.4,1.5-0.6,2.3c-0.2,0.8-0.4,1.5-0.6,2.3c-0.2,0.7-0.4,1.5-0.6,2.2c-0.4,1.4-0.8,2.7-1.2,3.9c-0.7,2.3-1.2,3.8-1.2,3.8
			s0.3-1.6,0.8-3.9c0.3-1.2,0.6-2.5,0.9-3.9c0.2-0.7,0.4-1.5,0.6-2.2c0.2-0.8,0.4-1.5,0.6-2.3c0.2-0.8,0.4-1.5,0.6-2.3
			c0.2-0.7,0.4-1.5,0.6-2.2c0.4-1.4,0.8-2.7,1.2-3.9C18.1,4.7,18.7,3.2,18.7,3.2z"/>
		<path fill="#FFFFFF" d="M3.2,12.1c0,0,1.6,0.3,3.9,0.8c1.2,0.3,2.5,0.6,3.9,0.9c0.7,0.2,1.5,0.4,2.2,0.6c0.8,0.2,1.5,0.4,2.3,0.6
			c0.8,0.2,1.5,0.4,2.3,0.6c0.8,0.2,1.5,0.4,2.2,0.6c1.4,0.4,2.7,0.8,3.9,1.2c2.3,0.7,3.8,1.2,3.8,1.2s-1.6-0.3-3.9-0.8
			c-1.2-0.3-2.5-0.6-3.9-0.9c-0.7-0.2-1.5-0.4-2.2-0.6c-0.8-0.2-1.5-0.4-2.3-0.6c-0.8-0.2-1.5-0.4-2.3-0.6c-0.7-0.2-1.5-0.4-2.2-0.6
			c-1.4-0.4-2.7-0.8-3.9-1.2C4.7,12.6,3.2,12.1,3.2,12.1z"/>
	</g>
</g>
</svg>
