<?xml version="1.0" encoding="utf-8"?>
<!-- Generator: Adobe Illustrator 18.0.0, SVG Export Plug-In . SVG Version: 6.00 Build 0)  -->
<!DOCTYPE svg PUBLIC "-//W3C//DTD SVG 1.1//EN" "http://www.w3.org/Graphics/SVG/1.1/DTD/svg11.dtd">
<svg version="1.1" id="Layer_1" xmlns="http://www.w3.org/2000/svg" xmlns:xlink="http://www.w3.org/1999/xlink" x="0px" y="0px"
	 viewBox="302.3 202.6 241.2 234.6" enable-background="new 302.3 202.6 241.2 234.6" xml:space="preserve">
<g>
	<g>
		<path fill="#72BE44" d="M425,295.7c0,0,5.2,7.6,12.9,19.4c3.7,6,8.1,12.9,12.6,20.2c2.4,3.7,4.7,7.6,6.8,11.5
			c2.4,3.9,4.7,8.1,7.1,12.1c2.4,3.9,4.7,8.1,6.8,12.1c2.4,3.9,4.5,7.9,6.6,11.8c4.2,7.6,8.1,14.7,11.3,21
			c6.6,12.3,10.5,20.7,10.5,20.7s-5.2-7.6-12.9-19.4c-3.7-6-8.1-12.9-12.6-20.2c-2.4-3.7-4.7-7.6-6.8-11.5
			c-2.4-3.9-4.7-8.1-7.1-12.1c-2.4-3.9-4.7-8.1-6.8-12.1c-2.4-3.9-4.5-7.9-6.6-11.8c-4.2-7.6-8.1-15-11.3-21
			C428.9,304.1,425,295.7,425,295.7z"/>
		<path fill="#72BE44" d="M397.7,397.5c0,0,7.6-5.2,19.4-12.9c6-3.7,12.9-8.1,20.2-12.6c3.7-2.4,7.6-4.7,11.5-6.8
			c3.9-2.4,8.1-4.7,12.1-7.1c3.9-2.4,8.1-4.7,12.1-6.8c3.9-2.4,7.9-4.5,11.8-6.6c7.6-4.2,14.7-8.1,21-11.3
			c12.3-6.6,20.7-10.5,20.7-10.5s-7.6,5.2-19.4,12.9c-6,3.7-12.9,8.1-20.2,12.6c-3.7,2.4-7.6,4.7-11.5,6.8
			c-3.9,2.4-8.1,4.7-12.1,7.1c-3.9,2.4-8.1,4.7-12.1,6.8c-3.9,2.4-7.9,4.5-11.8,6.6c-7.6,4.2-15,8.1-21,11.3
			C406.1,393.3,397.7,397.5,397.7,397.5z"/>
		<path fill="#72BE44" d="M481.7,288.1c0,0-1.6,9.2-4.7,22.8c-1.6,6.8-3.4,14.7-5.5,23.3c-1,4.2-2.1,8.7-3.4,13.1
			c-1,4.5-2.4,8.9-3.7,13.4c-1,4.5-2.4,8.9-3.7,13.4c-1.3,4.5-2.4,8.7-3.7,12.9c-2.4,8.4-4.7,16.3-6.8,22.8
			c-4.2,13.4-7.3,22.3-7.3,22.3s1.6-9.2,4.7-22.8c1.6-6.8,3.4-14.7,5.5-23.3c1-4.2,2.1-8.7,3.4-13.1c1-4.5,2.4-8.9,3.4-13.4
			c1.3-4.5,2.4-8.9,3.7-13.4c1.3-4.5,2.4-8.7,3.7-13.1c2.4-8.4,4.7-16.3,6.8-22.8C478.5,297,481.7,288.1,481.7,288.1z"/>
		<path fill="#72BE44" d="M390.4,340.8c0,0,9.2,1.6,22.8,4.7c6.8,1.6,14.7,3.4,23.3,5.5c4.2,1,8.7,2.1,13.1,3.4
			c4.5,1.3,8.9,2.4,13.4,3.7c4.5,1.3,8.9,2.4,13.4,3.7c4.5,1,8.7,2.4,12.9,3.7c8.4,2.4,16.3,4.7,22.8,6.8
			c13.4,4.2,22.3,7.3,22.3,7.3s-9.2-1.6-22.8-4.7c-6.8-1.6-14.7-3.4-23.3-5.5c-4.2-1-8.7-2.1-13.1-3.4c-4.5-1.3-8.9-2.4-13.4-3.7
			c-4.5-1-8.9-2.4-13.4-3.7s-8.7-2.4-12.9-3.7c-8.4-2.4-16.3-4.7-22.8-6.8C399,344,390.4,340.8,390.4,340.8z"/>
	</g>
	<g>
		<path fill="#FF3366" d="M427.9,295.7c0,0,5.2,7.6,12.9,19.4c3.7,6,8.1,12.9,12.6,20.2c2.4,3.7,4.7,7.6,6.8,11.5
			c2.4,3.9,4.7,8.1,7.1,12.1c2.4,3.9,4.7,8.1,6.8,12.1c2.4,3.9,4.5,7.9,6.6,11.8c4.2,7.6,8.1,14.7,11.3,21
			c6.6,12.3,10.5,20.7,10.5,20.7s-5.2-7.6-12.9-19.4c-3.7-6-8.1-12.9-12.6-20.2c-2.4-3.7-4.7-7.6-6.8-11.5
			c-2.4-3.9-4.7-8.1-7.1-12.1c-2.4-3.9-4.7-8.1-6.8-12.1c-2.4-3.9-4.5-7.9-6.6-11.8c-4.2-7.6-8.1-15-11.3-21
			C431.8,304.1,427.9,295.7,427.9,295.7z"/>
		<path fill="#FF3366" d="M400.6,397.5c0,0,7.6-5.2,19.4-12.9c6-3.7,12.9-8.1,20.2-12.6c3.7-2.4,7.6-4.7,11.5-6.8
			c3.9-2.4,8.1-4.7,12.1-7.1c3.9-2.4,8.1-4.7,12.1-6.8c3.9-2.4,7.9-4.5,11.8-6.6c7.6-4.2,14.7-8.1,21-11.3
			c12.3-6.6,20.7-10.5,20.7-10.5s-7.6,5.2-19.4,12.9c-6,3.7-12.9,8.1-20.2,12.6c-3.7,2.4-7.6,4.7-11.5,6.8
			c-3.9,2.4-8.1,4.7-12.1,7.1c-3.9,2.4-8.1,4.7-12.1,6.8c-3.9,2.4-7.9,4.5-11.8,6.6c-7.6,4.2-15,8.1-21,11.3
			C409,393.3,400.6,397.5,400.6,397.5z"/>
		<path fill="#FF3366" d="M484.5,288.1c0,0-1.6,9.2-4.7,22.8c-1.6,6.8-3.4,14.7-5.5,23.3c-1,4.2-2.1,8.7-3.4,13.1
			c-1.3,4.5-2.4,8.9-3.7,13.4c-1.3,4.5-2.4,8.9-3.7,13.4c-1,4.5-2.4,8.7-3.7,12.9c-2.4,8.4-4.7,16.3-6.8,22.8
			c-4.2,13.4-7.3,22.3-7.3,22.3s1.6-9.2,4.7-22.8c1.6-6.8,3.4-14.7,5.5-23.3c1-4.2,2.1-8.7,3.4-13.1c1.3-4.5,2.4-8.9,3.7-13.4
			c1-4.5,2.4-8.9,3.7-13.4c1.3-4.5,2.4-8.7,3.7-13.1c2.4-8.4,4.7-16.3,6.8-22.8C481.1,297,484.5,288.1,484.5,288.1z"/>
		<path fill="#FF3366" d="M393.3,340.8c0,0,9.2,1.6,22.8,4.7c6.8,1.6,14.7,3.4,23.3,5.5c4.2,1,8.7,2.1,13.1,3.4
			c4.5,1.3,8.9,2.4,13.4,3.7c4.5,1.3,8.9,2.4,13.4,3.7c4.5,1,8.7,2.4,13.1,3.7c8.4,2.4,16.3,4.7,22.8,6.8
			c13.4,4.2,22.3,7.3,22.3,7.3s-9.2-1.6-22.8-4.7c-6.8-1.6-14.7-3.4-23.3-5.5c-4.2-1-8.7-2.1-13.1-3.4c-4.5-1.3-8.9-2.4-13.4-3.7
			c-4.5-1-8.9-2.4-13.4-3.7s-8.7-2.4-13.1-3.7c-8.4-2.4-16.3-4.7-22.8-6.8C401.9,344,393.3,340.8,393.3,340.8z"/>
	</g>
</g>
<g>
	<g>
		<path fill="#FF3366" d="M455.2,293.3c0,0-0.3-5.5-0.3-13.4c0-3.9,0-8.7,0-13.9c0-2.6,0-5.2,0.3-7.9c0-2.6,0.3-5.5,0.3-8.1
			c0-2.6,0.3-5.5,0.3-8.1c0-2.6,0.3-5.2,0.5-7.9c0.3-5,0.5-9.7,1-13.9c0.8-8.1,1.3-13.6,1.3-13.6s0.3,5.5,0.3,13.4
			c0,3.9,0,8.7,0,13.9c0,2.6,0,5.2-0.3,7.9c0,2.6-0.3,5.5-0.3,8.1c0,2.6-0.3,5.5-0.3,8.1c0,2.6-0.3,5.2-0.5,7.9
			c-0.3,5-0.5,10-1,13.9C456,287.8,455.2,293.3,455.2,293.3z"/>
		<path fill="#FF3366" d="M500.3,245.9c0,0-5.5,1-13.6,2.1c-3.9,0.5-8.9,1.3-13.9,1.8c-2.4,0.3-5.2,0.5-7.9,0.8s-5.2,0.5-8.1,0.8
			c-2.6,0.3-5.5,0.5-8.1,0.8c-2.6,0.3-5.2,0.5-7.9,0.5c-5,0.3-9.7,0.8-13.9,1c-8.1,0.5-13.4,0.5-13.4,0.5s5.5-1,13.6-2.1
			c3.9-0.5,8.9-1.3,13.9-1.8c2.4-0.3,5.2-0.5,7.9-0.8s5.2-0.5,8.1-0.8s5.5-0.5,8.1-0.8c2.6-0.3,5.2-0.5,7.9-0.5
			c5-0.3,9.7-0.8,13.9-1C495,245.9,500.3,245.9,500.3,245.9z"/>
		<path fill="#FF3366" d="M425.3,283.6c0,0,3.7-4.5,9.4-11c2.9-3.4,6.3-7.1,10-11c1.8-2.1,3.7-4.2,5.8-6c2.1-2.1,3.9-4.2,6-6.3
			c2.1-2.1,3.9-4.2,6-6.3c2.1-2.1,3.9-3.9,5.8-6c3.7-3.9,7.3-7.3,10.5-10.5c6-6,10.5-10,10.5-10s-3.7,4.5-9.4,11
			c-2.9,3.4-6.3,7.1-10,11c-1.8,2.1-3.7,4.2-5.8,6c-2.1,2.1-3.9,4.2-6,6.3c-2.1,2.1-3.9,4.2-6,6.3c-2.1,2.1-3.9,3.9-5.8,6
			c-3.7,3.9-7.3,7.3-10.5,10.5C429.5,279.7,425.3,283.6,425.3,283.6z"/>
		<path fill="#FF3366" d="M486.4,277.6c0,0-3.9-3.1-9.7-8.1c-2.9-2.4-6-5.5-9.7-8.7c-1.8-1.6-3.7-3.1-5.5-5
			c-1.8-1.6-3.7-3.4-5.5-5.2c-1.8-1.8-3.7-3.4-5.5-5.2c-1.8-1.6-3.7-3.4-5.2-5c-3.4-3.4-6.6-6.6-9.2-9.2c-5.2-5.5-8.7-9.2-8.7-9.2
			s3.9,3.1,9.7,8.1c2.9,2.4,6,5.5,9.7,8.7c1.8,1.6,3.7,3.1,5.5,5c1.8,1.6,3.7,3.4,5.5,5.2c1.8,1.8,3.7,3.7,5.5,5.2
			c1.8,1.6,3.4,3.4,5.2,5c3.4,3.4,6.6,6.6,9.2,9.2C483.2,273.9,486.4,277.6,486.4,277.6z"/>
	</g>
	<g>
		<path fill="#66CC33" d="M453.9,292.8c0,0-0.3-5.5-0.3-13.4c0-3.9,0-8.7,0-13.9c0-2.6,0-5.2,0.3-7.9c0-2.6,0.3-5.5,0.3-8.1
			c0-2.6,0.3-5.5,0.3-8.1c0-2.6,0.3-5.2,0.5-7.9c0.3-5,0.5-9.7,1-13.9c0.8-8.1,1.3-13.6,1.3-13.6s0.3,5.5,0.3,13.4
			c0,3.9,0,8.7,0,13.9c0,2.6,0,5.2-0.3,7.9c0,2.6-0.3,5.5-0.3,8.1c0,2.6-0.3,5.5-0.3,8.1c0,2.6-0.3,5.2-0.5,7.9
			c-0.3,5-0.5,10-1,13.9C454.6,287.3,453.9,292.8,453.9,292.8z"/>
		<path fill="#66CC33" d="M499,245.1c0,0-5.5,1-13.6,2.1c-3.9,0.5-8.9,1-13.9,1.8c-2.4,0.3-5.2,0.5-7.9,0.8s-5.2,0.5-8.1,0.8
			c-2.6,0.3-5.5,0.5-8.1,0.8c-2.6,0.3-5.2,0.5-7.9,0.5c-5,0.3-9.7,0.8-13.9,1c-8.1,0.5-13.4,0.5-13.4,0.5s5.5-1,13.6-2.1
			c3.9-0.5,8.9-1,13.9-1.8c2.4-0.3,5.2-0.5,7.9-0.8s5.2-0.5,8.1-0.8c2.6-0.3,5.5-0.5,8.1-0.8c2.6-0.3,5.2-0.5,7.9-0.5
			c5-0.3,9.7-0.8,13.9-1C493.7,245.1,499,245.1,499,245.1z"/>
		<path fill="#66CC33" d="M424,282.9c0,0,3.7-4.5,9.4-11c2.9-3.4,6.3-7.1,10-11c1.8-2.1,3.7-4.2,5.8-6c2.1-2.1,3.9-4.2,6-6.3
			c2.1-2.1,3.9-4.2,6-6.3c2.1-2.1,3.9-3.9,5.8-6c3.7-3.9,7.3-7.3,10.5-10.5c6-6,10.5-10,10.5-10s-3.7,4.5-9.4,11
			c-2.9,3.4-6.3,7.1-10,11c-1.8,2.1-3.7,4.2-5.8,6c-2.1,2.1-3.9,4.2-6,6.3c-2.1,2.1-3.9,4.2-6,6.3c-2.1,2.1-3.9,3.9-5.8,6
			c-3.7,3.9-7.3,7.3-10.5,10.5C428.2,278.9,424,282.9,424,282.9z"/>
		<path fill="#66CC33" d="M485.1,277.1c0,0-3.9-3.1-9.7-8.1c-2.9-2.4-6-5.5-9.7-8.7c-1.8-1.6-3.7-3.1-5.5-5
			c-1.8-1.6-3.7-3.4-5.5-5.2s-3.7-3.7-5.5-5.2c-1.8-1.6-3.4-3.4-5.2-5c-3.4-3.4-6.6-6.6-9.2-9.2c-5.2-5.5-8.7-9.2-8.7-9.2
			s3.9,3.1,9.7,8.1c2.9,2.4,6,5.5,9.7,8.7c1.8,1.6,3.7,3.1,5.5,5c1.8,1.6,3.7,3.4,5.5,5.2s3.7,3.4,5.5,5.2c1.8,1.6,3.7,3.4,5.2,5
			c3.4,3.4,6.6,6.6,9.2,9.2C481.7,273.2,485.1,277.1,485.1,277.1z"/>
	</g>
</g>
<g>
	<g>
		<path fill="#FF3366" d="M345.5,326.1c0,0,0.3,5.5,0.8,13.4c0,3.9,0.3,8.7,0.3,13.9c0,2.6,0,5.2,0,7.9s0,5.5,0,8.1s0,5.5,0,8.1
			s0,5.2,0,7.9c0,5-0.3,10-0.5,13.9c-0.3,8.1-0.8,13.6-0.8,13.6s-0.3-5.5-0.8-13.4c0-3.9-0.3-8.7-0.3-13.9c0-2.6,0-5.2,0-7.9
			s0-5.5,0-8.1s0-5.5,0-8.1s0-5.2,0-7.9c0-5,0.3-10,0.5-13.9C345.3,331.6,345.5,326.1,345.5,326.1z"/>
		<path fill="#FF3366" d="M302.3,375.2c0,0,5.5-1,13.4-2.6c3.9-0.8,8.7-1.3,13.9-2.4c2.4-0.3,5-0.8,7.9-1c2.6-0.3,5.2-0.8,8.1-1
			c2.6-0.3,5.5-0.8,8.1-1s5.2-0.5,7.9-1c5-0.5,9.7-1,13.9-1.3c8.1-0.8,13.4-1,13.4-1s-5.5,1.3-13.4,2.6c-3.9,0.8-8.7,1.3-13.9,2.4
			c-2.4,0.3-5,0.8-7.9,1.3c-2.6,0.3-5.2,0.8-8.1,1c-2.6,0.3-5.5,0.8-8.1,1c-2.6,0.3-5.2,0.5-7.9,1c-5,0.5-9.7,1-13.9,1.3
			C307.5,374.9,302.3,375.2,302.3,375.2z"/>
		<path fill="#FF3366" d="M376,334.8c0,0-3.4,4.7-9.2,11.3c-2.6,3.4-6,7.1-9.4,11.3c-1.8,2.1-3.7,4.2-5.5,6.3
			c-1.8,2.1-3.7,4.5-5.8,6.6c-2.1,2.1-3.9,4.5-5.8,6.6c-1.8,2.1-3.7,4.2-5.8,6.3c-3.7,3.9-7.1,7.6-10.2,10.8
			c-6,6.3-10.2,10.5-10.2,10.5s3.4-4.7,9.2-11.3c2.6-3.4,6-7.1,9.4-11.3c1.8-2.1,3.7-4.2,5.5-6.3c1.8-2.1,3.7-4.5,5.8-6.6
			s3.9-4.5,5.8-6.6c1.8-2.1,3.7-4.2,5.8-6.3c3.7-3.9,7.1-7.6,10.2-10.8C371.8,338.7,376,334.8,376,334.8z"/>
		<path fill="#FF3366" d="M315.1,342.7c0,0,4.2,2.9,10,7.9c2.9,2.4,6.3,5.2,10,8.1c1.8,1.6,3.7,3.1,5.5,4.7c1.8,1.6,3.7,3.4,5.8,5
			c2.1,1.6,3.7,3.4,5.8,5c1.8,1.6,3.7,3.4,5.5,5c3.4,3.1,6.8,6.3,9.4,8.9c5.5,5.2,8.9,8.9,8.9,8.9s-4.2-2.9-10-7.6
			c-2.9-2.4-6.3-5.2-10-8.1c-1.8-1.6-3.7-3.1-5.5-4.7c-1.8-1.6-3.7-3.4-5.8-5c-1.8-1.6-3.7-3.4-5.8-5c-1.8-1.6-3.7-3.4-5.5-5
			c-3.4-3.1-6.8-6.3-9.4-8.9C318.5,346.3,315.1,342.7,315.1,342.7z"/>
	</g>
	<g>
		<path fill="#66CC33" d="M347.1,326.7c0,0,0.3,5.5,0.8,13.4c0,3.9,0.3,8.7,0.3,13.9c0,2.6,0,5.2,0,7.9s0,5.5,0,8.1
			c0,2.6,0,5.5,0,8.1c0,2.6,0,5.2,0,7.9c0,5-0.3,10-0.5,13.9c-0.3,8.1-0.8,13.6-0.8,13.6s-0.3-5.5-0.8-13.4c0-3.9-0.3-8.7-0.3-13.9
			c0-2.6,0-5.2,0-7.9s0-5.5,0-8.1s0-5.5,0-8.1s0-5.2,0-7.9c0-5,0.3-10,0.5-13.9C346.6,332.2,347.1,326.7,347.1,326.7z"/>
		<path fill="#66CC33" d="M303.6,375.7c0,0,5.5-1,13.4-2.6c3.9-0.8,8.7-1.3,13.9-2.4c2.4-0.3,5-0.8,7.9-1c2.6-0.3,5.2-0.8,8.1-1
			c2.6-0.3,5.5-0.8,8.1-1c2.6-0.3,5.2-0.5,7.9-1c5-0.5,9.7-1,13.9-1.3c8.1-0.8,13.4-1,13.4-1s-5.5,1.3-13.4,2.6
			c-3.9,0.8-8.7,1.3-13.9,2.4c-2.4,0.3-5,0.8-7.9,1.3c-2.6,0.3-5.2,0.8-8.1,1c-2.6,0.3-5.5,0.8-8.1,1c-2.6,0.3-5.2,0.5-7.9,1
			c-5,0.5-9.7,1-13.9,1.3C309.1,375.7,303.6,375.7,303.6,375.7z"/>
		<path fill="#66CC33" d="M377.3,335.6c0,0-3.7,4.7-9.2,11.3c-2.6,3.4-6,7.1-9.4,11.3c-1.8,2.1-3.7,4.2-5.5,6.3
			c-1.8,2.1-3.7,4.5-5.8,6.6c-1.8,2.1-3.9,4.5-5.8,6.6s-3.7,4.2-5.8,6.3c-3.7,3.9-7.1,7.6-10.2,10.8c-6,6.3-10.2,10.5-10.2,10.5
			s3.7-4.7,9.2-11.3c2.6-3.4,6-7.1,9.4-11.3c1.8-2.1,3.7-4.2,5.5-6.3s3.7-4.5,5.8-6.6c1.8-2.1,3.9-4.5,5.8-6.6s3.7-4.2,5.8-6.3
			c3.7-3.9,7.1-7.6,10.2-10.8C373.3,339.5,377.3,335.6,377.3,335.6z"/>
		<path fill="#66CC33" d="M316.4,343.4c0,0,4.2,2.9,10,7.9c2.9,2.4,6.3,5.2,10,8.1c1.8,1.6,3.7,3.1,5.5,4.7c1.8,1.6,3.7,3.4,5.8,5
			c1.8,1.6,3.7,3.4,5.8,5c1.8,1.6,3.7,3.4,5.5,5c3.4,3.1,6.8,6.3,9.4,8.9c5.5,5.2,8.9,8.9,8.9,8.9s-4.2-2.9-10-7.6
			c-2.9-2.4-6.3-5.2-10-8.1c-1.8-1.6-3.7-3.1-5.5-4.7c-1.8-1.6-3.7-3.4-5.8-5c-2.1-1.6-3.7-3.4-5.8-5c-2.1-1.6-3.7-3.4-5.5-5
			c-3.4-3.1-6.8-6.3-9.4-8.9C319.8,347.1,316.4,343.4,316.4,343.4z"/>
	</g>
</g>
</svg>
