<?xml version="1.0" encoding="utf-8"?>
<!-- Generator: Adobe Illustrator 18.0.0, SVG Export Plug-In . SVG Version: 6.00 Build 0)  -->
<!DOCTYPE svg PUBLIC "-//W3C//DTD SVG 1.1//EN" "http://www.w3.org/Graphics/SVG/1.1/DTD/svg11.dtd">
<svg version="1.1" id="Layer_1" xmlns="http://www.w3.org/2000/svg" xmlns:xlink="http://www.w3.org/1999/xlink" x="0px" y="0px"
	 viewBox="333.7 136.3 219.2 213.5" enable-background="new 333.7 136.3 219.2 213.5" xml:space="preserve">
<g>
	<g>
		<path fill="#72BE44" d="M444.1,239.3c0,0,1.3,2,3.2,5c1,1.5,2,3.3,3.2,5.2c0.6,1,1.2,1.9,1.7,2.9c0.6,1,1.2,2,1.8,3.1
			c0.6,1,1.2,2.1,1.7,3.1c0.6,1,1.1,2,1.7,3c1.1,2,2,3.8,2.9,5.3c1.6,3.1,2.7,5.3,2.7,5.3s-1.3-1.9-3.2-4.9c-1-1.5-2-3.3-3.2-5.2
			c-0.6-1-1.2-1.9-1.7-2.9c-0.6-1-1.2-2-1.8-3.1c-0.6-1-1.2-2-1.7-3.1c-0.6-1-1.1-2-1.7-3c-1.1-2-2-3.8-2.9-5.3
			C445.1,241.4,444.1,239.3,444.1,239.3z"/>
		<path fill="#72BE44" d="M437.2,265.1c0,0,1.9-1.4,4.9-3.2c1.5-1,3.3-2,5.2-3.2c1-0.6,1.9-1.2,2.9-1.7c1-0.6,2-1.2,3.1-1.8
			c1-0.6,2.1-1.2,3.1-1.7c1-0.6,2-1.1,3-1.7c2-1.1,3.8-2,5.3-2.9c3.2-1.7,5.3-2.7,5.3-2.7s-1.9,1.3-4.9,3.2c-1.5,1-3.3,2-5.2,3.2
			c-1,0.6-1.9,1.2-2.9,1.7c-1,0.6-2,1.2-3.1,1.8c-1,0.6-2.1,1.2-3.1,1.7c-1,0.6-2,1.1-3,1.7c-1.9,1.1-3.8,2-5.3,2.9
			C439.3,264.1,437.2,265.1,437.2,265.1z"/>
		<path fill="#72BE44" d="M458.5,237.3c0,0-0.4,2.3-1.2,5.8c-0.4,1.7-0.9,3.8-1.4,5.9c-0.3,1.1-0.5,2.2-0.8,3.3
			c-0.3,1.1-0.6,2.3-0.9,3.4c-0.3,1.1-0.6,2.3-0.9,3.4c-0.3,1.1-0.6,2.2-0.9,3.3c-0.6,2.1-1.2,4.1-1.7,5.8c-1,3.4-1.9,5.6-1.9,5.6
			s0.4-2.3,1.2-5.8c0.4-1.7,0.9-3.8,1.4-5.9c0.3-1.1,0.5-2.2,0.8-3.3c0.3-1.1,0.6-2.3,0.9-3.4c0.3-1.1,0.6-2.3,0.9-3.4
			c0.3-1.1,0.6-2.2,0.9-3.3c0.6-2.1,1.2-4.1,1.7-5.8C457.7,239.6,458.5,237.3,458.5,237.3z"/>
		<path fill="#72BE44" d="M435.3,250.7c0,0,2.3,0.4,5.8,1.2c1.7,0.4,3.8,0.9,5.9,1.4c1.1,0.3,2.2,0.5,3.3,0.8
			c1.1,0.3,2.3,0.6,3.4,0.9c1.1,0.3,2.3,0.6,3.4,0.9c1.1,0.3,2.2,0.6,3.3,0.9c2.1,0.6,4.1,1.2,5.8,1.7c3.4,1.1,5.6,1.9,5.6,1.9
			s-2.3-0.4-5.8-1.2c-1.7-0.4-3.8-0.9-5.9-1.4c-1.1-0.3-2.2-0.5-3.3-0.8c-1.1-0.3-2.3-0.6-3.4-0.9c-1.1-0.3-2.3-0.6-3.4-0.9
			c-1.1-0.3-2.2-0.6-3.3-0.9c-2.1-0.6-4.1-1.2-5.8-1.7C437.5,251.5,435.3,250.7,435.3,250.7z"/>
	</g>
	<g>
		<path fill="#FF3366" d="M444.9,239.3c0,0,1.4,2,3.2,5c1,1.5,2,3.3,3.2,5.2c0.6,1,1.2,1.9,1.7,2.9c0.6,1,1.2,2,1.8,3.1
			c0.6,1,1.2,2.1,1.7,3.1c0.6,1,1.1,2,1.7,3c1.1,2,2,3.8,2.9,5.3c1.6,3.1,2.7,5.3,2.7,5.3s-1.4-1.9-3.2-4.9c-1-1.5-2-3.3-3.2-5.2
			c-0.6-1-1.2-1.9-1.7-2.9c-0.6-1-1.2-2-1.8-3.1s-1.2-2-1.7-3.1c-0.6-1-1.1-2-1.7-3c-1.1-2-2-3.8-2.9-5.3
			C445.9,241.4,444.9,239.3,444.9,239.3z"/>
		<path fill="#FF3366" d="M437.9,265.1c0,0,2-1.4,5-3.2c1.5-1,3.3-2,5.2-3.2c1-0.6,1.9-1.2,2.9-1.7c1-0.6,2-1.2,3.1-1.8
			c1-0.6,2.1-1.2,3.1-1.7c1-0.6,2-1.1,3-1.7c2-1.1,3.8-2,5.3-2.9c3.1-1.7,5.3-2.7,5.3-2.7s-1.9,1.3-4.9,3.2c-1.5,1-3.3,2-5.2,3.2
			c-1,0.6-1.9,1.2-2.9,1.7c-1,0.6-2,1.2-3.1,1.8c-1,0.6-2.1,1.2-3.1,1.7c-1,0.6-2,1.1-3,1.7c-2,1.1-3.8,2-5.3,2.9
			C440.1,264.1,437.9,265.1,437.9,265.1z"/>
		<path fill="#FF3366" d="M459.2,237.3c0,0-0.4,2.3-1.2,5.8c-0.4,1.7-0.9,3.8-1.4,5.9c-0.3,1.1-0.5,2.2-0.8,3.3
			c-0.3,1.1-0.6,2.3-0.9,3.4s-0.6,2.3-0.9,3.4c-0.3,1.1-0.6,2.2-0.9,3.3c-0.6,2.1-1.2,4.1-1.7,5.8c-1,3.4-1.9,5.6-1.9,5.6
			s0.4-2.3,1.2-5.8c0.4-1.7,0.9-3.8,1.4-5.9c0.3-1.1,0.5-2.2,0.8-3.3c0.3-1.1,0.6-2.3,0.9-3.4c0.3-1.1,0.6-2.3,0.9-3.4
			c0.3-1.1,0.6-2.2,0.9-3.3c0.6-2.1,1.2-4.1,1.7-5.8C458.4,239.6,459.2,237.3,459.2,237.3z"/>
		<path fill="#FF3366" d="M436,250.7c0,0,2.3,0.4,5.8,1.2c1.7,0.4,3.8,0.9,5.9,1.4c1.1,0.3,2.2,0.5,3.3,0.8c1.1,0.3,2.3,0.6,3.4,0.9
			c1.1,0.3,2.3,0.6,3.4,0.9c1.1,0.3,2.2,0.6,3.3,0.9c2.1,0.6,4.1,1.2,5.8,1.7c3.4,1.1,5.6,1.9,5.6,1.9s-2.3-0.4-5.8-1.2
			c-1.7-0.4-3.8-0.9-5.9-1.4c-1.1-0.3-2.2-0.5-3.3-0.8c-1.1-0.3-2.3-0.6-3.4-0.9c-1.1-0.3-2.3-0.6-3.4-0.9c-1.1-0.3-2.2-0.6-3.3-0.9
			c-2.1-0.6-4.1-1.2-5.8-1.7C438.3,251.5,436,250.7,436,250.7z"/>
	</g>
</g>
<g>
	<g>
		<path fill="#FF3366" d="M451.8,238.7c0,0-0.1-1.4-0.1-3.4c0-1,0-2.2,0-3.5c0-0.7,0-1.3,0.1-2c0-0.7,0.1-1.4,0.1-2.1
			c0-0.7,0.1-1.4,0.1-2.1c0-0.7,0.1-1.4,0.1-2c0.1-1.3,0.1-2.5,0.2-3.5c0.2-2.1,0.3-3.5,0.3-3.5s0.1,1.4,0.1,3.4c0,1,0,2.2,0,3.5
			c0,0.7,0,1.3-0.1,2c0,0.7-0.1,1.4-0.1,2.1c0,0.7-0.1,1.4-0.1,2.1c0,0.7-0.1,1.4-0.1,2c-0.1,1.3-0.2,2.5-0.2,3.5
			C452,237.3,451.8,238.7,451.8,238.7z"/>
		<path fill="#FF3366" d="M463.3,226.6c0,0-1.4,0.2-3.4,0.5c-1,0.2-2.3,0.3-3.5,0.5c-0.6,0.1-1.3,0.1-2,0.2c-0.7,0.1-1.3,0.1-2,0.2
			c-0.7,0.1-1.4,0.1-2,0.2c-0.7,0.1-1.4,0.1-2,0.2c-1.3,0.1-2.5,0.2-3.5,0.2c-2.1,0.1-3.4,0.2-3.4,0.2s1.4-0.2,3.5-0.5
			c1-0.1,2.3-0.3,3.5-0.4c0.6-0.1,1.3-0.1,2-0.2c0.7-0.1,1.4-0.1,2-0.2c0.7-0.1,1.4-0.1,2-0.2c0.7-0.1,1.4-0.1,2-0.1
			c1.3-0.1,2.5-0.2,3.5-0.2C461.9,226.6,463.3,226.6,463.3,226.6z"/>
		<path fill="#FF3366" d="M444.2,236.2c0,0,0.9-1.1,2.4-2.8c0.7-0.8,1.6-1.8,2.5-2.8c0.5-0.5,1-1,1.4-1.6c0.5-0.5,1-1.1,1.5-1.6
			c0.5-0.5,1-1.1,1.5-1.6c0.5-0.5,1-1,1.5-1.5c1-1,1.9-1.9,2.7-2.7c1.6-1.6,2.7-2.6,2.7-2.6s-0.9,1.1-2.4,2.8
			c-0.7,0.8-1.6,1.8-2.5,2.8c-0.5,0.5-1,1-1.4,1.6c-0.5,0.5-1,1.1-1.5,1.6c-0.5,0.5-1,1.1-1.5,1.6c-0.5,0.5-1,1-1.5,1.5
			c-1,1-1.9,1.9-2.7,2.7C445.3,235.2,444.2,236.2,444.2,236.2z"/>
		<path fill="#FF3366" d="M459.7,234.7c0,0-1-0.8-2.5-2c-0.7-0.6-1.6-1.4-2.5-2.2c-0.5-0.4-0.9-0.8-1.4-1.3
			c-0.5-0.4-0.9-0.9-1.4-1.3c-0.5-0.4-0.9-0.9-1.4-1.3c-0.5-0.4-0.9-0.9-1.3-1.3c-0.8-0.8-1.6-1.6-2.3-2.3c-1.4-1.4-2.2-2.3-2.2-2.3
			s1,0.8,2.5,2c0.7,0.6,1.6,1.4,2.5,2.2c0.4,0.4,0.9,0.8,1.4,1.3c0.4,0.4,0.9,0.9,1.4,1.3c0.4,0.4,0.9,0.9,1.4,1.3
			c0.4,0.4,0.9,0.9,1.3,1.3c0.9,0.8,1.7,1.6,2.3,2.3C458.9,233.7,459.7,234.7,459.7,234.7z"/>
	</g>
	<g>
		<path fill="#66CC33" d="M451.5,238.5c0,0-0.1-1.4-0.1-3.4c0-1,0-2.2,0-3.5c0-0.7,0-1.3,0.1-2c0-0.7,0.1-1.4,0.1-2.1
			c0-0.7,0.1-1.4,0.1-2.1s0.1-1.4,0.1-2c0.1-1.3,0.1-2.5,0.2-3.5c0.2-2.1,0.3-3.5,0.3-3.5s0.1,1.4,0.1,3.4c0,1,0,2.2,0,3.5
			c0,0.7,0,1.3-0.1,2c0,0.7-0.1,1.4-0.1,2.1c0,0.7-0.1,1.4-0.1,2.1c0,0.7-0.1,1.4-0.1,2c-0.1,1.3-0.1,2.5-0.2,3.5
			C451.6,237.1,451.5,238.5,451.5,238.5z"/>
		<path fill="#66CC33" d="M462.9,226.4c0,0-1.4,0.2-3.5,0.5c-1,0.1-2.3,0.3-3.5,0.4c-0.6,0.1-1.3,0.1-2,0.2c-0.7,0.1-1.4,0.2-2,0.2
			s-1.4,0.1-2,0.2c-0.7,0.1-1.4,0.1-2,0.1c-1.3,0.1-2.5,0.2-3.5,0.2c-2.1,0.1-3.4,0.1-3.4,0.1s1.4-0.2,3.4-0.5
			c1-0.2,2.3-0.3,3.5-0.5c0.6-0.1,1.3-0.1,2-0.2c0.7-0.1,1.4-0.2,2-0.2s1.4-0.1,2-0.2c0.7-0.1,1.3-0.1,2-0.2
			c1.3-0.1,2.5-0.2,3.5-0.2C461.6,226.4,462.9,226.4,462.9,226.4z"/>
		<path fill="#66CC33" d="M443.8,236c0,0,0.9-1.1,2.4-2.8c0.7-0.8,1.6-1.8,2.5-2.8c0.5-0.5,1-1.1,1.4-1.6c0.5-0.5,1-1.1,1.5-1.6
			c0.5-0.5,1-1.1,1.5-1.6c0.5-0.5,1-1,1.5-1.5c1-1,1.9-1.9,2.7-2.7c1.6-1.6,2.7-2.6,2.7-2.6s-0.9,1.1-2.4,2.8
			c-0.7,0.8-1.6,1.8-2.5,2.8c-0.5,0.5-1,1.1-1.4,1.6c-0.5,0.5-1,1.1-1.5,1.6c-0.5,0.5-1,1.1-1.5,1.6c-0.5,0.5-1,1-1.5,1.5
			c-1,1-1.9,1.9-2.7,2.7C444.9,235,443.8,236,443.8,236z"/>
		<path fill="#66CC33" d="M459.4,234.5c0,0-1-0.8-2.5-2c-0.7-0.6-1.6-1.4-2.5-2.2c-0.4-0.4-0.9-0.8-1.4-1.3
			c-0.4-0.4-0.9-0.9-1.4-1.3c-0.4-0.4-0.9-0.9-1.4-1.3c-0.4-0.4-0.9-0.9-1.3-1.3c-0.8-0.8-1.6-1.6-2.3-2.3c-1.4-1.4-2.2-2.3-2.2-2.3
			s1,0.8,2.5,2c0.7,0.6,1.6,1.4,2.5,2.2c0.4,0.4,0.9,0.8,1.4,1.3c0.5,0.4,0.9,0.9,1.4,1.3c0.5,0.4,0.9,0.9,1.4,1.3
			c0.5,0.4,0.9,0.9,1.3,1.3c0.9,0.8,1.6,1.7,2.3,2.3C458.5,233.6,459.4,234.5,459.4,234.5z"/>
	</g>
</g>
<g>
	<g>
		<path fill="#FF3366" d="M424,247c0,0,0.1,1.4,0.2,3.4c0,1,0.1,2.2,0.1,3.5c0,0.7,0,1.3,0,2c0,0.7,0,1.4,0,2.1c0,0.7,0,1.4,0,2.1
			s0,1.4,0,2c0,1.3-0.1,2.5-0.1,3.5c-0.1,2.1-0.2,3.5-0.2,3.5s-0.1-1.4-0.2-3.4c0-1-0.1-2.2-0.1-3.5c0-0.7,0-1.3,0-2
			c0-0.7,0-1.4,0-2.1c0-0.7,0-1.4,0-2.1c0-0.7,0-1.3,0-2c0-1.3,0.1-2.5,0.1-3.5C423.8,248.4,424,247,424,247z"/>
		<path fill="#FF3366" d="M412.9,259.4c0,0,1.4-0.3,3.4-0.7c1-0.2,2.2-0.4,3.5-0.6c0.6-0.1,1.3-0.2,2-0.3c0.7-0.1,1.4-0.2,2-0.3
			s1.4-0.2,2-0.3c0.7-0.1,1.4-0.2,2-0.2c1.3-0.1,2.5-0.3,3.5-0.4c2-0.2,3.4-0.2,3.4-0.2s-1.4,0.3-3.4,0.7c-1,0.2-2.2,0.4-3.5,0.6
			c-0.6,0.1-1.3,0.2-2,0.3c-0.7,0.1-1.3,0.2-2,0.3s-1.4,0.2-2,0.3s-1.4,0.2-2,0.2c-1.3,0.1-2.5,0.3-3.5,0.4
			C414.3,259.4,412.9,259.4,412.9,259.4z"/>
		<path fill="#FF3366" d="M431.7,249.2c0,0-0.9,1.2-2.3,2.9c-0.7,0.9-1.5,1.8-2.4,2.9c-0.5,0.5-0.9,1.1-1.4,1.6
			c-0.5,0.5-1,1.1-1.4,1.7c-0.5,0.5-1,1.1-1.5,1.6c-0.5,0.5-1,1.1-1.4,1.6c-0.9,1-1.8,1.9-2.6,2.8c-1.5,1.6-2.6,2.6-2.6,2.6
			s0.9-1.2,2.3-2.9c0.7-0.8,1.5-1.8,2.4-2.9c0.4-0.5,0.9-1.1,1.4-1.6c0.5-0.5,1-1.1,1.4-1.6c0.5-0.5,1-1.1,1.5-1.6
			c0.5-0.5,1-1.1,1.4-1.6c0.9-1,1.8-1.9,2.6-2.8C430.6,250.2,431.7,249.2,431.7,249.2z"/>
		<path fill="#FF3366" d="M416.2,251.2c0,0,1.1,0.8,2.6,2c0.8,0.6,1.6,1.3,2.5,2.1c0.5,0.4,0.9,0.8,1.4,1.2c0.5,0.4,1,0.8,1.4,1.3
			c0.5,0.4,1,0.8,1.4,1.3c0.5,0.4,0.9,0.8,1.4,1.3c0.9,0.8,1.7,1.6,2.4,2.3c1.4,1.4,2.3,2.3,2.3,2.3s-1-0.8-2.5-2
			c-0.8-0.6-1.6-1.3-2.6-2.1c-0.4-0.4-0.9-0.8-1.4-1.2c-0.5-0.4-1-0.8-1.4-1.3c-0.5-0.4-1-0.9-1.4-1.3c-0.5-0.4-0.9-0.8-1.4-1.3
			c-0.9-0.8-1.7-1.6-2.4-2.3C417.1,252.2,416.2,251.2,416.2,251.2z"/>
	</g>
	<g>
		<path fill="#66CC33" d="M424.3,247.1c0,0,0.1,1.4,0.2,3.4c0,1,0.1,2.2,0.1,3.5c0,0.7,0,1.3,0,2c0,0.7,0,1.4,0,2.1
			c0,0.7,0,1.4,0,2.1c0,0.7,0,1.4,0,2c0,1.3-0.1,2.5-0.1,3.5c-0.1,2.1-0.2,3.5-0.2,3.5s-0.1-1.4-0.2-3.4c0-1-0.1-2.2-0.1-3.5
			c0-0.7,0-1.3,0-2c0-0.7,0-1.4,0-2.1s0-1.4,0-2.1s0-1.4,0-2c0-1.3,0.1-2.5,0.1-3.5C424.2,248.5,424.3,247.1,424.3,247.1z"/>
		<path fill="#66CC33" d="M413.3,259.6c0,0,1.4-0.3,3.4-0.7c1-0.2,2.2-0.4,3.5-0.6c0.6-0.1,1.3-0.2,2-0.3c0.7-0.1,1.4-0.2,2-0.3
			s1.4-0.2,2-0.3s1.3-0.2,2-0.2c1.3-0.1,2.5-0.3,3.5-0.4c2-0.2,3.4-0.2,3.4-0.2s-1.4,0.3-3.4,0.7c-1,0.2-2.2,0.4-3.5,0.6
			c-0.6,0.1-1.3,0.2-2,0.3c-0.7,0.1-1.4,0.2-2,0.3s-1.4,0.2-2,0.3s-1.3,0.2-2,0.2c-1.3,0.1-2.5,0.3-3.5,0.4
			C414.7,259.6,413.3,259.6,413.3,259.6z"/>
		<path fill="#66CC33" d="M432,249.4c0,0-0.9,1.2-2.3,2.9c-0.7,0.9-1.5,1.8-2.4,2.9c-0.5,0.5-0.9,1.1-1.4,1.6
			c-0.5,0.5-1,1.1-1.4,1.6c-0.5,0.5-1,1.1-1.5,1.6c-0.5,0.5-1,1.1-1.4,1.6c-0.9,1-1.8,2-2.6,2.8c-1.5,1.6-2.6,2.6-2.6,2.6
			s0.9-1.2,2.3-2.9c0.7-0.8,1.5-1.8,2.4-2.9c0.5-0.5,0.9-1.1,1.4-1.6c0.5-0.5,1-1.1,1.4-1.6c0.5-0.5,1-1.1,1.5-1.6
			c0.5-0.5,1-1.1,1.4-1.6c0.9-1,1.8-1.9,2.6-2.8C431,250.4,432,249.4,432,249.4z"/>
		<path fill="#66CC33" d="M416.5,251.4c0,0,1,0.8,2.5,2c0.8,0.6,1.6,1.3,2.6,2.1c0.4,0.4,0.9,0.8,1.4,1.2c0.5,0.4,1,0.8,1.4,1.3
			c0.5,0.4,1,0.8,1.4,1.3c0.5,0.4,0.9,0.8,1.4,1.3c0.9,0.8,1.7,1.6,2.4,2.3c1.4,1.4,2.3,2.3,2.3,2.3s-1-0.8-2.5-2
			c-0.8-0.6-1.6-1.3-2.6-2.1c-0.4-0.4-0.9-0.8-1.4-1.2c-0.5-0.4-1-0.8-1.4-1.3c-0.5-0.4-1-0.9-1.4-1.3c-0.5-0.4-0.9-0.8-1.4-1.3
			c-0.9-0.8-1.7-1.6-2.4-2.3C417.4,252.3,416.5,251.4,416.5,251.4z"/>
	</g>
</g>
</svg>
