<?xml version="1.0" encoding="utf-8"?>
<!-- Generator: Adobe Illustrator 18.1.1, SVG Export Plug-In . SVG Version: 6.00 Build 0)  -->
<svg version="1.1" id="Layer_1" xmlns="http://www.w3.org/2000/svg" xmlns:xlink="http://www.w3.org/1999/xlink" x="0px" y="0px"
	 viewBox="3994.8 -303.8 560 560" enable-background="new 3994.8 -303.8 560 560" xml:space="preserve">
<path fill="none" stroke="#E5096D" stroke-width="30" stroke-miterlimit="10" d="M4274.8-288.8c146.4,0,265,118.5,265,265
	s-118.5,265-265,265s-265-118.6-265-265S4128.4-288.8,4274.8-288.8z"/>
<g>
	<path fill="#FFFFFF" stroke="#E5096D" stroke-width="15" stroke-miterlimit="10" d="M4350.2-121.1c-7.9,0-14.8-0.1-21.7,0
		c-5.2,0.1-10.4,0.1-15.6,0.8c-9.4,1.1-15.7,7.2-16.1,16.5c-0.6,13.1-0.1,26.2-0.1,40.5c17.1,0,34,0,51.9,0
		c-1.8,14.2-3.1,27.1-5.1,40c-2.3,14.6-2.5,14.5-17.4,14.6c-8.7,0-17.3,0-26,0.1c-0.7,0-1.5,0.2-3.1,0.5c-0.2,2.9-0.5,6-0.5,9.1
		c0,38.9-0.2,77.8,0.1,116.7c0.1,6.9-1.5,9.6-9,9.3c-15.3-0.6-30.7-0.2-46.8-0.2c-0.3-3.8-0.8-7.1-0.8-10.4
		c-0.1-38.6-0.2-77.3,0.1-115.9c0.1-7-1.7-9.7-9.1-9.2c-10.1,0.6-20.3,0.3-30.5,0c-2-0.1-5.6-2.2-5.6-3.5
		c-0.4-16.5-0.3-33.1-0.3-50.7c11.3,0,21.8,0.1,32.4,0c13.8-0.2,12.5,2.7,13-13.2c0.4-15.1,0.1-30.3,2.5-45.1
		c4.8-28.5,27.6-48.4,56.7-49.9c15.3-0.8,30.7,0.5,46,1.3c1.7,0.1,4.8,2.9,4.8,4.5C4350.4-151.3,4350.2-137,4350.2-121.1z"/>
	<path fill="#FF3366" stroke="#E5096D" stroke-width="15" stroke-miterlimit="10" d="M4288.6,127.6c-0.3,0-0.7,0-1,0
		c-5.6-0.2-11.7-0.3-19.2-0.3c-4.5,0-9,0-13.5,0.1c-4.6,0-9.4,0.1-14.1,0.1h-0.7l-0.1-0.7c-0.1-1.2-0.2-2.4-0.3-3.6
		c-0.2-2.4-0.5-4.7-0.5-6.9V96.9c-0.1-31.6-0.1-64.4,0.1-96.6c0-3.7-0.5-5.8-1.7-7s-3.3-1.6-6.6-1.4c-4,0.2-8.3,0.4-13.1,0.4
		c-6.1,0-12.2-0.2-17.4-0.4c-2.2-0.1-6.3-2.3-6.4-4.2c-0.3-13.2-0.3-26.3-0.3-40.1c0-3.5,0-7.1,0-10.6v-0.7h0.7c3.5,0,7,0,10.3,0
		c7.5,0,14.8,0.1,22-0.1c2.1,0,3.9,0,5.4,0.1c0.9,0,1.6,0,2.3,0c4.2,0,4.3-0.2,4.4-9c0-1.1,0-2.3,0.1-3.6c0.1-3.2,0.1-6.5,0.2-9.8
		c0.2-11.7,0.4-23.8,2.3-35.4c4.8-28.7,27.8-49,57.4-50.6c3.2-0.2,6.4-0.2,10-0.2c8.9,0,18,0.5,26.8,1c3.1,0.2,6.1,0.4,9.2,0.5
		c2.2,0.1,5.5,3.2,5.5,5.2c0.3,11,0.3,22.1,0.2,33.8c0,3.5,0,7.1,0,10.8v0.7h-0.7c-2.4,0-4.8,0-7.1,0c-5.1,0-9.8,0-14.6,0h-0.9
		c-4.8,0.1-9.8,0.2-14.6,0.7c-9.3,1.1-15.1,7-15.5,15.8c-0.4,9.1-0.3,18.1-0.2,27.7c0,3.9,0.1,7.9,0.1,12h52l-0.1,0.8
		c-0.6,4.4-1.1,8.7-1.6,12.9c-1.1,9.4-2.1,18.2-3.5,27.1c-2.3,14.7-2.8,15.2-18,15.2c-8.8,0-17.5,0-26.2,0.1c-0.4,0-0.8,0.1-1.5,0.2
		c-0.3,0-0.6,0.1-1,0.2c0,0.7-0.1,1.5-0.2,2.2c-0.1,2.1-0.3,4.2-0.3,6.3v23.5c0,30.5-0.1,62.1,0.2,93.1c0,4.2-0.6,6.6-2.1,8.1
		C4293.9,126.9,4291.8,127.6,4288.6,127.6z M4268.4,125.8c7.5,0,13.6,0.1,19.2,0.3c3.3,0.1,5.4-0.4,6.6-1.5c1.2-1.2,1.7-3.2,1.6-7
		c-0.2-31.1-0.2-62.6-0.2-93.2V0.9c0-2.2,0.2-4.3,0.3-6.4c0.1-0.9,0.1-1.9,0.2-2.8v-0.6l0.6-0.1c0.6-0.1,1.1-0.2,1.5-0.2
		c0.7-0.1,1.2-0.2,1.7-0.2c8.7,0,17.3-0.1,26-0.1c14.5,0,14.5,0,16.7-13.9c1.4-8.8,2.4-17.7,3.5-27c0.5-3.9,0.9-8,1.4-12.1h-51.8
		v-0.7c0-4.4,0-8.6-0.1-12.8c-0.1-9.6-0.2-18.6,0.2-27.8c0.4-9.4,6.8-16,16.8-17.2c4.9-0.6,9.9-0.7,14.8-0.7h0.9
		c4.8-0.1,9.5-0.1,14.6,0c2,0,4.1,0,6.3,0c0-3.4,0-6.8,0-10c0-11.7,0.1-22.7-0.2-33.8c0-1.2-2.8-3.7-4.1-3.7
		c-3.1-0.2-6.1-0.3-9.2-0.5c-8.8-0.5-17.9-1-26.8-1c-3.5,0-6.8,0.1-9.9,0.2c-28.8,1.5-51.3,21.3-56,49.3
		c-1.9,11.5-2.1,23.6-2.3,35.2c-0.1,3.3-0.1,6.5-0.2,9.8c0,1.3-0.1,2.5-0.1,3.6c-0.2,8.7-0.2,10.5-5.9,10.5c-0.7,0-1.4,0-2.3,0
		c-1.5,0-3.2-0.1-5.4,0c-7.3,0.1-14.5,0.1-22,0.1c-3.2,0-6.3,0-9.6,0c0,3.3,0,6.6,0,9.9c0,13.8,0,26.9,0.3,40.1
		c0.1,0.7,3,2.7,4.9,2.8c5.2,0.2,11.3,0.4,17.4,0.4c4.7,0,9-0.1,13-0.4c3.8-0.2,6.2,0.3,7.8,1.9c1.5,1.5,2.1,3.9,2.1,8.1
		c-0.3,32.2-0.2,64.9-0.1,96.5v19.4c0,2.2,0.2,4.4,0.4,6.8c0.1,0.9,0.2,1.9,0.3,2.9c4.5,0,9,0,13.4-0.1
		C4259.4,125.8,4263.9,125.8,4268.4,125.8z"/>
</g>
</svg>
