<?xml version="1.0" encoding="utf-8"?>
<!-- Generator: Adobe Illustrator 18.1.1, SVG Export Plug-In . SVG Version: 6.00 Build 0)  -->
<svg version="1.1" id="Layer_1" xmlns="http://www.w3.org/2000/svg" xmlns:xlink="http://www.w3.org/1999/xlink" x="0px" y="0px"
	 viewBox="0.9 112.9 960.4 437.7" enable-background="new 0.9 112.9 960.4 437.7" xml:space="preserve">
<g>
	<path fill="#FFFFFF" stroke="#FFFFFF" stroke-width="0.767" stroke-miterlimit="10" d="M815.9,399c6.9,6.4,13.7,12.7,20.7,18.8
		c2.8-1.8,5.6-3.3,8.4-5.1c7.9-5.6,7.1-13-1.8-17.1c-3.1-1.5-5.9-3.8-8.7-5.6c0.5-0.5,0.8-0.8,1.3-1.3c-3.6-0.8-7.4-1.3-10.9-2
		c0-0.8,0.3-1.3,0.3-2c4.3-1.5,8.7-2.8,11.5-3.8c3.6-6.6-13-9.9-1.3-16.5c4.6,2.8,9.2,5.6,13.7,8.1c6.4-11.5,4.6-15.8-10.2-22.8
		c1.5-1.8,3.1-3.6,4.1-5.1c-11.7-6.4-30.4-2.3-34-19.6c-0.3-1.5-3.8-2.3-5.6-3.6c-5.6-4.3-14-6.9-13.5-18.1
		c10.2,11.5,28.6,13,29.9,27.6c8.9,2,16.8,3.8,24.5,5.6c-0.3-2-1.3-2.3-1.3-2.5c0.3-7.4-1.8-15.8,1.5-22c5.6-10.7,6.1-10.9-5.9-16.3
		c-8.7-3.8-15.8-9.9-23.8-14.8c-6.1-3.6-8.9-12-20.2-8.9c-5.3,1.5-13.2-1.3-19.1-3.6c-11.7-4.8-16.8-14-17.1-25.8
		c-6.9,2.5-13.2,4.8-19.3,7.1s-10.7,0-12.2-4.8c-1.3-5.1-1.8-10.7-0.5-15.8c1.3-6.1,4.8-11.7,7.4-17.6c0.5,0.5,1.3,1,1.8,1.8
		c3.3-2.3,6.4-4.3,9.7-6.6c1-0.8,1.5-2,2.5-2.8c10.2-8.4,9.9-19.9-1.3-27.3c-5.1-3.3-10.9-6.1-16.3-9.2c-4.1-2.5-7.9-6.6-12.2-7.4
		c-18.6-2.8-21.7-6.9-13.2-21.5c-4.1-2.5-7.9-5.9-12.2-7.9c-11.5-5.3-15.8-3.6-20.7,7.4c-2,4.3-4.1,8.9-6.4,14
		c-19.6-13.5-38-26.3-56.1-38.5c-3.1,9.7-7.4,18.6-8.4,27.8c-1,8.1-4.3,13.7-11.2,18.6c-2.5,1.8-3.3,5.6-5.1,8.1
		c-1.3,2-2.8,4.6-4.8,5.6c-11.5,5.9-23.3,11.2-27.3,23.5c-0.3,1-1.5,1.8-2.5,3.1c-4.6-3.1-8.7-5.9-14.3-9.7
		c-7.6,14.8-14.5,28.6-22.5,42.1c-2.8,4.8-8.1,12-12.2,12c-7.6-0.3-17.1-1.3-22-9.4c-2.8-4.6-8.9-7.9-15.3-13.5
		c-2,8.1-2.3,13.2-4.8,17.8c-4.8,9.4-10.9,18.6-16.5,28.1c-3.3,5.6-7.1,11.2-10.7,16.8c-4.3,6.9-7.9,14-13,20.2
		c-6.9,8.4-15.8,15.5-22.5,24c-4.1,5.1-8.9,12.2,2,16.3c-2,5.6-14,5.9-8.1,14.3c0.3,0.3-1.3,1.5-2,1.8c-6.4,3.3-12.7,6.6-20.2,10.4
		c-2-9.7-6.9-6.9-12.5-3.8c-8.9,4.6-17.1,14.5-28.6,3.1c-1.3,1.5-2.8,2.8-2.5,3.6c3.3,11.7-5.9,11.7-14.5,12.7
		c-5.6,0.5-11.7,0.8-16,3.1c-9.4,5.6-15.3,2-21.2-3.8c-1.3-1.3-2.8-2.3-3.8-3.3c-6.9,4.1-13,8.7-19.9,11.7c-5.1,2-12.2,4.1-16.5,2.5
		c-8.4-3.1-16.3-8.1-22.5-14c-6.1-5.9-9.7-13.5-14.5-20.7c1.5-1.8,3.1-3.6,4.6-5.3c-11.2,5.6-20.7,12.5-30.1,19.3
		c-8.7,6.4-17.1,12.7-28.9,15.5c-9.4,2.3-20.2,6.4-26.1,12.7c-6.1,6.6-8.9,15.3-19.6,18.3c-0.5,0.3-0.8,1.8-0.8,2.5
		c0.8,8.1-5.3,10.9-12.7,11.7c-9.4,1-17.6,2.5-19.6,12.5c-0.3,1-3.1,2-5.1,2.3c-13.7,2.8-27.6,5.6-41.1,8.4c-4.3,1-8.4,3.1-12.7,4.6
		c2.3,2,3.8,2.3,5.3,2.3c48.7,1.3,97.2,2.8,146,3.8c23,0.5,45.9-0.5,68.9-0.3c7.6,0,15.3,3.6,23.3,3.8c64.4,1.8,128.6,3.6,192.7,4.6
		c36.2,0.8,72.2,1,108.5,0.3c94.1-2.3,188.4-5.3,282.8-8.4c14-0.5,28.4-1.3,42.6-2c0.3-4.6,0.5-8.1,0.8-14.5
		c0.3,6.4,0.5,10.2,0.8,15c9.9-0.8,18.6-1.5,28.4-2.3c-6.6-16.3-12.5-30.9-17.8-44.1c-7.1,0-12.7,0.3-18.3,0c-4.8-0.3-10.2-2-14.8-1
		c-7.1,1.8-13.7,5.1-17.6,6.9c-7.1-6.6-11.5-14-17.8-15.8c-8.7-2.3-9.4-6.6-9.9-12.5c-0.3-2-0.8-3.8-1.3-6.1
		c-7.4,4.3-9.2,3.6-13-4.3c3.1-0.8,6.1-1.3,9.2-2c7.9-2.3,14.3,1.5,16,9.7L815.9,399z M910.1,296.8c4.8,4.6,4.1,9.9-2.8,13.7
		c-2,1.3-4.8,2.3-5.9,3.8c-11.5,18.1-16.3,38.3-20.2,58.4c-1.3,6.6,3.1,14.5,5.9,21.5c0.5,1.3,8.1,2.3,9.2,1
		c3.8-3.8,6.1-8.9,8.7-13.5c1.8-3.1,2.8-6.4,4.1-9.4c5.1-11.2,10.4-22.2,15-33.4c4.1-10.4,6.4-21.5,11.2-31.7
		c1.8-4.1,8.7-6.1,13.2-9.2c0.8,0.8,1.5,1.3,2.5,2c2.8-5.9,5.9-12,9.4-19.3C942,284.9,922.1,281.3,910.1,296.8z"/>
	<path fill="#FFFFFF" stroke="#FFFFFF" stroke-width="0.767" stroke-miterlimit="10" d="M816.4,398.7c-1.8-8.1-8.1-12-16-9.7
		c-3.1,1-6.1,1.5-9.2,2c3.8,7.9,5.6,8.7,13,4.3c0.5,2,1,4.1,1.3,6.1c0.5,5.9,1.3,10.2,9.9,12.5c6.4,1.8,10.4,9.2,17.8,15.8
		c3.8-1.5,10.4-5.1,17.6-6.9c4.6-1,9.7,0.8,14.8,1c5.6,0.3,10.9,0,18.3,0c5.3,13.2,11.2,27.8,17.8,44.1c-9.7,0.8-18.3,1.5-28.4,2.3
		c-0.3-4.8-0.5-8.4-0.8-15c-0.3,6.1-0.5,9.7-0.8,14.5c-14.3,0.8-28.4,1.5-42.6,2c-94.1,2.8-188.4,6.1-282.8,8.4
		c-36,1-72.2,0.5-108.5-0.3c-64.4-1.3-128.6-2.8-192.7-4.6c-7.6-0.3-15.3-3.6-23.3-3.8c-23-0.3-45.9,0.8-68.9,0.3
		c-48.7-1-97.2-2.5-146-3.8c-1.5,0-3.3-0.3-5.3-2.3c4.3-1.5,8.4-3.6,12.7-4.6c13.5-3.1,27.3-5.6,41.1-8.4c1.8-0.5,4.8-1.3,5.1-2.3
		c2-9.9,10.2-11.5,19.6-12.5c7.4-0.8,13.2-3.8,12.7-11.7c0-0.8,0.3-2.3,0.8-2.5c10.4-3.1,13.5-11.7,19.6-18.3
		c5.9-6.4,16.5-10.4,26.1-12.7c11.7-2.8,20.2-9.2,28.9-15.5c9.4-6.9,18.8-13.7,30.1-19.3c-1.5,1.8-3.3,3.6-4.6,5.3
		c4.8,6.9,8.4,14.8,14.5,20.7c6.1,5.9,14.3,10.9,22.5,14c4.3,1.8,11.5-0.5,16.5-2.5c6.9-2.8,13-7.4,19.9-11.7c1,0.8,2.5,1.8,3.8,3.3
		c6.1,5.9,12,9.4,21.2,3.8c4.3-2.5,10.7-2.5,16-3.1c8.9-1,17.8-1,14.5-12.7c-0.3-0.8,1.3-2,2.5-3.6c11.5,11.5,19.6,1.5,28.6-3.1
		c5.9-3.1,10.4-5.9,12.5,3.8c7.1-3.8,13.7-7.1,20.2-10.4c0.8-0.5,2-1.8,2-1.8c-5.9-8.4,6.1-8.7,8.1-14.3c-10.9-4.1-6.1-11.2-2-16.3
		c6.6-8.4,15.5-15.5,22.5-24c5.1-6.1,8.7-13.5,13-20.2c3.6-5.6,7.1-10.9,10.7-16.8c5.6-9.2,11.5-18.3,16.5-28.1
		c2.3-4.3,2.5-9.7,4.8-17.8c6.6,5.6,12.5,8.9,15.3,13.5c5.1,8.4,14.3,9.4,22,9.4c4.1,0,9.4-7.1,12.2-12
		c7.9-13.5,14.8-27.3,22.5-42.1c5.6,3.8,9.7,6.6,14.3,9.7c1-1,2.3-1.8,2.5-3.1c4.3-12.2,16-17.6,27.3-23.5c2.3-1,3.6-3.6,4.8-5.6
		c1.8-2.8,2.5-6.4,5.1-8.1c6.9-5.1,10.2-10.7,11.2-18.6c1-9.2,5.3-18.1,8.4-27.8c18.1,12.2,36.5,25,56.1,38.5
		c2.3-5.3,4.3-9.7,6.4-14c4.8-10.9,9.4-12.7,20.7-7.4c4.3,2,8.1,5.3,12.2,7.9c-8.4,14.5-5.3,18.6,13.2,21.5
		c4.3,0.8,8.1,4.8,12.2,7.4c5.3,3.1,11.2,5.9,16.3,9.2c11.2,7.4,11.7,18.8,1.3,27.3c-1,0.8-1.5,2-2.5,2.8c-3.1,2.3-6.4,4.6-9.7,6.6
		c-0.5-0.5-1.3-1-1.8-1.8c-2.5,5.9-5.9,11.5-7.4,17.6c-1.3,5.1-0.8,10.7,0.5,15.8c1.3,4.8,5.9,7.1,12.2,4.8
		c6.1-2.3,12.2-4.6,19.3-7.1c0.3,11.5,5.3,21,17.1,25.8c5.9,2.5,13.7,5.1,19.1,3.6c11.2-3.1,14,5.3,20.2,8.9
		c8.1,4.6,15.3,10.9,23.8,14.8c12,5.3,11.5,5.6,5.9,16.3c-3.3,6.1-1.3,14.5-1.5,22c0,0.3,1,0.5,1.3,2.5c-7.9-1.8-15.8-3.6-24.5-5.6
		c-1.3-14.3-19.6-15.8-29.9-27.6c-0.3,10.9,8.1,13.5,13.5,18.1c1.8,1.3,5.3,2,5.6,3.6c3.6,17.1,22.2,13.2,34,19.6
		c-1,1.3-2.5,3.1-4.1,5.1c14.5,7.1,16.3,11.2,10.2,22.8c-4.6-2.8-8.9-5.3-13.7-8.1c-11.7,6.6,4.8,9.9,1.3,16.5
		c-2.8,1-7.1,2.3-11.5,3.8c0,0.8-0.3,1.3-0.3,2c3.6,0.8,7.4,1.3,10.9,2c-0.5,0.5-0.8,0.8-1.3,1.3c2.8,1.8,5.3,4.1,8.7,5.6
		c8.9,4.1,9.7,11.5,1.8,17.1c-2.8,1.8-5.6,3.6-8.4,5.1c-6.9-6.4-13.7-12.7-20.7-18.8l0.8,0.3L816.4,398.7z"/>
	<path fill="#FFFFFF" stroke="#FFFFFF" stroke-width="0.767" stroke-miterlimit="10" d="M910.1,296.8c12-15.5,31.9-12,50.5-16.5
		c-3.6,7.4-6.6,13.5-9.4,19.3c-0.8-0.8-1.5-1.3-2.5-2c-4.6,3.1-11.2,5.1-13.2,9.2c-4.8,10.2-7.1,21.2-11.2,31.7
		c-4.6,11.2-9.9,22.5-15,33.4c-1.5,3.1-2.5,6.4-4.1,9.4c-2.5,4.6-5.1,9.7-8.7,13.5c-1.3,1.3-8.7,0.3-9.2-1
		c-2.8-6.9-7.1-14.5-5.9-21.5c3.8-20.2,8.4-40.3,20.2-58.4c1-1.8,3.8-2.8,5.9-3.8C913.9,306.9,914.9,301.5,910.1,296.8z"/>
	<polygon fill="#FFFFFF" stroke="#FFFFFF" stroke-width="0.767" stroke-miterlimit="10" points="816.4,398.7 816.4,399.2 815.9,399 
			"/>
</g>
<polygon fill="#EFE80C" stroke="#EFE80C" stroke-width="0.8" stroke-miterlimit="10" points="749.8,276.7 719.2,273.7 699,297.2 
	692.6,267.1 664.1,255.2 690.6,239.7 692.9,208.8 716.1,229.3 746.3,222.2 733.7,250.4 "/>
<text transform="matrix(1 0 0 1 29 533)" fill="#FFFFFF" stroke="#FFFFFF" stroke-width="3" stroke-miterlimit="10" font-family="'OpenSans-Light'" font-size="60">Based in Fredericksburg, Virginia</text>
</svg>
