<?xml version="1.0" encoding="utf-8"?>
<!-- Generator: Adobe Illustrator 18.1.1, SVG Export Plug-In . SVG Version: 6.00 Build 0)  -->
<svg version="1.1" id="Layer_1" xmlns="http://www.w3.org/2000/svg" xmlns:xlink="http://www.w3.org/1999/xlink" x="0px" y="0px"
	 viewBox="1.3 56.9 957.6 447.1" enable-background="new 1.3 56.9 957.6 447.1" xml:space="preserve">
<g>
	<g>
		<path fill="#4B9E15" stroke="#4B9E15" stroke-width="0.767" stroke-miterlimit="10" d="M813.9,342.4c6.9,6.4,13.7,12.7,20.6,18.8
			c2.8-1.8,5.6-3.3,8.4-5.1c7.9-5.6,7.1-13-1.8-17.1c-3.1-1.5-5.9-3.8-8.7-5.6c0.5-0.5,0.8-0.8,1.3-1.3c-3.6-0.8-7.4-1.3-10.9-2
			c0-0.8,0.3-1.3,0.3-2c4.3-1.5,8.7-2.8,11.5-3.8c3.6-6.6-13-9.9-1.3-16.5c4.6,2.8,9.2,5.6,13.7,8.1c6.4-11.5,4.6-15.8-10.2-22.7
			c1.5-1.8,3.1-3.6,4.1-5.1c-11.7-6.4-30.3-2.3-33.9-19.6c-0.3-1.5-3.8-2.3-5.6-3.6c-5.6-4.3-14-6.9-13.5-18.1
			c10.2,11.5,28.5,13,29.8,27.5c8.9,2,16.8,3.8,24.4,5.6c-0.3-2-1.3-2.3-1.3-2.5c0.3-7.4-1.8-15.8,1.5-21.9
			c5.6-10.7,6.1-10.9-5.9-16.3c-8.7-3.8-15.8-9.9-23.7-14.8c-6.1-3.6-8.9-12-20.1-8.9c-5.3,1.5-13.2-1.3-19.1-3.6
			c-11.7-4.8-16.8-14-17.1-25.7c-6.9,2.5-13.2,4.8-19.3,7.1c-6.1,2.3-10.7,0-12.2-4.8c-1.3-5.1-1.8-10.7-0.5-15.8
			c1.3-6.1,4.8-11.7,7.4-17.6c0.5,0.5,1.3,1,1.8,1.8c3.3-2.3,6.4-4.3,9.7-6.6c1-0.8,1.5-2,2.5-2.8c10.2-8.4,9.9-19.9-1.3-27.2
			c-5.1-3.3-10.9-6.1-16.3-9.2c-4.1-2.5-7.9-6.6-12.2-7.4c-18.6-2.8-21.6-6.9-13.2-21.4c-4.1-2.5-7.9-5.9-12.2-7.9
			c-11.5-5.3-15.8-3.6-20.6,7.4c-2,4.3-4.1,8.9-6.4,14c-19.6-13.5-37.9-26.2-56-38.4c-3.1,9.7-7.4,18.6-8.4,27.7
			c-1,8.1-4.3,13.7-11.2,18.6c-2.5,1.8-3.3,5.6-5.1,8.1c-1.3,2-2.8,4.6-4.8,5.6c-11.5,5.9-23.2,11.2-27.2,23.4
			c-0.3,1-1.5,1.8-2.5,3.1c-4.6-3.1-8.7-5.9-14.3-9.7c-7.6,14.8-14.5,28.5-22.4,42c-2.8,4.8-8.1,12-12.2,12
			c-7.6-0.3-17.1-1.3-21.9-9.4c-2.8-4.6-8.9-7.9-15.3-13.5c-2,8.1-2.3,13.2-4.8,17.8c-4.8,9.4-10.9,18.6-16.5,28
			c-3.3,5.6-7.1,11.2-10.7,16.8c-4.3,6.9-7.9,14-13,20.1c-6.9,8.4-15.8,15.5-22.4,23.9c-4.1,5.1-8.9,12.2,2,16.3
			c-2,5.6-14,5.9-8.1,14.3c0.3,0.3-1.3,1.5-2,1.8c-6.4,3.3-12.7,6.6-20.1,10.4c-2-9.7-6.9-6.9-12.5-3.8c-8.9,4.6-17.1,14.5-28.5,3.1
			c-1.3,1.5-2.8,2.8-2.5,3.6c3.3,11.7-5.9,11.7-14.5,12.7c-5.6,0.5-11.7,0.8-16,3.1c-9.4,5.6-15.3,2-21.1-3.8
			c-1.3-1.3-2.8-2.3-3.8-3.3c-6.9,4.1-13,8.7-19.9,11.7c-5.1,2-12.2,4.1-16.5,2.5c-8.4-3.1-16.3-8.1-22.4-14
			c-6.1-5.9-9.7-13.5-14.5-20.6c1.5-1.8,3.1-3.6,4.6-5.3c-11.2,5.6-20.6,12.5-30,19.3c-8.7,6.4-17.1,12.7-28.8,15.5
			c-9.4,2.3-20.1,6.4-26,12.7c-6.1,6.6-8.9,15.3-19.6,18.3c-0.5,0.3-0.8,1.8-0.8,2.5c0.8,8.1-5.3,10.9-12.7,11.7
			c-9.4,1-17.6,2.5-19.6,12.5c-0.3,1-3.1,2-5.1,2.3c-13.7,2.8-27.5,5.6-41,8.4c-4.3,1-8.4,3.1-12.7,4.6c2.3,2,3.8,2.3,5.3,2.3
			c48.6,1.3,97,2.8,145.6,3.8c22.9,0.5,45.8-0.5,68.7-0.3c7.6,0,15.3,3.6,23.2,3.8c64.2,1.8,128.3,3.6,192.2,4.6
			c36.1,0.8,72,1,108.2,0.3c93.9-2.3,187.9-5.3,282.1-8.4c14-0.5,28.3-1.3,42.5-2c0.3-4.6,0.5-8.1,0.8-14.5c0.3,6.4,0.5,10.2,0.8,15
			c9.9-0.8,18.6-1.5,28.3-2.3c-6.6-16.3-12.5-30.8-17.8-44c-7.1,0-12.7,0.3-18.3,0c-4.8-0.3-10.2-2-14.8-1
			c-7.1,1.8-13.7,5.1-17.6,6.9c-7.1-6.6-11.5-14-17.8-15.8c-8.7-2.3-9.4-6.6-9.9-12.5c-0.3-2-0.8-3.8-1.3-6.1
			c-7.4,4.3-9.2,3.6-13-4.3c3.1-0.8,6.1-1.3,9.2-2c7.9-2.3,14.3,1.5,16,9.7L813.9,342.4z M907.8,240.5c4.8,4.6,4.1,9.9-2.8,13.7
			c-2,1.3-4.8,2.3-5.9,3.8c-11.5,18.1-16.3,38.2-20.1,58.3c-1.3,6.6,3.1,14.5,5.9,21.4c0.5,1.3,8.1,2.3,9.2,1
			c3.8-3.8,6.1-8.9,8.7-13.5c1.8-3.1,2.8-6.4,4.1-9.4c5.1-11.2,10.4-22.1,15-33.3c4.1-10.4,6.4-21.4,11.2-31.6
			c1.8-4.1,8.7-6.1,13.2-9.2c0.8,0.8,1.5,1.3,2.5,2c2.8-5.9,5.9-12,9.4-19.3C939.6,228.6,919.8,225,907.8,240.5z"/>
		<path fill="#4B9E15" stroke="#4B9E15" stroke-width="0.767" stroke-miterlimit="10" d="M814.4,342.1c-1.8-8.1-8.1-12-16-9.7
			c-3.1,1-6.1,1.5-9.2,2c3.8,7.9,5.6,8.7,13,4.3c0.5,2,1,4.1,1.3,6.1c0.5,5.9,1.3,10.2,9.9,12.5c6.4,1.8,10.4,9.2,17.8,15.8
			c3.8-1.5,10.4-5.1,17.6-6.9c4.6-1,9.7,0.8,14.8,1c5.6,0.3,10.9,0,18.3,0c5.3,13.2,11.2,27.7,17.8,44c-9.7,0.8-18.3,1.5-28.3,2.3
			c-0.3-4.8-0.5-8.4-0.8-15c-0.3,6.1-0.5,9.7-0.8,14.5c-14.3,0.8-28.3,1.5-42.5,2c-93.9,2.8-187.9,6.1-282.1,8.4
			c-35.9,1-72,0.5-108.2-0.3c-64.2-1.3-128.3-2.8-192.2-4.6c-7.6-0.3-15.3-3.6-23.2-3.8c-22.9-0.3-45.8,0.8-68.7,0.3
			c-48.6-1-97-2.5-145.6-3.8c-1.5,0-3.3-0.3-5.3-2.3c4.3-1.5,8.4-3.6,12.7-4.6c13.5-3.1,27.2-5.6,41-8.4c1.8-0.5,4.8-1.3,5.1-2.3
			c2-9.9,10.2-11.5,19.6-12.5c7.4-0.8,13.2-3.8,12.7-11.7c0-0.8,0.3-2.3,0.8-2.5c10.4-3.1,13.5-11.7,19.6-18.3
			c5.9-6.4,16.5-10.4,26-12.7c11.7-2.8,20.1-9.2,28.8-15.5c9.4-6.9,18.8-13.7,30-19.3c-1.5,1.8-3.3,3.6-4.6,5.3
			c4.8,6.9,8.4,14.8,14.5,20.6c6.1,5.9,14.3,10.9,22.4,14c4.3,1.8,11.5-0.5,16.5-2.5c6.9-2.8,13-7.4,19.9-11.7
			c1,0.8,2.5,1.8,3.8,3.3c6.1,5.9,12,9.4,21.1,3.8c4.3-2.5,10.7-2.5,16-3.1c8.9-1,17.8-1,14.5-12.7c-0.3-0.8,1.3-2,2.5-3.6
			c11.5,11.5,19.6,1.5,28.5-3.1c5.9-3.1,10.4-5.9,12.5,3.8c7.1-3.8,13.7-7.1,20.1-10.4c0.8-0.5,2-1.8,2-1.8
			c-5.9-8.4,6.1-8.7,8.1-14.3c-10.9-4.1-6.1-11.2-2-16.3c6.6-8.4,15.5-15.5,22.4-23.9c5.1-6.1,8.7-13.5,13-20.1
			c3.6-5.6,7.1-10.9,10.7-16.8c5.6-9.2,11.5-18.3,16.5-28c2.3-4.3,2.5-9.7,4.8-17.8c6.6,5.6,12.5,8.9,15.3,13.5
			c5.1,8.4,14.3,9.4,21.9,9.4c4.1,0,9.4-7.1,12.2-12c7.9-13.5,14.8-27.2,22.4-42c5.6,3.8,9.7,6.6,14.3,9.7c1-1,2.3-1.8,2.5-3.1
			c4.3-12.2,16-17.6,27.2-23.4c2.3-1,3.6-3.6,4.8-5.6c1.8-2.8,2.5-6.4,5.1-8.1c6.9-5.1,10.2-10.7,11.2-18.6c1-9.2,5.3-18.1,8.4-27.7
			c18.1,12.2,36.4,24.9,56,38.4c2.3-5.3,4.3-9.7,6.4-14c4.8-10.9,9.4-12.7,20.6-7.4c4.3,2,8.1,5.3,12.2,7.9
			c-8.4,14.5-5.3,18.6,13.2,21.4c4.3,0.8,8.1,4.8,12.2,7.4c5.3,3.1,11.2,5.9,16.3,9.2c11.2,7.4,11.7,18.8,1.3,27.2
			c-1,0.8-1.5,2-2.5,2.8c-3.1,2.3-6.4,4.6-9.7,6.6c-0.5-0.5-1.3-1-1.8-1.8c-2.5,5.9-5.9,11.5-7.4,17.6c-1.3,5.1-0.8,10.7,0.5,15.8
			c1.3,4.8,5.9,7.1,12.2,4.8c6.1-2.3,12.2-4.6,19.3-7.1c0.3,11.5,5.3,20.9,17.1,25.7c5.9,2.5,13.7,5.1,19.1,3.6
			c11.2-3.1,14,5.3,20.1,8.9c8.1,4.6,15.3,10.9,23.7,14.8c12,5.3,11.5,5.6,5.9,16.3c-3.3,6.1-1.3,14.5-1.5,21.9c0,0.3,1,0.5,1.3,2.5
			c-7.9-1.8-15.8-3.6-24.4-5.6c-1.3-14.3-19.6-15.8-29.8-27.5c-0.3,10.9,8.1,13.5,13.5,18.1c1.8,1.3,5.3,2,5.6,3.6
			c3.6,17.1,22.1,13.2,33.9,19.6c-1,1.3-2.5,3.1-4.1,5.1c14.5,7.1,16.3,11.2,10.2,22.7c-4.6-2.8-8.9-5.3-13.7-8.1
			c-11.7,6.6,4.8,9.9,1.3,16.5c-2.8,1-7.1,2.3-11.5,3.8c0,0.8-0.3,1.3-0.3,2c3.6,0.8,7.4,1.3,10.9,2c-0.5,0.5-0.8,0.8-1.3,1.3
			c2.8,1.8,5.3,4.1,8.7,5.6c8.9,4.1,9.7,11.5,1.8,17.1c-2.8,1.8-5.6,3.6-8.4,5.1c-6.9-6.4-13.7-12.7-20.6-18.8l0.8,0.3L814.4,342.1z
			"/>
		<path fill="#4B9E15" stroke="#4B9E15" stroke-width="0.767" stroke-miterlimit="10" d="M907.8,240.5c12-15.5,31.8-12,50.4-16.5
			c-3.6,7.4-6.6,13.5-9.4,19.3c-0.8-0.8-1.5-1.3-2.5-2c-4.6,3.1-11.2,5.1-13.2,9.2c-4.8,10.2-7.1,21.1-11.2,31.6
			c-4.6,11.2-9.9,22.4-15,33.3c-1.5,3.1-2.5,6.4-4.1,9.4c-2.5,4.6-5.1,9.7-8.7,13.5c-1.3,1.3-8.7,0.3-9.2-1
			c-2.8-6.9-7.1-14.5-5.9-21.4c3.8-20.1,8.4-40.2,20.1-58.3c1-1.8,3.8-2.8,5.9-3.8C911.6,250.5,912.6,245.1,907.8,240.5z"/>
		<polygon fill="#4B9E15" stroke="#4B9E15" stroke-width="0.767" stroke-miterlimit="10" points="814.4,342.1 814.4,342.6 
			813.9,342.4 		"/>
	</g>
	<polygon fill="#EFE80C" stroke="#EFE80C" stroke-width="0.8" stroke-miterlimit="10" points="747.9,220.4 717.4,217.4 697.3,240.8 
		690.9,210.8 662.4,199 688.9,183.5 691.2,152.7 714.3,173.1 744.4,166 731.9,194.2 	"/>
	<g>
		<path fill="#FF3366" d="M182.5,473.7l1.5-1.8h2.3l2.8-14.3c-3.1,0-5.6,0.8-7.4,2.5c-1.8,1.5-2.8,3.8-2.8,6.4v0.5l-4.3,2
			c0.5-4.6,2.3-7.9,5.3-10.2c3.1-2.3,7.9-3.3,14.3-3.3h13l-2,6.4h-1.5c0.3-0.5,0.3-1.3,0.3-1.8c0-2-3.1-2.8-9.2-2.8h-1l-2.8,14.3
			h9.7l-2.3,2.3c-2.3-0.3-4.6-0.5-6.9-0.5h-1l-1.3,6.6c-1,5.6-3.3,9.9-6.4,13.2s-6.9,4.8-10.9,4.8c-2.3,0-4.3-0.8-6.1-2.5l3.3-3.3
			c1.3,2.5,3.1,3.6,5.6,3.6c2.3,0,4.3-1,5.6-3.3s2.5-5.9,3.6-11.5l1.5-7.9h-2.8V473.7z"/>
		<path fill="#FF3366" d="M207.5,489.3l1.8-6.9l2.3-10.9c0.3-1,0.3-2,0.3-2.8c0-1.3-0.5-2-1.3-2c-1.5,0-3.8,1.8-6.9,5.1l0.5-2
			c3.6-3.8,6.4-5.6,8.9-5.6c2,0,3.3,1.3,3.3,3.6c0,1-0.3,2.3-0.5,3.6l-1,5.3h0.3c1.8-3.8,3.8-6.9,6.4-9.2s4.6-3.6,6.6-3.6
			c1,0,2,0.3,2.8,0.8l-3.1,4.1c-0.8-0.5-1.5-0.8-2.3-0.8c-2.8,0-6.9,4.3-11.7,12.7l-1.5,8.1L207.5,489.3z"/>
		<path fill="#FF3366" d="M251.3,482.9l-0.3,1.8c-4.8,3.3-8.9,5.1-12.2,5.1c-2,0-3.8-0.8-5.1-2.3s-2-3.3-2-5.9c0-4.3,1.5-8.1,4.8-12
			s6.6-5.6,10.4-5.6c1.3,0,2.3,0.5,3.3,1.3c0.8,1,1.3,2,1.3,3.6c0,2.8-1.5,5.3-4.3,7.4c-2.8,2-6.4,3.1-10.4,3.1v1
			c0,4.3,1.5,6.6,4.8,6.6C243.9,487,247.2,485.7,251.3,482.9z M236.2,478.1c3.3-0.3,5.9-1,7.9-2.5c1.8-1.5,2.8-3.3,2.8-5.6
			c0-2.3-0.8-3.3-2.5-3.3c-1.8,0-3.6,1.3-5.1,3.6C237.8,472.5,236.8,475,236.2,478.1z"/>
		<path fill="#FF3366" d="M273.9,476.8h-0.5c-1.8,3.8-3.8,6.9-6.1,9.2c-2.3,2.3-4.6,3.6-6.6,3.6c-3.1,0-4.8-2-4.8-5.9
			c0-2.8,0.8-5.6,2.3-8.4c1.5-2.8,3.6-5.3,6.1-7.4c1.5-1.3,3.3-2.3,4.8-2.8c1.5-0.5,4.1-0.8,7.1-0.8c0.8-3.1,1.8-5.1,2.8-6.9
			c1-1.8,2.3-3.1,4.1-4.3c3.1-2.3,6.1-3.6,9.7-3.6c1.5,0,2.8,0.3,4.1,0.5l-3.1,3.1c-1.8-0.8-3.3-1.3-4.6-1.3c-2.3,0-4.1,0.8-5.3,2.5
			c-1.3,1.8-2.3,5.1-3.3,9.7l-3.6,17.8c-0.3,1.8-0.5,2.8-0.5,3.3c0,1,0.5,1.5,1.3,1.5c1.5,0,3.8-1.5,6.6-4.8l-0.5,2
			c-3.3,3.6-6.1,5.3-8.7,5.3c-2,0-3.3-1-3.3-3.3c0-0.8,0.3-2,0.5-3.8L273.9,476.8z M275.7,467.9c-1.8-0.8-3.8-1.3-5.6-1.3
			c-2.8,0-4.8,1.8-6.4,5.1c-2,4.1-2.8,7.6-2.8,10.9c0,2.3,0.8,3.6,2,3.6c1.3,0,3.1-1.3,5.6-4.1s4.6-5.9,6.4-9.2L275.7,467.9z"/>
		<path fill="#FF3366" d="M306.5,482.9l-0.3,1.8c-4.8,3.3-8.9,5.1-12.2,5.1c-2,0-3.8-0.8-5.1-2.3c-1.3-1.5-2-3.3-2-5.9
			c0-4.3,1.5-8.1,4.8-12s6.6-5.6,10.4-5.6c1.3,0,2.3,0.5,3.3,1.3c0.8,1,1.3,2,1.3,3.6c0,2.8-1.5,5.3-4.3,7.4
			c-2.8,2-6.4,3.1-10.4,3.1v1c0,4.3,1.5,6.6,4.8,6.6C299.4,487,302.7,485.7,306.5,482.9z M291.7,478.1c3.3-0.3,5.9-1,7.9-2.5
			c1.8-1.5,2.8-3.3,2.8-5.6c0-2.3-0.8-3.3-2.5-3.3s-3.6,1.3-5.1,3.6C293,472.5,292,475,291.7,478.1z"/>
		<path fill="#FF3366" d="M313.6,489.3l1.8-6.9l2.3-10.9c0.3-1,0.3-2,0.3-2.8c0-1.3-0.5-2-1.3-2c-1.5,0-3.8,1.8-6.9,5.1l0.5-2
			c3.6-3.8,6.4-5.6,8.9-5.6c2,0,3.3,1.3,3.3,3.6c0,1-0.3,2.3-0.5,3.6l-1,5.3h0.3c1.8-3.8,3.8-6.9,6.4-9.2s4.6-3.6,6.6-3.6
			c1,0,2,0.3,2.8,0.8l-3.1,4.1c-0.8-0.5-1.5-0.8-2.3-0.8c-2.8,0-6.9,4.3-11.7,12.7l-1.5,8.1L313.6,489.3z"/>
		<path fill="#FF3366" d="M352.8,482.1l-0.5,2c-3.3,3.6-6.1,5.3-8.9,5.3c-2,0-3.3-1-3.3-3.3c0-0.8,0.3-2,0.5-3.8l1.5-7.9
			c0.5-2.3,0.5-3.6,0.5-4.3c0-1.3-0.5-1.8-1.5-1.8c-0.8,0-1.8,0.3-3.6,0.8l0.3-1.3l10.9-3.6l-1.8,7.1l-2.3,10.9
			c-0.3,1.8-0.5,2.8-0.5,3.3c0,1,0.5,1.5,1.3,1.5C347.7,487.2,350,485.4,352.8,482.1z M344.7,460.2l1.5-3.1l6.4-4.1l-2,4.1
			L344.7,460.2z"/>
		<path fill="#FF3366" d="M374.5,482.9l-0.3,1.8c-4.8,3.3-8.9,5.1-12,5.1c-2,0-3.8-0.8-5.1-2.3c-1.3-1.5-2-3.3-2-5.9
			c0-4.3,1.5-8.4,4.8-12c3.3-3.6,6.9-5.3,10.9-5.3c1.8,0,3.6,0.3,5.1,1l-1.5,5.9h-1.3v-0.3c0.3-0.8,0.3-1.3,0.3-1.5
			c0-2-1.3-3.1-4.1-3.1c-2.5,0-4.8,1.5-6.6,4.3s-2.5,6.4-2.5,10.4s1.5,6.1,4.6,6.1C367.1,487,370.7,485.4,374.5,482.9z"/>
		<path fill="#FF3366" d="M379.3,489.3l1.8-6.9l3.1-15.5c1-5.3,3.1-9.7,6.1-12.7c3.1-3.1,6.6-4.6,10.9-4.6c1.5,0,2.8,0.3,4.1,0.5
			l-3.1,3.3c-1.8-0.8-3.3-1.3-4.6-1.3c-2,0-3.6,0.8-4.8,2c-0.8,0.8-1.3,1.8-1.8,3.1c-0.5,1.3-1,3.6-2,7.4l-2.3,9.7h0.3
			c1.5-3.1,3.3-5.6,5.6-7.4s4.6-2.8,6.9-2.8c2.5,0,3.8,1.3,3.8,3.6c0,2.5-1,4.6-3.1,6.4c-2,1.8-5.1,2.8-8.9,3.6
			c4.3,5.9,7.4,8.9,9.4,8.9c1.3,0,2.8-1,4.8-2.8l-0.3,1.5c-3.1,2.8-5.3,4.1-7.1,4.1c-1.5,0-2.8-0.8-4.3-2c-1.5-1.5-4.1-4.6-7.6-9.4
			l-2.3,10.9L379.3,489.3z M386.7,476.8v0.3h0.8c3.1,0,5.9-0.8,8.1-2.5c2.3-1.8,3.3-3.8,3.3-6.1c0-1.5-0.5-2.3-1.8-2.3
			C394.6,466.3,391,469.9,386.7,476.8z"/>
		<path fill="#FF3366" d="M405.8,488.2l3.1-3.1c2,1.5,3.8,2,5.9,2c1.3,0,2.3-0.3,3.1-1c0.8-0.8,1.3-1.5,1.3-2.3c0-1-0.8-2.5-2.5-4.3
			l-2-2.3c-2-2.3-3.1-4.1-3.1-5.3c0-2,1-3.8,2.8-5.3c1.8-1.5,4.1-2.3,6.6-2.3c1.3,0,2.8,0.3,4.6,0.8l-1,4.8h-1.5v-0.3
			c0-0.3,0-0.3,0-0.5c0-2-1.3-3.1-3.8-3.1c-2.8,0-4.3,1.3-4.3,3.6c0,1.3,0.8,2.8,2.5,4.6l1.8,2c2,2.3,3.1,4.1,3.1,5.6
			c0,2-1,3.8-3.1,5.3c-2,1.5-4.6,2.3-7.1,2.3C410.1,489.5,408.1,489,405.8,488.2z"/>
		<path fill="#FF3366" d="M429.2,489l1.5-6.6l3.1-15.5c1-5.3,3.1-9.7,6.1-12.7c3.1-3.1,6.6-4.6,10.9-4.6c1.5,0,2.8,0.3,4.1,0.5
			l-3.1,3.3c-1.8-0.8-3.3-1.3-4.6-1.3c-2.3,0-4.1,0.8-5.3,2.5c-1.3,1.8-2.3,5.1-3.3,9.9l-2.3,12.2h0.3c1.8-3.8,3.8-6.9,6.1-9.2
			c2.3-2.3,4.6-3.6,6.6-3.6c3.1,0,4.8,2,4.8,5.9c0,4.3-1.8,8.7-5.1,12.7c-3.6,4.3-7.9,6.4-13,6.4c-0.8,0-1.8,0-2.8,0L429.2,489z
			 M434.6,486c1.8,0.8,3.8,1.3,5.6,1.3c2.8,0,4.8-1.8,6.4-5.1c2-4.1,2.8-7.6,2.8-10.9c0-2.3-0.8-3.6-2-3.6c-1.3,0-3.1,1.3-5.6,4.1
			c-2.3,2.8-4.6,5.9-6.4,9.2L434.6,486z"/>
		<path fill="#FF3366" d="M476.8,476.8h-0.5c-4.3,8.4-8.4,12.7-12.5,12.7c-2.3,0-3.6-1.5-3.6-4.3c0-0.8,0-1.8,0.3-3.1l2.3-10.9
			c0.3-1.8,0.5-2.8,0.5-3.3c0-1-0.5-1.3-1.3-1.3c-1.5,0-3.6,1.5-6.6,4.8l0.5-2c3.3-3.6,6.1-5.3,8.9-5.3c2.3,0,3.3,1,3.3,3.3
			c0,0.8-0.3,2-0.5,3.8l-2.3,10.9c-0.3,1-0.3,1.8-0.3,2c0,1.3,0.5,1.8,1.3,1.8c1,0,2.8-1.3,5.1-4.1c2.3-2.8,4.3-5.9,6.4-9.4l1.5-8.1
			l4.8-0.3l-1.8,6.9l-2.3,10.9c-0.3,1.8-0.5,2.8-0.5,3.3c0,1,0.5,1.5,1.3,1.5c1.5,0,3.8-1.5,6.6-4.8l-0.5,2
			c-3.3,3.6-6.1,5.3-8.9,5.3c-2.3,0-3.3-1-3.3-3.3c0-0.8,0.3-2,0.5-3.8L476.8,476.8z"/>
		<path fill="#FF3366" d="M491.3,489.3l1.8-6.9l2.3-10.9c0.3-1,0.3-2,0.3-2.8c0-1.3-0.5-2-1.3-2c-1.5,0-3.8,1.8-6.9,5.1l0.5-2
			c3.6-3.8,6.4-5.6,8.9-5.6c2,0,3.3,1.3,3.3,3.6c0,1-0.3,2.3-0.5,3.6l-1,5.3h0.3c1.8-3.8,3.8-6.9,6.4-9.2s4.6-3.6,6.6-3.6
			c1,0,2,0.3,2.8,0.8l-3.1,4.1c-0.8-0.5-1.5-0.8-2.3-0.8c-2.8,0-6.9,4.3-11.7,12.7l-1.5,8.1L491.3,489.3z"/>
		<path fill="#FF3366" d="M517.8,488.8c-1.8-1-2.8-2.8-2.8-5.3c0-4.3,1.8-8.7,5.3-12.7c3.6-4.1,7.9-6.1,13-6.1c1,0,3.1,0,6.4,0.3
			l-1.5,6.6l-1,5.1c-0.5,2.8-1,4.8-1,6.1c-0.8,5.3-1.5,8.9-2.5,10.9c-1,2-2.3,4.1-4.3,6.1c-3.1,2.8-6.6,4.3-10.7,4.3
			c-2.5,0-4.8-0.5-6.4-1.5c-1.5-1-2.5-2.3-2.5-4.1C509.7,495.1,512.5,491.8,517.8,488.8z M532.6,476.8h-0.3
			c-1.5,3.6-3.6,6.4-5.6,8.4c-2,2-4.6,3.3-6.9,3.8c-3.8,2.8-5.9,5.1-5.9,7.6c0,1.5,0.8,2.8,2.3,3.8c1.5,1,3.3,1.5,5.3,1.5
			c2.5,0,4.8-1,6.4-3.1c1.5-2,2.5-5.3,3.3-9.9L532.6,476.8z M534.4,467.9c-1.8-0.8-3.6-1.3-5.3-1.3c-2,0-3.6,0.8-5.1,2.5
			c-1,1.5-2,3.6-3.1,6.1c-1,2.5-1.3,5.1-1.3,7.1c0,2,0.8,3.1,2,3.1c3.1,0,6.9-4.3,11.7-12.7L534.4,467.9z"/>
		<path fill="#FF3366" d="M542.2,484.9l4.3-3.3l3.3,4.3c-0.3,3.1-1,5.3-2.8,6.9c-1.8,1.5-4.1,2.5-7.1,2.5l1.3-1.3
			c2.3-0.3,3.8-1.8,4.1-4.6L542.2,484.9z"/>
		<path fill="#FF3366" d="M590.1,489.5l0.3-5.9c0-11.5-1-19.6-3.1-24.2c-2.3-4.8-4.8-7.1-8.1-7.1c-2.8,0-5.6,1.8-7.6,5.6l-1-0.5
			c3.3-5.1,6.9-7.6,10.9-7.6c9.4,0,14,10.7,14,32.3l7.1-11.2c4.3-6.9,6.6-10.9,6.6-12.7c0-0.5-0.8-0.8-2-0.8h-1.8l0.3-1.3h9.7
			l-0.3,1.3h-1.8l-20.1,31.8L590.1,489.5z"/>
		<path fill="#FF3366" d="M628,482.1l-0.5,2c-3.3,3.6-6.1,5.3-8.9,5.3c-2,0-3.3-1-3.3-3.3c0-0.8,0.3-2,0.5-3.8l1.5-7.9
			c0.5-2.3,0.5-3.6,0.5-4.3c0-1.3-0.5-1.8-1.5-1.8c-0.8,0-1.8,0.3-3.6,0.8l0.3-1.3l10.9-3.6l-1.8,7.1l-2.3,10.9
			c-0.3,1.8-0.5,2.8-0.5,3.3c0,1,0.5,1.5,1.3,1.5C622.7,487.2,625,485.4,628,482.1z M619.6,460.2l1.5-3.1l6.4-4.1l-2,4.1
			L619.6,460.2z"/>
		<path fill="#FF3366" d="M631.6,489.3l1.8-6.9l2.3-10.9c0.3-1,0.3-2,0.3-2.8c0-1.3-0.5-2-1.3-2c-1.5,0-3.8,1.8-6.9,5.1l0.5-2
			c3.6-3.8,6.4-5.6,8.9-5.6c2,0,3.3,1.3,3.3,3.6c0,1-0.3,2.3-0.5,3.6l-1,5.3h0.3c1.8-3.8,3.8-6.9,6.4-9.2c2.5-2.3,4.6-3.6,6.6-3.6
			c1,0,2,0.3,2.8,0.8l-3.1,4.1c-0.8-0.5-1.5-0.8-2.3-0.8c-2.8,0-6.9,4.3-11.7,12.7l-1.5,8.4L631.6,489.3z"/>
		<path fill="#FF3366" d="M658.1,488.8c-1.8-1-2.8-2.8-2.8-5.3c0-4.3,1.8-8.7,5.3-12.7s7.9-6.1,13-6.1c1,0,3.1,0,6.4,0.3l-1.5,6.6
			l-1,5.1c-0.5,2.8-1,4.8-1,6.1c-0.8,5.3-1.5,8.9-2.5,10.9c-0.8,2-2.3,4.1-4.3,6.1c-3.1,2.8-6.6,4.3-10.7,4.3
			c-2.5,0-4.8-0.5-6.4-1.5c-1.5-1-2.5-2.3-2.5-4.1C649.9,495.1,652.7,491.8,658.1,488.8z M672.8,476.8h-0.3
			c-1.5,3.6-3.6,6.4-5.6,8.4c-2,2-4.6,3.3-6.9,3.8c-3.8,2.8-5.9,5.1-5.9,7.6c0,1.5,0.8,2.8,2.3,3.8s3.3,1.5,5.3,1.5
			c2.5,0,4.8-1,6.4-3.1c1.5-2,2.5-5.3,3.3-9.9L672.8,476.8z M674.6,467.9c-1.8-0.8-3.6-1.3-5.3-1.3c-2,0-3.6,0.8-5.1,2.5
			c-1,1.5-2,3.6-3.1,6.1c-0.8,2.8-1.3,5.1-1.3,7.1c0,2,0.8,3.1,2,3.1c3.1,0,6.9-4.3,11.7-12.7L674.6,467.9z"/>
		<path fill="#FF3366" d="M699.1,482.1l-0.5,2c-3.3,3.6-6.1,5.3-8.9,5.3c-2,0-3.3-1-3.3-3.3c0-0.8,0.3-2,0.5-3.8l1.5-7.9
			c0.5-2.3,0.5-3.6,0.5-4.3c0-1.3-0.5-1.8-1.5-1.8c-0.8,0-1.8,0.3-3.6,0.8l0.3-1.3l10.9-3.6l-1.8,7.1l-2.3,10.9
			c-0.3,1.8-0.5,2.8-0.5,3.3c0,1,0.5,1.5,1.3,1.5C694,487.2,696.3,485.4,699.1,482.1z M690.9,460.2l1.5-3.1l6.4-4.1l-2,4.1
			L690.9,460.2z"/>
		<path fill="#FF3366" d="M702.6,489.3l1.8-6.9l2.3-10.9c0.3-1.8,0.5-2.8,0.5-3.3c0-1-0.5-1.3-1.3-1.3c-1.5,0-3.6,1.5-6.6,4.8l0.5-2
			c3.3-3.6,6.1-5.3,8.9-5.3c2,0,3.3,1,3.3,3.3c0,0.8-0.3,2-0.5,3.8l-1,5.6h0.3c1.8-3.8,4.1-6.9,6.4-9.2c2.3-2.3,4.6-3.6,6.6-3.6
			c2.5,0,3.6,1.3,3.6,4.1c0,0.8,0,2-0.3,3.3l-2.3,10.9c-0.3,1.8-0.5,2.8-0.5,3.3c0,1,0.5,1.5,1.3,1.5c1.5,0,3.8-1.5,6.6-4.8l-0.5,2
			c-3.3,3.6-6.1,5.3-8.9,5.3c-2,0-3.3-1-3.3-3.3c0-0.8,0.3-2,0.5-3.8l2.3-10.9c0.3-0.8,0.3-1.5,0.3-2c0-1.3-0.5-1.8-1.3-1.8
			c-2.8,0-6.9,4.6-12,13.5l-1.5,7.9L702.6,489.3z"/>
		<path fill="#FF3366" d="M749,482.1l-0.5,2c-3.3,3.6-6.1,5.3-8.9,5.3c-2,0-3.3-1-3.3-3.3c0-0.8,0.3-2,0.5-3.8l1.5-7.9
			c0.5-2.3,0.5-3.6,0.5-4.3c0-1.3-0.5-1.8-1.5-1.8c-0.8,0-1.8,0.3-3.6,0.8l0.3-1.3l10.9-3.6l-1.8,7.1l-2.3,10.9
			c-0.3,1.8-0.5,2.8-0.5,3.3c0,1,0.5,1.5,1.3,1.5C743.9,487.2,745.9,485.4,749,482.1z M740.8,460.2l1.5-3.1l6.4-4.1l-2,4.1
			L740.8,460.2z"/>
		<path fill="#FF3366" d="M768.3,476.8h-0.5c-1.8,3.8-3.8,6.9-6.1,9.2c-2.3,2.3-4.6,3.6-6.6,3.6c-3.1,0-4.8-2-4.8-5.9
			c0-4.3,1.8-8.7,5.1-12.7c3.6-4.3,7.9-6.4,13.2-6.4c2,0,4.3,0,6.6,0.3l-1.5,6.6l-2.3,10.9c-0.3,1.8-0.5,2.8-0.5,3.3
			c0,1,0.5,1.5,1.3,1.5c1.5,0,3.8-1.5,6.6-4.8l-0.5,2c-3.3,3.6-6.1,5.3-8.9,5.3c-2.3,0-3.3-1-3.3-3.3c0-0.8,0.3-2,0.5-3.8
			L768.3,476.8z M770.1,467.9c-1.8-0.8-3.8-1.3-5.6-1.3c-2.8,0-4.8,1.8-6.6,5.1c-2,4.1-2.8,7.6-2.8,10.9c0,2.3,0.8,3.6,2,3.6
			s3.1-1.3,5.6-4.1c2.3-2.8,4.6-5.9,6.4-9.2L770.1,467.9z"/>
	</g>
</g>
</svg>
