<?xml version="1.0" encoding="utf-8"?>
<!-- Generator: Adobe Illustrator 18.1.1, SVG Export Plug-In . SVG Version: 6.00 Build 0)  -->
<svg version="1.1" id="Layer_1" xmlns="http://www.w3.org/2000/svg" xmlns:xlink="http://www.w3.org/1999/xlink" x="0px" y="0px"
	 viewBox="404.6 644.7 959.8 199.4" enable-background="new 404.6 644.7 959.8 199.4" xml:space="preserve">
<g>
	<path fill="#E5096D" d="M439.5,688.6c0,0,5.6,8,12.7,19.9c4,5.6,8,12.7,12.7,20.7c2.4,4,4.8,8,7.2,11.9c2.4,4,4.8,8,7.2,11.9
		c2.4,4,4.8,8,7.2,11.9c2.4,4,4.8,8,6.4,11.9c4,8,8,15.1,11.1,20.7c6.4,12.7,10.3,20.7,10.3,20.7s-5.6-8-12.7-19.9
		c-4-5.6-8-12.7-12.7-20.7c-2.4-4-4.8-8-7.2-11.9c-2.4-4-4.8-8-7.2-11.9s-4.8-8-7.2-11.9c-2.4-3.9-4.8-8-6.4-11.9
		c-4-8-8-15.1-11.1-20.7C443.5,696.6,439.5,688.6,439.5,688.6z"/>
	<path fill="#E5096D" d="M411.8,790.3c0,0,8-5.6,19.9-12.7c5.6-4,12.7-8,20.7-12.7c4-2.4,8-4.8,11.9-7.2c4-2.4,8-4.8,11.9-7.2
		c4-2.4,8-4.8,11.9-7.2c4-2.4,8-4.8,11.9-6.4c8-4,15.1-8,20.7-11.1c12.7-6.4,20.7-10.3,20.7-10.3s-8,5.6-19.9,12.7
		c-5.6,4-12.7,8-20.7,12.7c-4,2.4-8,4.8-11.9,7.2c-4,2.4-8,4.8-11.9,7.2c-4,2.4-8,4.8-11.9,7.2c-4,2.4-8,4.8-11.9,6.4
		c-8,4-15.1,8-20.7,11.1C420.5,786.3,411.8,790.3,411.8,790.3z"/>
	<path fill="#E5096D" d="M495.9,680.6c0,0-1.6,9.6-4.8,23.1c-1.6,7.2-3.2,15.1-5.6,23.1c-0.8,4-2.4,8.8-3.2,12.7
		c-0.8,4-2.4,8.8-3.2,13.5c-0.8,4.8-2.4,8.8-4,13.5c-0.8,4-2.4,8.8-4,12.7c-2.4,8.8-4.8,15.9-7.2,23.1c-4,13.5-7.2,22.3-7.2,22.3
		s1.6-9.6,4.8-23.1c1.6-7.2,3.2-15.1,5.6-23.1c0.8-4,2.4-8.8,3.2-12.7c0.8-4,2.4-8.8,3.2-13.5c0.8-4.8,2.4-8.8,4-13.5
		c0.8-4,2.4-8.8,4-12.7c2.4-8.8,4.8-15.9,7.2-23.1C492.9,689.4,495.9,680.6,495.9,680.6z"/>
	<path fill="#E5096D" d="M404.6,733.9c0,0,9.6,1.6,23.1,4.8c7.2,1.6,15.1,3.2,23.1,5.6c4,0.8,8.8,2.4,12.7,3.2
		c3.9,0.8,8.8,2.4,13.5,3.2c4.8,0.8,8.8,2.4,13.5,4c4.8,1.6,8.8,2.4,12.7,4c8.8,2.4,15.9,4.8,23.1,7.2c13.5,4,22.3,7.2,22.3,7.2
		s-9.6-1.6-23.1-4.8c-7.2-1.6-15.1-3.2-23.1-5.6c-4-0.8-8.8-2.4-12.7-3.2c-3.9-0.8-8.8-2.4-13.5-3.2c-4.8-0.8-8.8-2.4-13.5-4
		c-4-0.8-8.8-2.4-12.7-4c-8.8-2.4-15.9-4.8-23.1-7.2C413.4,737.1,404.6,733.9,404.6,733.9z"/>
</g>
<path fill="#32B732" d="M572.7,644.7c0,0,0.6,12.7,1.8,30.7c0,9.1,0.6,19.9,0.6,31.9c0,6,0,12.1,0,18.1s0,12.7,0,18.7s0,12.7,0,18.7
	s0,12.1,0,18.1c0,11.5-0.6,23-1.2,31.9c-0.6,18.7-1.8,31.3-1.8,31.3s-0.6-12.7-1.8-30.7c0-9.1-0.6-19.9-0.6-31.9c0-6,0-12.1,0-18.1
	s0-12.7,0-18.7s0-12.7,0-18.7s0-12.1,0-18.1c0-11.5,0.6-23,1.2-31.9C572.1,657.3,572.7,644.7,572.7,644.7z"/>
<path fill="#E5096D" d="M613.7,710.1v60.4h35.7v8h-45.3v-68.4H613.7z"/>
<path fill="#32B732" d="M666.9,710.1v68.4h-8.8v-68.4H666.9z"/>
<path fill="#32B732" d="M770.2,710.2c1.6,0,3-0.1,4.6-0.1s3.2,0,4.8,0s3,0.4,4.8,0.8c1.6,0.4,2.4,0.8,4,1.6c2.4,1.6,4,3.2,5.6,5.6
	c1.6,2.4,2.4,5.6,2.4,8.8c0,4-0.8,6.4-2.4,9.6c-1.6,2.4-4,4.8-7.2,5.6l0,0c4,0.8,7.2,3.2,9.6,5.6c2.4,3.2,3.2,6.4,3.2,10.3
	c0,2.4-0.8,4.8-1.6,7.2s-2.4,4.8-4,6.4c-1.6,1.6-4,3.2-6.4,4.8c-2.4,0.8-5.6,1.6-8.8,1.6h-32.5v-67.8H770L770.2,710.2z M783.9,736.1
	c1-1.6,2.5-4.3,2.8-7.9c0.3-3.2-0.6-5.1-0.8-5.6c-0.8-1.6-1.6-2.4-3.2-3.2c-1.6-0.8-3.2-1.6-4.8-1.6s-4,0-5.6,0H754v21.5h18.3
	c4.4-0.1,5.5,0.6,9.3-1.6C782.5,737.2,783.3,736.8,783.9,736.1z M778.2,771c1.7-0.2,5.5-0.8,8.5-3.8c0.5-0.5,1.4-1.4,2.1-2.9
	c0.8-1.6,1.1-3.5,1.1-5.9c0-2.4-0.8-4-1.6-5.6c-0.4-0.7-0.7-1.3-1.3-1.9c-0.3-0.3-0.9-0.9-2-1.5c-1-0.6-2.2-1.1-4.3-1.5
	c-1.5-0.3-3.5-0.6-6-0.7h-20.7v23.9h23.1C777.5,771.1,777.9,771.1,778.2,771z"/>
<path fill="#E5096D" d="M703.4,710.2c1.6,0,3-0.1,4.6-0.1s3.2,0,4.8,0s3,0.4,4.8,0.8c1.6,0.4,2.4,0.8,4,1.6c2.4,1.6,4,3.2,5.6,5.6
	c1.6,2.4,2.4,5.6,2.4,8.8c0,4-0.8,6.4-2.4,9.6c-1.6,2.4-4,4.8-7.2,5.6l0,0c4,0.8,7.2,3.2,9.6,5.6c2.4,3.2,3.2,6.4,3.2,10.3
	c0,2.4-0.8,4.8-1.6,7.2s-2.4,4.8-4,6.4c-1.6,1.6-4,3.2-6.4,4.8c-2.4,0.8-5.6,1.6-8.8,1.6h-32.5v-67.8h23.7L703.4,710.2z
	 M717.1,736.1c1-1.6,2.5-4.3,2.8-7.9c0.3-3.2-0.6-5.1-0.8-5.6c-0.8-1.6-1.6-2.4-3.2-3.2c-1.6-0.8-3.2-1.6-4.8-1.6s-4,0-5.6,0h-18.3
	v21.5h18.3c4.4-0.1,5.5,0.6,9.3-1.6C715.7,737.2,716.5,736.8,717.1,736.1z M711.4,771c1.7-0.2,5.5-0.8,8.5-3.8
	c0.5-0.5,1.4-1.4,2.1-2.9c0.8-1.6,1.1-3.5,1.1-5.9c0-2.4-0.8-4-1.6-5.6c-0.4-0.7-0.7-1.3-1.3-1.9c-0.3-0.3-0.9-0.9-2-1.5
	c-1-0.6-2.2-1.1-4.3-1.5c-1.5-0.3-3.5-0.6-6-0.7h-20.7v23.9h23.1C710.7,771.1,711.1,771.1,711.4,771z"/>
<path fill="#E5096D" d="M840.9,777.6h-8.8v-27.9l-27-39.7h11.1l20.7,32.5l19.9-32.5H867l-26.3,40.5L840.9,777.6z"/>
<path fill="#32B732" d="M898.9,730.7c1.6-4,3.2-8,6.4-11.1c2.4-3.2,6.4-5.6,10.3-8c4-1.6,8.8-3.2,14.3-3.2c5.6,0,10.3,0.8,14.3,3.2
	c4,1.6,7.2,4.8,10.3,8c2.4,3.2,4.8,7.2,6.4,11.1c1.6,4,2.4,8.8,2.4,13.5s-0.8,8.8-2.4,13.5c-1.6,4-3.2,8-6.4,11.1
	c-2.4,3.2-6.4,5.6-10.3,8c-4,1.6-8.8,3.2-14.3,3.2c-5.6,0-10.3-0.8-14.3-3.2c-4-1.6-7.2-4.8-10.3-8c-2.4-3.2-4.8-7.2-6.4-11.1
	c-1.6-4-2.4-8.8-2.4-13.5S898.1,734.7,898.9,730.7z M907.7,753.8c0.8,3.2,2.4,6.4,4,8.8c1.6,2.4,4,4.8,7.2,6.4
	c3.2,1.6,6.4,2.4,10.3,2.4s8-0.8,10.3-2.4c3.2-1.6,5.6-4,7.2-6.4c1.6-2.4,3.2-5.6,4-8.8s1.6-6.4,1.6-10.3c0-3.2-0.8-7.2-1.6-10.3
	c-0.8-3.2-2.4-6.4-4-8.8c-1.6-2.4-4-4.8-7.2-6.4c-3.2-1.6-6.4-2.4-10.3-2.4s-8,0.8-10.3,2.4c-2.3,1.6-5.6,4-7.2,6.4
	c-1.6,2.4-3.2,5.6-4,8.8s-1.6,6.4-1.6,10.3C906.1,747.4,906.9,750.6,907.7,753.8z"/>
<path fill="#32B732" d="M984.7,710.1v10.3c0,1.6,0,4-0.8,5.6s-0.8,3.2-1.6,4.8s-1.6,2.4-3.2,3.2c-1.6,0.8-3.2,0.8-4.8,0.8V730
	c0.8,0,1.6,0,2.4-0.8c0.8-0.8,1.6-1.6,1.6-2.4c0.8-0.8,0.8-1.6,0.8-3.2c0-0.8,0-2.4,0-3.2h-5.6v-10.3L984.7,710.1L984.7,710.1z"/>
<path fill="#E5096D" d="M1012.6,710.1l21.5,57.2l21.5-57.2h12.7v68.4h-8.8V722l0,0l-21.5,56.4h-8l-21.5-56.4l0,0v56.4h-8.8V710
	L1012.6,710.1L1012.6,710.1z"/>
<path fill="#32B732" d="M1111.9,710.1l26.3,68.4h-10.4l-7.2-20.7H1092l-8,20.7h-8.8l26.3-68.4H1111.9z M1118.2,749.8l-11.1-31.7l0,0
	l-11.9,31.7H1118.2z"/>
<path fill="#E5096D" d="M1154,710.1v60.4h35.7v8h-45.3v-68.4H1154z"/>
<path fill="#32B732" d="M1207.3,710.1v60.4h35.7v8h-45.3v-68.4H1207.3z"/>
<path fill="#E5096D" d="M1297.8,710.1v8h-38.1v21.5h35.7v8h-35.7v23.9h38.1v8h-47.7v-69.3h47.7V710.1z"/>
<path fill="#32B732" d="M1337.5,777.6h-8.8v-27.9l-26.3-40.5h11.1l20.7,32.5l19.9-32.5h10.3l-27.1,40.5v27.9H1337.5z"/>
</svg>
