<?xml version="1.0" encoding="utf-8"?>
<!-- Generator: Adobe Illustrator 18.1.1, SVG Export Plug-In . SVG Version: 6.00 Build 0)  -->
<svg version="1.1" xmlns:x="&ns_extend;" xmlns:i="&ns_ai;" xmlns:graph="&ns_graphs;"
	 xmlns="http://www.w3.org/2000/svg" xmlns:xlink="http://www.w3.org/1999/xlink" x="0px" y="0px" viewBox="0 0 544.5 107.6"
	 style="enable-background:new 0 0 544.5 107.6;" xml:space="preserve">
<style type="text/css">
	.st0{fill:#E5096D;}
	.st1{fill:#16D316;}
</style>
<metadata>
	<sfw  xmlns="&ns_sfw;">
		<slices></slices>
		<sliceSourceBounds  height="107.6" width="544.5" bottomLeftOrigin="true" y="-333.6" x="442"></sliceSourceBounds>
		<optimizationSettings></optimizationSettings>
	</sfw>
</metadata>
<g id="Layer_1">
	<g id="Layer_18">
		<path class="st0" d="M18.8,19.7c0,0,3,4.3,6.8,10.7c2.1,3,4.3,6.8,6.8,11.1c1.3,2.1,2.6,4.3,3.9,6.4c1.3,2.1,2.6,4.3,3.9,6.4
			c1.3,2.1,2.6,4.3,3.9,6.4c1.3,2.1,2.6,4.3,3.5,6.4c2.1,4.3,4.3,8.2,6,11.1c3.5,6.8,5.5,11.1,5.5,11.1s-3-4.3-6.8-10.7
			c-2.1-3-4.3-6.8-6.8-11.1c-1.3-2.1-2.6-4.3-3.9-6.4c-1.3-2.1-2.6-4.3-3.9-6.4c-1.3-2.1-2.6-4.3-3.9-6.4c-1.3-2.1-2.6-4.3-3.5-6.4
			c-2.1-4.3-4.3-8.2-6-11.1C21,24,18.8,19.7,18.8,19.7z"/>
	</g>
	<g id="Layer_17">
		<path class="st0" d="M18.8,19.7c0,0,3,4.3,6.8,10.7c2.1,3,4.3,6.8,6.8,11.1c1.3,2.1,2.6,4.3,3.9,6.4c1.3,2.1,2.6,4.3,3.9,6.4
			c1.3,2.1,2.6,4.3,3.9,6.4c1.3,2.1,2.6,4.3,3.5,6.4c2.1,4.3,4.3,8.2,6,11.1c3.5,6.8,5.5,11.1,5.5,11.1s-3-4.3-6.8-10.7
			c-2.1-3-4.3-6.8-6.8-11.1c-1.3-2.1-2.6-4.3-3.9-6.4c-1.3-2.1-2.6-4.3-3.9-6.4c-1.3-2.1-2.6-4.3-3.9-6.4c-1.3-2.1-2.6-4.3-3.5-6.4
			c-2.1-4.3-4.3-8.2-6-11.1C21,24,18.8,19.7,18.8,19.7z"/>
		<path class="st0" d="M3.9,74.5c0,0,4.3-3,10.7-6.8c3-2.1,6.8-4.3,11.1-6.8c2.1-1.3,4.3-2.6,6.4-3.9c2.1-1.3,4.3-2.6,6.4-3.9
			c2.1-1.3,4.3-2.6,6.4-3.9c2.1-1.3,4.3-2.6,6.4-3.5c4.3-2.1,8.2-4.3,11.1-6c6.8-3.5,11.1-5.5,11.1-5.5s-4.3,3-10.7,6.8
			c-3,2.1-6.8,4.3-11.1,6.8c-2.1,1.3-4.3,2.6-6.4,3.9c-2.1,1.3-4.3,2.6-6.4,3.9c-2.1,1.3-4.3,2.6-6.4,3.9c-2.1,1.3-4.3,2.6-6.4,3.5
			c-4.3,2.1-8.2,4.3-11.1,6C8.6,72.4,3.9,74.5,3.9,74.5z"/>
	</g>
	<g id="Layer_16">
		<path class="st0" d="M18.8,19.7c0,0,3,4.3,6.8,10.7c2.1,3,4.3,6.8,6.8,11.1c1.3,2.1,2.6,4.3,3.9,6.4c1.3,2.1,2.6,4.3,3.9,6.4
			c1.3,2.1,2.6,4.3,3.9,6.4c1.3,2.1,2.6,4.3,3.5,6.4c2.1,4.3,4.3,8.2,6,11.1c3.5,6.8,5.5,11.1,5.5,11.1s-3-4.3-6.8-10.7
			c-2.1-3-4.3-6.8-6.8-11.1c-1.3-2.1-2.6-4.3-3.9-6.4c-1.3-2.1-2.6-4.3-3.9-6.4c-1.3-2.1-2.6-4.3-3.9-6.4c-1.3-2.1-2.6-4.3-3.5-6.4
			c-2.1-4.3-4.3-8.2-6-11.1C21,24,18.8,19.7,18.8,19.7z"/>
		<path class="st0" d="M3.9,74.5c0,0,4.3-3,10.7-6.8c3-2.1,6.8-4.3,11.1-6.8c2.1-1.3,4.3-2.6,6.4-3.9c2.1-1.3,4.3-2.6,6.4-3.9
			c2.1-1.3,4.3-2.6,6.4-3.9c2.1-1.3,4.3-2.6,6.4-3.5c4.3-2.1,8.2-4.3,11.1-6c6.8-3.5,11.1-5.5,11.1-5.5s-4.3,3-10.7,6.8
			c-3,2.1-6.8,4.3-11.1,6.8c-2.1,1.3-4.3,2.6-6.4,3.9c-2.1,1.3-4.3,2.6-6.4,3.9c-2.1,1.3-4.3,2.6-6.4,3.9c-2.1,1.3-4.3,2.6-6.4,3.5
			c-4.3,2.1-8.2,4.3-11.1,6C8.6,72.4,3.9,74.5,3.9,74.5z"/>
		<path class="st0" d="M49.3,15.4c0,0-0.9,5.2-2.6,12.5c-0.9,3.9-1.7,8.2-3,12.5c-0.4,2.1-1.3,4.7-1.7,6.8c-0.4,2.1-1.3,4.7-1.7,7.3
			c-0.4,2.6-1.3,4.7-2.1,7.3c-0.4,2.1-1.3,4.7-2.1,6.8c-1.3,4.7-2.6,8.6-3.9,12.5c-2.1,7.3-3.9,12-3.9,12s0.9-5.2,2.6-12.5
			c0.9-3.9,1.7-8.2,3-12.5c0.4-2.1,1.3-4.7,1.7-6.8c0.4-2.1,1.3-4.7,1.7-7.3c0.4-2.6,1.3-4.7,2.1-7.3c0.4-2.1,1.3-4.7,2.1-6.8
			c1.3-4.7,2.6-8.6,3.9-12.5C47.7,20.1,49.3,15.4,49.3,15.4z"/>
	</g>
	<g id="Layer_15">
		<path class="st0" d="M18.8,19.7c0,0,3,4.3,6.8,10.7c2.1,3,4.3,6.8,6.8,11.1c1.3,2.1,2.6,4.3,3.9,6.4c1.3,2.1,2.6,4.3,3.9,6.4
			c1.3,2.1,2.6,4.3,3.9,6.4c1.3,2.1,2.6,4.3,3.5,6.4c2.1,4.3,4.3,8.2,6,11.1c3.5,6.8,5.5,11.1,5.5,11.1s-3-4.3-6.8-10.7
			c-2.1-3-4.3-6.8-6.8-11.1c-1.3-2.1-2.6-4.3-3.9-6.4c-1.3-2.1-2.6-4.3-3.9-6.4c-1.3-2.1-2.6-4.3-3.9-6.4c-1.3-2.1-2.6-4.3-3.5-6.4
			c-2.1-4.3-4.3-8.2-6-11.1C21,24,18.8,19.7,18.8,19.7z"/>
		<path class="st0" d="M3.9,74.5c0,0,4.3-3,10.7-6.8c3-2.1,6.8-4.3,11.1-6.8c2.1-1.3,4.3-2.6,6.4-3.9c2.1-1.3,4.3-2.6,6.4-3.9
			c2.1-1.3,4.3-2.6,6.4-3.9c2.1-1.3,4.3-2.6,6.4-3.5c4.3-2.1,8.2-4.3,11.1-6c6.8-3.5,11.1-5.5,11.1-5.5s-4.3,3-10.7,6.8
			c-3,2.1-6.8,4.3-11.1,6.8c-2.1,1.3-4.3,2.6-6.4,3.9c-2.1,1.3-4.3,2.6-6.4,3.9c-2.1,1.3-4.3,2.6-6.4,3.9c-2.1,1.3-4.3,2.6-6.4,3.5
			c-4.3,2.1-8.2,4.3-11.1,6C8.6,72.4,3.9,74.5,3.9,74.5z"/>
		<path class="st0" d="M49.3,15.4c0,0-0.9,5.2-2.6,12.5c-0.9,3.9-1.7,8.2-3,12.5c-0.4,2.1-1.3,4.7-1.7,6.8c-0.4,2.1-1.3,4.7-1.7,7.3
			c-0.4,2.6-1.3,4.7-2.1,7.3c-0.4,2.1-1.3,4.7-2.1,6.8c-1.3,4.7-2.6,8.6-3.9,12.5c-2.1,7.3-3.9,12-3.9,12s0.9-5.2,2.6-12.5
			c0.9-3.9,1.7-8.2,3-12.5c0.4-2.1,1.3-4.7,1.7-6.8c0.4-2.1,1.3-4.7,1.7-7.3c0.4-2.6,1.3-4.7,2.1-7.3c0.4-2.1,1.3-4.7,2.1-6.8
			c1.3-4.7,2.6-8.6,3.9-12.5C47.7,20.1,49.3,15.4,49.3,15.4z"/>
		<path class="st0" d="M0,44.1c0,0,5.2,0.9,12.5,2.6c3.9,0.9,8.2,1.7,12.5,3c2.1,0.4,4.7,1.3,6.8,1.7c2.1,0.4,4.7,1.3,7.3,1.7
			c2.6,0.4,4.7,1.3,7.3,2.1c2.6,0.9,4.7,1.3,6.8,2.1c4.7,1.3,8.6,2.6,12.5,3.9c7.3,2.1,12,3.9,12,3.9s-5.2-0.9-12.5-2.6
			c-3.9-0.9-8.2-1.7-12.5-3c-2.1-0.4-4.7-1.3-6.8-1.7c-2.1-0.4-4.7-1.3-7.3-1.7c-2.6-0.4-4.7-1.3-7.3-2.1c-2.1-0.4-4.7-1.3-6.8-2.1
			c-4.7-1.3-8.6-2.6-12.5-3.9C4.7,45.8,0,44.1,0,44.1z"/>
	</g>
	<g id="Layer_14">
		<path class="st0" d="M18.8,19.7c0,0,3,4.3,6.8,10.7c2.1,3,4.3,6.8,6.8,11.1c1.3,2.1,2.6,4.3,3.9,6.4c1.3,2.1,2.6,4.3,3.9,6.4
			c1.3,2.1,2.6,4.3,3.9,6.4c1.3,2.1,2.6,4.3,3.5,6.4c2.1,4.3,4.3,8.2,6,11.1c3.5,6.8,5.5,11.1,5.5,11.1s-3-4.3-6.8-10.7
			c-2.1-3-4.3-6.8-6.8-11.1c-1.3-2.1-2.6-4.3-3.9-6.4c-1.3-2.1-2.6-4.3-3.9-6.4c-1.3-2.1-2.6-4.3-3.9-6.4c-1.3-2.1-2.6-4.3-3.5-6.4
			c-2.1-4.3-4.3-8.2-6-11.1C21,24,18.8,19.7,18.8,19.7z"/>
		<path class="st0" d="M3.9,74.5c0,0,4.3-3,10.7-6.8c3-2.1,6.8-4.3,11.1-6.8c2.1-1.3,4.3-2.6,6.4-3.9c2.1-1.3,4.3-2.6,6.4-3.9
			c2.1-1.3,4.3-2.6,6.4-3.9c2.1-1.3,4.3-2.6,6.4-3.5c4.3-2.1,8.2-4.3,11.1-6c6.8-3.5,11.1-5.5,11.1-5.5s-4.3,3-10.7,6.8
			c-3,2.1-6.8,4.3-11.1,6.8c-2.1,1.3-4.3,2.6-6.4,3.9c-2.1,1.3-4.3,2.6-6.4,3.9c-2.1,1.3-4.3,2.6-6.4,3.9c-2.1,1.3-4.3,2.6-6.4,3.5
			c-4.3,2.1-8.2,4.3-11.1,6C8.6,72.4,3.9,74.5,3.9,74.5z"/>
		<path class="st0" d="M49.3,15.4c0,0-0.9,5.2-2.6,12.5c-0.9,3.9-1.7,8.2-3,12.5c-0.4,2.1-1.3,4.7-1.7,6.8c-0.4,2.1-1.3,4.7-1.7,7.3
			c-0.4,2.6-1.3,4.7-2.1,7.3c-0.4,2.1-1.3,4.7-2.1,6.8c-1.3,4.7-2.6,8.6-3.9,12.5c-2.1,7.3-3.9,12-3.9,12s0.9-5.2,2.6-12.5
			c0.9-3.9,1.7-8.2,3-12.5c0.4-2.1,1.3-4.7,1.7-6.8c0.4-2.1,1.3-4.7,1.7-7.3c0.4-2.6,1.3-4.7,2.1-7.3c0.4-2.1,1.3-4.7,2.1-6.8
			c1.3-4.7,2.6-8.6,3.9-12.5C47.7,20.1,49.3,15.4,49.3,15.4z"/>
		<path class="st0" d="M0,44.1c0,0,5.2,0.9,12.5,2.6c3.9,0.9,8.2,1.7,12.5,3c2.1,0.4,4.7,1.3,6.8,1.7c2.1,0.4,4.7,1.3,7.3,1.7
			c2.6,0.4,4.7,1.3,7.3,2.1c2.6,0.9,4.7,1.3,6.8,2.1c4.7,1.3,8.6,2.6,12.5,3.9c7.3,2.1,12,3.9,12,3.9s-5.2-0.9-12.5-2.6
			c-3.9-0.9-8.2-1.7-12.5-3c-2.1-0.4-4.7-1.3-6.8-1.7c-2.1-0.4-4.7-1.3-7.3-1.7c-2.6-0.4-4.7-1.3-7.3-2.1c-2.1-0.4-4.7-1.3-6.8-2.1
			c-4.7-1.3-8.6-2.6-12.5-3.9C4.7,45.8,0,44.1,0,44.1z"/>
		<path class="st1" d="M88.1,0c0,0,0.3,6.8,1,16.5c0,4.9,0.3,10.7,0.3,17.2c0,3.3,0,6.5,0,9.8s0,6.8,0,10.1s0,6.8,0,10.1
			c0,3.3,0,6.5,0,9.8c0,6.2-0.3,12.4-0.6,17.2c-0.3,10.1-1,16.9-1,16.9s-0.3-6.8-1-16.5c0-4.9-0.3-10.7-0.3-17.2c0-3.3,0-6.5,0-9.8
			c0-3.3,0-6.8,0-10.1c0-3.3,0-6.8,0-10.1s0-6.5,0-9.8c0-6.2,0.3-12.4,0.6-17.2C87.7,6.9,88.1,0,88.1,0z"/>
	</g>
</g>
<g id="LN">
	<path class="st0" d="M108.2,35.3v32.6h19.3v4.3h-24.4V35.3H108.2L108.2,35.3z"/>
</g>
<g id="I">
	<path class="st1" d="M138.9,35.3v36.9h-4.8V35.3H138.9z"/>
</g>
<g id="B1">
	<path class="st0" d="M161.6,36.3c0.9,0,1.6-0.1,2.5-0.1c0.9,0,1.7,0,2.6,0c0.9,0,1.6,0.2,2.6,0.4c0.9,0.2,1.3,0.4,2.1,0.9
		c1.3,0.9,2.1,1.7,3,3c0.9,1.3,1.3,3,1.3,4.7c0,2.1-0.4,3.5-1.3,5.2c-0.9,1.3-2.1,2.6-3.9,3l0,0c2.1,0.4,3.9,1.7,5.2,3
		c1.3,1.7,1.7,3.5,1.7,5.5c0,1.3-0.4,2.6-0.9,3.9c-0.4,1.3-1.3,2.6-2.1,3.5c-0.8,0.9-2.1,1.7-3.5,2.6c-1.3,0.4-3,0.9-4.7,0.9h-17.5
		V36.3h12.8H161.6z M169,50.3c0.5-0.9,1.3-2.3,1.5-4.3c0.2-1.7-0.3-2.8-0.4-3c-0.4-0.9-0.9-1.3-1.7-1.7c-0.9-0.4-1.7-0.9-2.6-0.9
		c-0.9,0-2.1,0-3,0h-9.9V52h9.9c2.3-0.1,3,0.3,5-0.9C168.2,50.9,168.7,50.7,169,50.3z M165.9,69.1c0.9-0.1,3-0.4,4.6-2
		c0.3-0.3,0.7-0.7,1.1-1.5c0.4-0.9,0.6-1.9,0.6-3.2c0-1.3-0.4-2.1-0.9-3c-0.2-0.4-0.4-0.7-0.7-1c-0.2-0.2-0.5-0.5-1.1-0.8
		c-0.5-0.3-1.2-0.6-2.3-0.8c-0.8-0.2-1.9-0.3-3.3-0.4h-11.1v12.9h12.5C165.5,69.2,165.7,69.2,165.9,69.1z"/>
</g>
<g id="B2">
	<path class="st1" d="M197.6,36.3c0.9,0,1.6-0.1,2.5-0.1c0.9,0,1.7,0,2.6,0c0.9,0,1.6,0.2,2.6,0.4c0.9,0.2,1.3,0.4,2.1,0.9
		c1.3,0.9,2.1,1.7,3,3c0.9,1.3,1.3,3,1.3,4.7c0,2.1-0.4,3.5-1.3,5.2c-0.9,1.3-2.1,2.6-3.9,3l0,0c2.1,0.4,3.9,1.7,5.2,3
		c1.3,1.7,1.7,3.5,1.7,5.5c0,1.3-0.4,2.6-0.9,3.9c-0.4,1.3-1.3,2.6-2.1,3.5c-0.8,0.9-2.1,1.7-3.5,2.6c-1.3,0.4-3,0.9-4.7,0.9h-17.5
		V36.3h12.8H197.6z M205,50.3c0.5-0.9,1.3-2.3,1.5-4.3c0.2-1.7-0.3-2.8-0.4-3c-0.4-0.9-0.9-1.3-1.7-1.7c-0.9-0.4-1.7-0.9-2.6-0.9
		c-0.9,0-2.1,0-3,0h-9.9V52h9.9c2.3-0.1,3,0.3,5-0.9C204.2,50.9,204.7,50.7,205,50.3z M201.9,69.1c0.9-0.1,3-0.4,4.6-2
		c0.3-0.3,0.7-0.7,1.1-1.5c0.4-0.9,0.6-1.9,0.6-3.2c0-1.3-0.4-2.1-0.9-3c-0.2-0.4-0.4-0.7-0.7-1c-0.2-0.2-0.5-0.5-1.1-0.8
		c-0.5-0.3-1.2-0.6-2.3-0.8c-0.8-0.2-1.9-0.3-3.3-0.4h-11.1v12.9h12.5C201.5,69.2,201.7,69.2,201.9,69.1z"/>
</g>
<g id="YN">
	<path class="st0" d="M232.7,72.7H228v-15l-14.6-21.4h6l11.1,17.5l10.7-17.5h5.5l-14.2,21.8L232.7,72.7z"/>
</g>
<g id="O">
	<path class="st1" d="M271.1,46.4c0.9-2.1,1.7-4.3,3.5-6c1.3-1.7,3.5-3,5.5-4.3c2.1-0.9,4.7-1.7,7.7-1.7s5.5,0.4,7.7,1.7
		c2.1,0.9,3.9,2.6,5.5,4.3c1.3,1.7,2.6,3.9,3.5,6c0.9,2.1,1.3,4.7,1.3,7.3c0,2.5-0.4,4.7-1.3,7.3c-0.9,2.1-1.7,4.3-3.5,6
		c-1.3,1.7-3.5,3-5.5,4.3c-2.1,0.9-4.7,1.7-7.7,1.7s-5.5-0.4-7.7-1.7c-2.1-0.9-3.9-2.6-5.5-4.3c-1.3-1.7-2.6-3.9-3.5-6
		c-0.9-2.1-1.3-4.7-1.3-7.3C269.8,51.2,270.6,48.6,271.1,46.4z M275.8,58.9c0.4,1.7,1.3,3.5,2.1,4.7s2.1,2.6,3.9,3.5
		c1.7,0.9,3.5,1.3,5.5,1.3s4.3-0.4,5.5-1.3c1.7-0.9,3-2.1,3.9-3.5c0.9-1.3,1.7-3,2.1-4.7c0.4-1.7,0.9-3.5,0.9-5.5
		c0-1.7-0.4-3.9-0.9-5.5c-0.4-1.7-1.3-3.5-2.1-4.7c-0.9-1.3-2.1-2.6-3.9-3.5c-1.7-0.9-3.5-1.3-5.5-1.3s-4.3,0.4-5.5,1.3
		c-1.2,0.9-3,2.1-3.9,3.5c-0.9,1.3-1.7,3-2.1,4.7c-0.4,1.7-0.9,3.5-0.9,5.5C275,55.4,275.4,57.2,275.8,58.9z"/>
	<path class="st1" d="M315.4,35.3v5.5c0,0.9,0,2.1-0.4,3s-0.4,1.7-0.9,2.6c-0.4,0.9-0.9,1.3-1.7,1.7c-0.8,0.4-1.7,0.4-2.6,0.4v-2.6
		c0.4,0,0.9,0,1.3-0.4c0.4-0.4,0.9-0.9,0.9-1.3c0.4-0.4,0.4-0.9,0.4-1.7c0-0.4,0-1.3,0-1.7h-3v-5.5H315.4L315.4,35.3z"/>
</g>
<g id="M">
	<path class="st0" d="M330.4,35.3L342,66.1l11.6-30.8h6.8v36.9h-4.7V41.7l0,0l-11.6,30.4h-4.3l-11.6-30.4l0,0v30.4h-4.7V35.2
		L330.4,35.3L330.4,35.3z"/>
</g>
<g id="A">
	<path class="st1" d="M389.9,35.3l14.2,36.9h-5.5l-3.9-11.1h-15.4L375,72.2h-4.8l14.2-36.9H389.9z M393.3,56.7l-6-17.1l0,0
		l-6.4,17.1H393.3z"/>
</g>
<g id="L1">
	<path class="st0" d="M417.1,35.3V68h19.3v4.3H412V35.3H417.1L417.1,35.3z"/>
</g>
<g id="L2">
	<path class="st1" d="M449.9,35.6v32.6h19.3v4.3h-24.5V35.6H449.9L449.9,35.6z"/>
</g>
<g id="E">
	<path class="st0" d="M503.1,35v4.3h-20.5v11.6h19.3v4.3h-19.3v12.9h20.5v4.3h-25.7V35L503.1,35L503.1,35z"/>
</g>
<g id="Y">
	<path class="st1" d="M530.1,72.4h-4.7V57.2L511.2,35h6l11.1,17.8L539,35h5.5l-14.6,22.2v15.3H530.1z"/>
</g>
</svg>
