<?xml version="1.0" encoding="utf-8"?>
<!-- Generator: Adobe Illustrator 18.1.1, SVG Export Plug-In . SVG Version: 6.00 Build 0)  -->
<svg version="1.1" id="Layer_1" xmlns="http://www.w3.org/2000/svg" xmlns:xlink="http://www.w3.org/1999/xlink" x="0px" y="0px"
	 viewBox="415.6 202 186.8 308.4" enable-background="new 415.6 202 186.8 308.4" xml:space="preserve">
<g>
	<path fill="#8E8A8B" d="M490.5,371.5c0,0,3.1,4.6,7.6,11.6c2.2,3.5,4.8,7.6,7.4,12c1.3,2.2,2.7,4.5,4.1,6.9
		c1.4,2.4,2.7,4.8,4.1,7.1c1.4,2.4,2.7,4.8,4.1,7.1c1.3,2.4,2.7,4.7,3.9,7c2.5,4.5,4.8,8.8,6.7,12.5c3.8,7.4,6.2,12.3,6.2,12.3
		s-3.1-4.5-7.6-11.5c-2.2-3.5-4.8-7.6-7.4-12c-1.3-2.2-2.7-4.5-4.1-6.9c-1.4-2.4-2.7-4.8-4.1-7.1c-1.4-2.4-2.7-4.8-4.1-7.1
		c-1.3-2.4-2.7-4.7-3.9-7c-2.5-4.5-4.8-8.8-6.7-12.5C492.9,376.5,490.5,371.5,490.5,371.5z"/>
	<path fill="#8E8A8B" d="M474.4,431.9c0,0,4.5-3.2,11.5-7.6c3.5-2.2,7.6-4.8,12-7.4c2.2-1.3,4.5-2.7,6.9-4.1
		c2.4-1.4,4.8-2.8,7.1-4.1c2.4-1.3,4.8-2.7,7.1-4.1c2.4-1.3,4.7-2.7,7-3.9c4.5-2.5,8.8-4.8,12.5-6.7c7.3-3.9,12.3-6.2,12.3-6.2
		s-4.5,3.1-11.5,7.6c-3.5,2.2-7.6,4.8-12,7.4c-2.2,1.3-4.5,2.7-6.9,4.1c-2.3,1.4-4.8,2.8-7.1,4.1c-2.4,1.4-4.8,2.7-7.1,4.1
		c-2.4,1.3-4.7,2.7-7,3.9c-4.6,2.5-8.8,4.8-12.5,6.7C479.4,429.5,474.4,431.9,474.4,431.9z"/>
	<path fill="#8E8A8B" d="M524.1,367.1c0,0-1,5.5-2.8,13.5c-0.9,4.1-2,8.8-3.3,13.8c-0.6,2.5-1.3,5.1-2,7.8c-0.7,2.7-1.4,5.3-2.1,8
		c-0.7,2.7-1.5,5.3-2.2,8c-0.7,2.6-1.5,5.2-2.2,7.7c-1.4,5-2.8,9.6-4.1,13.6c-2.5,7.9-4.3,13.2-4.3,13.2s1-5.5,2.8-13.5
		c0.9-4.1,2-8.8,3.3-13.8c0.6-2.5,1.3-5.1,2-7.8c0.7-2.7,1.4-5.3,2.1-8c0.7-2.7,1.5-5.3,2.2-8c0.7-2.6,1.5-5.2,2.2-7.7
		c1.5-5,2.8-9.6,4.1-13.6C522.2,372.3,524.1,367.1,524.1,367.1z"/>
	<path fill="#8E8A8B" d="M470,398.4c0,0,5.5,1,13.5,2.8c4.1,0.9,8.8,2,13.8,3.3c2.5,0.6,5.1,1.3,7.8,2c2.7,0.7,5.3,1.4,8,2.1
		c2.7,0.7,5.3,1.5,8,2.2c2.7,0.7,5.2,1.5,7.7,2.2c5,1.4,9.6,2.8,13.6,4.1c7.9,2.5,13.2,4.3,13.2,4.3s-5.5-1-13.5-2.8
		c-4.1-0.9-8.8-2-13.8-3.3c-2.5-0.6-5.1-1.3-7.8-2c-2.7-0.7-5.3-1.4-8-2.1c-2.7-0.7-5.3-1.5-8-2.2c-2.6-0.7-5.2-1.5-7.7-2.2
		c-5-1.4-9.6-2.8-13.6-4.1C475.1,400.2,470,398.4,470,398.4z"/>
</g>
<g>
	<path fill="#B2B7AE" d="M507.3,208.4c0,0,4.5,6.5,10.8,16.5c3.2,5,6.8,10.9,10.6,17.2c1.9,3.2,3.9,6.4,5.8,9.8
		c2,3.4,3.9,6.8,5.9,10.2c2,3.4,3.9,6.9,5.8,10.2c1.9,3.4,3.8,6.7,5.6,10c3.6,6.5,6.8,12.5,9.6,17.8c5.5,10.5,8.9,17.6,8.9,17.6
		s-4.5-6.5-10.8-16.5c-3.2-5-6.8-10.9-10.6-17.2c-1.9-3.2-3.9-6.4-5.8-9.8c-2-3.4-3.9-6.8-5.9-10.2c-2-3.4-3.9-6.8-5.8-10.2
		c-1.9-3.4-3.8-6.7-5.6-10c-3.6-6.5-6.8-12.6-9.6-17.8C510.6,215.5,507.3,208.4,507.3,208.4z"/>
	<path fill="#B2B7AE" d="M484.2,294.6c0,0,6.5-4.5,16.5-10.8c5-3.2,10.9-6.8,17.2-10.6c3.2-1.9,6.4-3.9,9.8-5.8
		c3.4-2,6.8-4,10.2-5.9c3.4-1.9,6.9-3.9,10.2-5.8c3.4-1.9,6.7-3.8,10-5.6c6.5-3.6,12.5-6.8,17.8-9.6c10.5-5.5,17.6-8.9,17.6-8.9
		s-6.5,4.5-16.5,10.8c-5,3.2-10.9,6.8-17.2,10.6c-3.2,1.9-6.4,3.9-9.8,5.8c-3.3,2-6.8,4-10.2,5.9c-3.4,2-6.9,3.9-10.2,5.8
		c-3.4,1.9-6.7,3.8-10,5.6c-6.5,3.6-12.6,6.8-17.8,9.6C491.3,291.2,484.2,294.6,484.2,294.6z"/>
	<path fill="#B2B7AE" d="M555.2,202c0,0-1.4,7.8-4,19.3c-1.3,5.8-2.9,12.5-4.7,19.7c-0.9,3.6-1.8,7.3-2.8,11.1c-1,3.8-2,7.6-3,11.4
		s-2.1,7.6-3.1,11.4c-1,3.7-2.1,7.4-3.1,11c-2,7.1-4,13.7-5.8,19.4c-3.5,11.3-6.2,18.8-6.2,18.8s1.4-7.8,4-19.3
		c1.3-5.8,2.9-12.5,4.7-19.7c0.9-3.6,1.8-7.3,2.8-11.1c1-3.8,2-7.6,3-11.4s2.1-7.6,3.1-11.4c1-3.7,2.1-7.4,3.1-11
		c2.1-7.1,4-13.7,5.8-19.4C552.5,209.5,555.2,202,555.2,202z"/>
	<path fill="#B2B7AE" d="M477.9,246.7c0,0,7.8,1.4,19.3,4c5.8,1.3,12.5,2.9,19.7,4.7c3.6,0.9,7.3,1.8,11.1,2.8c3.8,1,7.6,2,11.4,3
		s7.6,2.1,11.4,3.1c3.7,1,7.4,2.1,11,3.1c7.1,2,13.7,4,19.4,5.8c11.3,3.5,18.8,6.2,18.8,6.2s-7.8-1.4-19.3-4
		c-5.8-1.3-12.5-2.9-19.7-4.7c-3.6-0.9-7.3-1.8-11.1-2.8c-3.8-1-7.6-2-11.4-3s-7.6-2.1-11.4-3.1c-3.7-1-7.4-2.1-11-3.1
		c-7.1-2-13.7-4-19.4-5.8C485.3,249.3,477.9,246.7,477.9,246.7z"/>
</g>
<g>
	<path fill="#8E8A8B" d="M509.7,208.4c0,0,4.5,6.5,10.8,16.5c3.2,5,6.8,10.9,10.6,17.2c1.9,3.2,3.9,6.4,5.8,9.8
		c2,3.4,3.9,6.8,5.9,10.2c2,3.4,3.9,6.9,5.8,10.2c1.9,3.4,3.8,6.7,5.6,10c3.6,6.5,6.8,12.5,9.6,17.8c5.5,10.5,8.9,17.6,8.9,17.6
		s-4.5-6.5-10.8-16.5c-3.2-5-6.8-10.9-10.6-17.2c-1.9-3.2-3.9-6.4-5.8-9.8c-2-3.4-3.9-6.8-5.9-10.2c-2-3.4-3.9-6.8-5.8-10.2
		c-1.9-3.4-3.8-6.7-5.6-10c-3.6-6.5-6.8-12.6-9.6-17.8C513.1,215.5,509.7,208.4,509.7,208.4z"/>
	<path fill="#8E8A8B" d="M486.6,294.6c0,0,6.5-4.5,16.5-10.8c5-3.2,10.9-6.8,17.2-10.6c3.2-1.9,6.4-3.9,9.8-5.8
		c3.4-2,6.8-4,10.2-5.9s6.9-3.9,10.2-5.8c3.4-1.9,6.7-3.8,10-5.6c6.5-3.6,12.5-6.8,17.8-9.6c10.5-5.5,17.6-8.9,17.6-8.9
		s-6.5,4.5-16.5,10.8c-5,3.2-10.9,6.8-17.2,10.6c-3.2,1.9-6.4,3.9-9.8,5.8c-3.3,2-6.8,4-10.2,5.9c-3.4,2-6.9,3.9-10.2,5.8
		c-3.4,1.9-6.7,3.8-10,5.6c-6.5,3.6-12.6,6.8-17.8,9.6C493.8,291.2,486.6,294.6,486.6,294.6z"/>
	<path fill="#8E8A8B" d="M557.6,202c0,0-1.4,7.8-4,19.3c-1.3,5.8-2.9,12.5-4.7,19.7c-0.9,3.6-1.8,7.3-2.8,11.1c-1,3.8-2,7.6-3,11.4
		s-2.1,7.6-3.1,11.4c-1,3.7-2.1,7.4-3.1,11c-2,7.1-4,13.7-5.8,19.4c-3.5,11.3-6.2,18.8-6.2,18.8s1.4-7.8,4-19.3
		c1.3-5.8,2.9-12.5,4.7-19.7c0.9-3.6,1.8-7.3,2.8-11.1c1-3.8,2-7.6,3-11.4s2.1-7.6,3.1-11.4c1-3.7,2.1-7.4,3.1-11
		c2.1-7.1,4-13.7,5.8-19.4C554.9,209.5,557.6,202,557.6,202z"/>
	<path fill="#8E8A8B" d="M480.3,246.7c0,0,7.8,1.4,19.3,4c5.8,1.3,12.5,2.9,19.7,4.7c3.6,0.9,7.3,1.8,11.1,2.8s7.6,2,11.4,3
		s7.6,2.1,11.4,3.1s7.4,2.1,11,3.1c7.1,2,13.7,4,19.4,5.8c11.3,3.5,18.8,6.2,18.8,6.2s-7.8-1.4-19.3-4c-5.8-1.3-12.5-2.9-19.7-4.7
		c-3.6-0.9-7.3-1.8-11.1-2.8c-3.8-1-7.6-2-11.4-3s-7.6-2.1-11.4-3.1c-3.7-1-7.4-2.1-11-3.1c-7.1-2-13.7-4-19.4-5.8
		C487.7,249.3,480.3,246.7,480.3,246.7z"/>
</g>
<g>
	<path fill="#B2B7AE" d="M488.9,371.5c0,0,3.1,4.6,7.6,11.6c2.2,3.5,4.8,7.6,7.4,12c1.3,2.2,2.7,4.5,4.1,6.9
		c1.4,2.4,2.7,4.8,4.1,7.1c1.4,2.4,2.7,4.8,4.1,7.1c1.3,2.4,2.7,4.7,3.9,7c2.5,4.5,4.8,8.8,6.7,12.5c3.9,7.4,6.2,12.3,6.2,12.3
		s-3.1-4.5-7.6-11.5c-2.2-3.5-4.8-7.6-7.4-12c-1.3-2.2-2.7-4.5-4.1-6.9c-1.4-2.4-2.7-4.8-4.1-7.1s-2.7-4.8-4.1-7.1
		c-1.3-2.4-2.7-4.7-3.9-7c-2.5-4.5-4.8-8.8-6.7-12.5C491.2,376.5,488.9,371.5,488.9,371.5z"/>
	<path fill="#B2B7AE" d="M472.7,431.9c0,0,4.5-3.2,11.5-7.6c3.5-2.2,7.6-4.8,12-7.4c2.2-1.3,4.5-2.7,6.9-4.1
		c2.4-1.4,4.8-2.8,7.1-4.1c2.4-1.3,4.8-2.7,7.1-4.1c2.4-1.3,4.7-2.7,7-3.9c4.5-2.5,8.8-4.8,12.5-6.7c7.4-3.9,12.3-6.2,12.3-6.2
		s-4.5,3.1-11.5,7.6c-3.5,2.2-7.6,4.8-12,7.4c-2.2,1.3-4.5,2.7-6.9,4.1c-2.3,1.4-4.8,2.8-7.1,4.1c-2.4,1.4-4.8,2.7-7.1,4.1
		c-2.4,1.3-4.7,2.7-7,3.9c-4.5,2.5-8.8,4.8-12.5,6.7C477.6,429.5,472.7,431.9,472.7,431.9z"/>
	<path fill="#B2B7AE" d="M522.4,367.1c0,0-1,5.5-2.8,13.5c-0.9,4.1-2,8.8-3.3,13.8c-0.6,2.5-1.3,5.1-2,7.8c-0.7,2.7-1.4,5.3-2.1,8
		c-0.7,2.7-1.5,5.3-2.2,8c-0.7,2.6-1.5,5.2-2.2,7.7c-1.4,5-2.8,9.6-4.1,13.6c-2.5,7.9-4.3,13.2-4.3,13.2s1-5.5,2.8-13.5
		c0.9-4.1,2-8.8,3.3-13.8c0.6-2.5,1.3-5.1,2-7.8c0.7-2.7,1.4-5.3,2.1-8c0.7-2.7,1.5-5.3,2.2-8c0.7-2.6,1.5-5.2,2.2-7.7
		c1.5-5,2.8-9.6,4.1-13.6C520.5,372.3,522.4,367.1,522.4,367.1z"/>
	<path fill="#B2B7AE" d="M468.3,398.4c0,0,5.5,1,13.5,2.8c4.1,0.9,8.8,2,13.8,3.3c2.5,0.6,5.1,1.3,7.8,2c2.7,0.7,5.3,1.4,8,2.1
		c2.7,0.7,5.3,1.5,8,2.2c2.6,0.7,5.2,1.5,7.7,2.2c5,1.4,9.6,2.8,13.6,4.1c7.9,2.5,13.2,4.3,13.2,4.3s-5.5-1-13.5-2.8
		c-4.1-0.9-8.8-2-13.8-3.3c-2.5-0.6-5.1-1.3-7.8-2c-2.7-0.7-5.3-1.4-8-2.1c-2.7-0.7-5.3-1.5-8-2.2c-2.6-0.7-5.2-1.5-7.7-2.2
		c-5-1.4-9.6-2.8-13.6-4.1C473.5,400.2,468.3,398.4,468.3,398.4z"/>
</g>
<g>
	<path fill="#B2B7AE" d="M553.9,320.1c0,0,2.2,3.2,5.4,8.2c1.6,2.5,3.4,5.5,5.3,8.6c1,1.6,2,3.2,2.9,4.9c1,1.7,1.9,3.4,2.9,5.1
		c1,1.7,2,3.4,2.9,5.1c1,1.7,1.9,3.4,2.8,5c1.8,3.2,3.4,6.2,4.8,8.9c2.8,5.2,4.5,8.8,4.5,8.8s-2.2-3.2-5.4-8.2
		c-1.6-2.5-3.4-5.5-5.3-8.6c-0.9-1.6-1.9-3.2-2.9-4.9c-1-1.7-2-3.4-3-5.1c-1-1.7-2-3.4-2.9-5.1c-1-1.7-1.9-3.4-2.8-5
		c-1.8-3.2-3.4-6.3-4.8-8.9C555.5,323.6,553.9,320.1,553.9,320.1z"/>
	<path fill="#B2B7AE" d="M542.3,363.2c0,0,3.2-2.2,8.2-5.4c2.5-1.6,5.5-3.4,8.6-5.3c1.6-1,3.2-2,4.9-2.9c1.7-1,3.4-2,5.1-2.9
		c1.7-1,3.5-2,5.1-2.9c1.7-0.9,3.4-1.9,5-2.8c3.2-1.8,6.2-3.4,8.9-4.8c5.2-2.8,8.8-4.5,8.8-4.5s-3.2,2.2-8.2,5.4
		c-2.5,1.6-5.5,3.4-8.6,5.3c-1.6,0.9-3.2,1.9-4.9,2.9c-1.7,1-3.4,2-5.1,3c-1.7,1-3.4,2-5.1,2.9c-1.7,0.9-3.4,1.9-5,2.8
		c-3.2,1.8-6.3,3.4-8.9,4.8C545.9,361.5,542.3,363.2,542.3,363.2z"/>
	<path fill="#B2B7AE" d="M577.8,316.9c0,0-0.7,3.9-2,9.6c-0.6,2.9-1.4,6.2-2.3,9.9c-0.5,1.8-0.9,3.6-1.4,5.6c-0.5,1.9-1,3.8-1.5,5.7
		s-1,3.8-1.5,5.7c-0.5,1.9-1,3.7-1.5,5.5c-1,3.6-2,6.9-2.9,9.7c-1.8,5.6-3.1,9.4-3.1,9.4s0.7-3.9,2-9.6c0.6-2.9,1.5-6.2,2.3-9.9
		c0.5-1.8,0.9-3.6,1.4-5.6c0.5-1.9,1-3.8,1.5-5.7s1-3.8,1.5-5.7c0.5-1.9,1-3.7,1.5-5.5c1.1-3.6,2-6.9,2.9-9.7
		C576.5,320.6,577.8,316.9,577.8,316.9z"/>
	<path fill="#B2B7AE" d="M539.2,339.2c0,0,3.9,0.7,9.6,2c2.9,0.6,6.2,1.5,9.9,2.4c1.8,0.4,3.6,0.9,5.5,1.4c1.9,0.5,3.8,1,5.7,1.5
		c1.9,0.5,3.8,1,5.7,1.5c1.9,0.5,3.7,1.1,5.5,1.6c3.6,1,6.9,2,9.7,2.9c5.7,1.8,9.4,3.1,9.4,3.1s-3.9-0.7-9.7-2
		c-2.9-0.6-6.2-1.4-9.8-2.4c-1.8-0.5-3.7-0.9-5.5-1.4c-1.9-0.5-3.8-1-5.7-1.5c-1.9-0.5-3.8-1.1-5.7-1.6c-1.8-0.5-3.7-1-5.5-1.5
		c-3.5-1-6.8-2-9.7-2.9C542.9,340.5,539.2,339.2,539.2,339.2z"/>
</g>
<g>
	<path fill="#B2B7AE" d="M454.9,454.6c0,0,2.2,3.2,5.4,8.2c1.6,2.5,3.4,5.5,5.3,8.6c1,1.6,2,3.2,2.9,4.9c1,1.7,2,3.4,3,5.1
		c1,1.7,1.9,3.4,2.9,5.1c0.9,1.7,1.9,3.4,2.8,5c1.8,3.2,3.4,6.2,4.8,8.9c2.8,5.2,4.4,8.8,4.4,8.8s-2.2-3.2-5.4-8.2
		c-1.6-2.5-3.4-5.5-5.3-8.6c-1-1.6-2-3.2-2.9-4.9c-1-1.7-2-3.4-3-5.1c-1-1.7-1.9-3.4-2.9-5.1c-0.9-1.7-1.9-3.4-2.8-5
		c-1.8-3.2-3.4-6.3-4.8-8.9C456.5,458.1,454.9,454.6,454.9,454.6z"/>
	<path fill="#B2B7AE" d="M443.4,497.7c0,0,3.2-2.2,8.2-5.4c2.5-1.6,5.4-3.4,8.6-5.3c1.6-1,3.2-2,4.9-2.9c1.7-1,3.4-2,5.1-2.9
		c1.7-1,3.4-2,5.1-2.9c1.7-0.9,3.4-1.9,5-2.8c3.2-1.8,6.2-3.4,8.9-4.8c5.2-2.8,8.8-4.5,8.8-4.5s-3.2,2.2-8.2,5.4
		c-2.5,1.6-5.5,3.4-8.6,5.3c-1.6,0.9-3.2,1.9-4.9,2.9c-1.6,1-3.4,2-5.1,3c-1.7,1-3.5,2-5.1,2.9c-1.7,0.9-3.4,1.9-5,2.8
		c-3.2,1.8-6.3,3.4-8.9,4.8C446.9,496,443.4,497.7,443.4,497.7z"/>
	<path fill="#B2B7AE" d="M478.9,451.4c0,0-0.7,3.9-2,9.6c-0.6,2.9-1.5,6.2-2.4,9.9c-0.5,1.8-0.9,3.6-1.4,5.6c-0.5,1.9-1,3.8-1.5,5.7
		s-1.1,3.8-1.6,5.7c-0.5,1.9-1,3.7-1.5,5.5c-1,3.6-2,6.9-2.9,9.7c-1.8,5.6-3.1,9.4-3.1,9.4s0.7-3.9,2-9.6c0.6-2.9,1.4-6.2,2.4-9.9
		c0.4-1.8,0.9-3.6,1.4-5.6c0.5-1.9,1-3.8,1.5-5.7s1-3.8,1.5-5.7c0.5-1.9,1.1-3.7,1.6-5.5c1-3.6,2-6.9,2.9-9.7
		C477.5,455.1,478.9,451.4,478.9,451.4z"/>
	<path fill="#B2B7AE" d="M440.2,473.8c0,0,3.9,0.7,9.6,2c2.9,0.6,6.2,1.5,9.9,2.4c1.8,0.4,3.6,0.9,5.6,1.4c1.9,0.5,3.8,1,5.7,1.5
		s3.8,1,5.7,1.5c1.9,0.5,3.7,1.1,5.5,1.6c3.5,1,6.9,2,9.7,2.9c5.6,1.8,9.4,3.1,9.4,3.1s-3.9-0.7-9.6-2c-2.9-0.6-6.2-1.4-9.9-2.4
		c-1.8-0.5-3.6-0.9-5.6-1.4c-1.9-0.5-3.8-1-5.7-1.5s-3.8-1.1-5.7-1.6c-1.9-0.5-3.7-1-5.5-1.5c-3.5-1-6.9-2-9.7-2.9
		C443.9,475,440.2,473.8,440.2,473.8z"/>
</g>
<g>
	<path fill="#8E8A8B" d="M424.9,292.3c0,0,2.6-3,6.6-7.4c2-2.2,4.4-4.7,6.9-7.3c1.3-1.3,2.6-2.7,4-4.1c1.4-1.4,2.8-2.8,4.2-4.2
		c1.4-1.4,2.8-2.8,4.2-4.1c1.4-1.4,2.7-2.7,4.1-4c2.7-2.6,5.2-4.9,7.4-6.9c4.4-4,7.3-6.6,7.3-6.6s-2.6,3-6.6,7.4
		c-2,2.2-4.4,4.7-6.9,7.3c-1.3,1.3-2.6,2.7-4,4.1c-1.4,1.4-2.8,2.8-4.2,4.2c-1.4,1.4-2.8,2.8-4.2,4.1c-1.4,1.4-2.7,2.7-4.1,4
		c-2.7,2.6-5.2,4.9-7.4,6.9C427.9,289.7,424.9,292.3,424.9,292.3z"/>
	<path fill="#8E8A8B" d="M469.5,292.3c0,0-3-2.6-7.4-6.6c-2.2-2-4.7-4.4-7.3-6.9c-1.3-1.3-2.7-2.6-4.1-4c-1.4-1.4-2.8-2.8-4.2-4.2
		c-1.4-1.4-2.8-2.8-4.1-4.2c-1.4-1.4-2.7-2.7-4-4.1c-2.6-2.7-4.9-5.2-6.9-7.4c-4-4.4-6.6-7.3-6.6-7.3s3,2.6,7.4,6.6
		c2.2,2,4.7,4.4,7.3,6.9c1.3,1.3,2.7,2.6,4.1,4c1.4,1.3,2.8,2.8,4.2,4.2c1.4,1.4,2.8,2.8,4.1,4.2c1.4,1.4,2.7,2.7,4,4.1
		c2.6,2.7,4.9,5.2,6.9,7.4C467,289.3,469.5,292.3,469.5,292.3z"/>
	<path fill="#8E8A8B" d="M415.6,270c0,0,3.9-0.3,9.8-0.6c3-0.1,6.4-0.2,10.1-0.3c1.9,0,3.8-0.1,5.7-0.1c2,0,3.9,0,5.9,0
		c2,0,3.9,0,5.9,0c1.9,0,3.8,0.1,5.7,0.1c3.7,0,7.1,0.2,10.1,0.3c5.9,0.2,9.9,0.6,9.9,0.6s-3.9,0.3-9.8,0.6c-3,0.1-6.4,0.2-10.1,0.3
		c-1.9,0-3.8,0.1-5.7,0.1c-2,0-3.9,0-5.9,0s-3.9,0-5.9,0c-1.9,0-3.8-0.1-5.7-0.1c-3.7-0.1-7.1-0.2-10.1-0.3
		C419.6,270.3,415.6,270,415.6,270z"/>
	<path fill="#8E8A8B" d="M447.2,301.5c0,0-0.3-3.9-0.6-9.8c-0.1-3-0.2-6.4-0.3-10.1c0-1.9-0.1-3.8-0.1-5.7c0-2,0-3.9,0-5.9
		s0-3.9,0-5.9c0-2,0.1-3.8,0.1-5.7c0-3.7,0.2-7.1,0.3-10.1c0.2-5.9,0.6-9.9,0.6-9.9s0.3,3.9,0.6,9.8c0.1,3,0.2,6.4,0.3,10.1
		c0,1.9,0.1,3.8,0.1,5.7s0,3.9,0,5.9s0,3.9,0,5.9c0,1.9-0.1,3.8-0.1,5.7c0,3.7-0.2,7.1-0.3,10.1
		C447.5,297.6,447.2,301.5,447.2,301.5z"/>
</g>
</svg>
