<?xml version="1.0" encoding="utf-8"?>
<!-- Generator: Adobe Illustrator 18.1.1, SVG Export Plug-In . SVG Version: 6.00 Build 0)  -->
<svg version="1.1" id="Layer_1" xmlns="http://www.w3.org/2000/svg" xmlns:xlink="http://www.w3.org/1999/xlink" x="0px" y="0px"
	 viewBox="404.6 464.5 961.6 200" enable-background="new 404.6 464.5 961.6 200" xml:space="preserve">
<g>
	<path fill="#FF3366" d="M439.6,508.5c0,0,5.6,8,12.7,19.9c4,5.6,8,12.7,12.7,20.7c2.4,4,4.8,8,7.2,11.9c2.4,4,4.8,8,7.2,11.9
		c2.4,4,4.8,8,7.2,11.9c2.4,4,4.8,8,6.4,11.9c4,8,8,15.1,11.1,20.7c6.4,12.7,10.3,20.7,10.3,20.7s-5.6-8-12.7-19.9
		c-4-5.6-8-12.7-12.7-20.7c-2.4-4-4.8-8-7.2-11.9c-2.4-4-4.8-8-7.2-11.9s-4.8-8-7.2-11.9s-4.8-8-6.4-11.9c-4-8-8-15.1-11.1-20.7
		C443.6,516.5,439.6,508.5,439.6,508.5z"/>
	<path fill="#FF3366" d="M411.8,610.4c0,0,8-5.6,19.9-12.7c5.6-4,12.7-8,20.7-12.7c4-2.4,8-4.8,11.9-7.2c4-2.4,8-4.8,11.9-7.2
		c4-2.4,8-4.8,11.9-7.2c4-2.4,8-4.8,11.9-6.4c8-4,15.1-8,20.7-11.1c12.7-6.4,20.7-10.3,20.7-10.3s-8,5.6-19.9,12.7
		c-5.6,4-12.7,8-20.7,12.7c-4,2.4-8,4.8-11.9,7.2c-4,2.4-8,4.8-11.9,7.2c-4,2.4-8,4.8-11.9,7.2c-4,2.4-8,4.8-11.9,6.4
		c-8,4-15.1,8-20.7,11.1C420.5,606.4,411.8,610.4,411.8,610.4z"/>
	<path fill="#FF3366" d="M496.1,500.5c0,0-1.6,9.6-4.8,23.1c-1.6,7.2-3.2,15.1-5.6,23.1c-0.8,4-2.4,8.8-3.2,12.7
		c-0.8,4-2.4,8.8-3.2,13.5c-0.8,4.8-2.4,8.8-4,13.5c-0.8,4-2.4,8.8-4,12.7c-2.4,8.8-4.8,15.9-7.2,23.1c-4,13.5-7.2,22.3-7.2,22.3
		s1.6-9.6,4.8-23.1c1.6-7.2,3.2-15.1,5.6-23.1c0.8-4,2.4-8.8,3.2-12.7c0.8-4,2.4-8.8,3.2-13.5c0.8-4.8,2.4-8.8,4-13.5
		c0.8-4,2.4-8.8,4-12.7c2.4-8.8,4.8-15.9,7.2-23.1C493,509.3,496.1,500.5,496.1,500.5z"/>
	<path fill="#FF3366" d="M404.6,553.9c0,0,9.6,1.6,23.1,4.8c7.2,1.6,15.1,3.2,23.1,5.6c4,0.8,8.8,2.4,12.7,3.2s8.8,2.4,13.5,3.2
		c4.8,0.8,8.8,2.4,13.5,4c4.8,1.6,8.8,2.4,12.7,4c8.8,2.4,15.9,4.8,23.1,7.2c13.5,4,22.3,7.2,22.3,7.2s-9.6-1.6-23.1-4.8
		c-7.2-1.6-15.1-3.2-23.1-5.6c-4-0.8-8.8-2.4-12.7-3.2s-8.8-2.4-13.5-3.2c-4.8-0.8-8.8-2.4-13.5-4c-4-0.8-8.8-2.4-12.7-4
		c-8.8-2.4-15.9-4.8-23.1-7.2C413.4,557.1,404.6,553.9,404.6,553.9z"/>
</g>
<path fill="#4B9E15" d="M573,464.5c0,0,0.6,12.7,1.8,30.8c0,9.1,0.6,19.9,0.6,32c0,6,0,12.1,0,18.1s0,12.7,0,18.7s0,12.7,0,18.7
	c0,6,0,12.1,0,18.1c0,11.5-0.6,23-1.2,32c-0.6,18.7-1.8,31.4-1.8,31.4s-0.6-12.7-1.8-30.8c0-9.1-0.6-19.9-0.6-32c0-6,0-12.1,0-18.1
	s0-12.7,0-18.7s0-12.7,0-18.7c0-6,0-12.1,0-18.1c0-11.5,0.6-23,1.2-32C572.4,477.2,573,464.5,573,464.5z"/>
<g>
	<path fill="#FF3366" d="M614,530v60.5h35.8v8h-45.4V530H614z"/>
	<path fill="#4B9E15" d="M667.3,530v68.5h-8.8V530H667.3z"/>
	<path fill="#FF3366" d="M707.1,530c1.6,0,3.2,0,4.8,0c1.6,0,3.2,0,4.8,0c1.6,0,3.2,0.8,4.8,0.8c1.6,0,2.4,0.8,4,1.6
		c2.4,1.6,4,3.2,5.6,5.6c1.6,2.4,2.4,5.6,2.4,8.8c0,4-0.8,6.4-2.4,9.6c-1.6,2.4-4,4.8-7.2,5.6l0,0c4,0.8,7.2,3.2,9.6,5.6
		c2.4,3.2,3.2,6.4,3.2,10.3c0,2.4-0.8,4.8-1.6,7.2c-0.8,2.4-2.4,4.8-4,6.4c-1.6,1.6-4,3.2-6.4,4.8c-2.4,0.8-5.6,1.6-8.8,1.6h-32.6
		V530H707.1z M709.5,558.7c4.8,0,8.8-0.8,11.1-2.4c2.4-1.6,3.2-4.8,3.2-8c0-2.4,0-4-0.8-5.6c-0.8-1.6-1.6-2.4-3.2-3.2
		c-1.6-0.8-3.2-1.6-4.8-1.6s-4,0-5.6,0h-18.3v21.5h18.3V558.7z M714.3,590.5c4,0,7.2-0.8,9.6-3.2c2.4-2.4,3.2-4.8,3.2-8.8
		c0-2.4-0.8-4-1.6-5.6c-0.8-1.6-1.6-2.4-3.2-3.2c-1.6-0.8-3.2-1.6-4.8-1.6c-1.6,0-4-0.8-5.6-0.8h-20.7v23.9h23.1V590.5z"/>
	<path fill="#4B9E15" d="M772.4,530c1.6,0,3.2,0,4.8,0c1.6,0,3.2,0,4.8,0c1.6,0,3.2,0.8,4.8,0.8c1.6,0,2.4,0.8,4,1.6
		c2.4,1.6,4,3.2,5.6,5.6c1.6,2.4,2.4,5.6,2.4,8.8c0,4-0.8,6.4-2.4,9.6c-1.6,2.4-4,4.8-7.2,5.6l0,0c4,0.8,7.2,3.2,9.6,5.6
		c2.4,3.2,3.2,6.4,3.2,10.3c0,2.4-0.8,4.8-1.6,7.2c-0.8,2.4-2.4,4.8-4,6.4c-1.6,1.6-4,3.2-6.4,4.8c-2.4,0.8-5.6,1.6-8.8,1.6h-32.6
		V530H772.4z M775.5,558.7c4.8,0,8.8-0.8,11.1-2.4c2.4-1.6,3.2-4.8,3.2-8c0-2.4,0-4-0.8-5.6c-0.8-1.6-1.6-2.4-3.2-3.2
		c-1.6-0.8-3.2-1.6-4.8-1.6c-1.6,0-4,0-5.6,0h-18.3v21.5h18.3V558.7z M779.5,590.5c4,0,7.2-0.8,9.6-3.2c2.4-2.4,3.2-4.8,3.2-8.8
		c0-2.4-0.8-4-1.6-5.6c-0.8-1.6-1.6-2.4-3.2-3.2c-1.6-0.8-3.2-1.6-4.8-1.6c-1.6,0-4-0.8-5.6-0.8h-20.7v23.9h23.1V590.5z"/>
	<path fill="#FF3366" d="M841.6,597.7h-8.8v-27.9L805.8,530h11.1l20.7,32.6l19.9-32.6h10.3l-26.3,40.6V597.7z"/>
	<path fill="#4B9E15" d="M899.7,550.7c1.6-4,3.2-8,6.4-11.1c2.4-3.2,6.4-5.6,10.3-8c4-1.6,8.8-3.2,14.3-3.2c5.6,0,10.3,0.8,14.3,3.2
		c4,1.6,7.2,4.8,10.3,8c2.4,3.2,4.8,7.2,6.4,11.1c1.6,4,2.4,8.8,2.4,13.5s-0.8,8.8-2.4,13.5c-1.6,4-3.2,8-6.4,11.1
		c-2.4,3.2-6.4,5.6-10.3,8c-4,1.6-8.8,3.2-14.3,3.2c-5.6,0-10.3-0.8-14.3-3.2c-4-1.6-7.2-4.8-10.3-8c-2.4-3.2-4.8-7.2-6.4-11.1
		c-1.6-4-2.4-8.8-2.4-13.5S898.9,554.7,899.7,550.7z M908.5,573.8c0.8,3.2,2.4,6.4,4,8.8c1.6,2.4,4,4.8,7.2,6.4
		c3.2,1.6,6.4,2.4,10.3,2.4s8-0.8,10.3-2.4c3.2-1.6,5.6-4,7.2-6.4c1.6-2.4,3.2-5.6,4-8.8c0.8-3.2,1.6-6.4,1.6-10.3
		c0-3.2-0.8-7.2-1.6-10.3c-0.8-3.2-2.4-6.4-4-8.8c-1.6-2.4-4-4.8-7.2-6.4c-3.2-1.6-6.4-2.4-10.3-2.4s-8,0.8-10.3,2.4s-5.6,4-7.2,6.4
		c-1.6,2.4-3.2,5.6-4,8.8s-1.6,6.4-1.6,10.3C906.9,567.4,907.7,570.6,908.5,573.8z"/>
	<path fill="#4B9E15" d="M985.7,530v10.3c0,1.6,0,4-0.8,5.6s-0.8,3.2-1.6,4.8c-0.8,1.6-1.6,2.4-3.2,3.2c-1.6,0.8-3.2,0.8-4.8,0.8
		v-4.8c0.8,0,1.6,0,2.4-0.8c0.8-0.8,1.6-1.6,1.6-2.4c0.8-0.8,0.8-1.6,0.8-3.2c0-0.8,0-2.4,0-3.2h-5.6V530H985.7z"/>
	<path fill="#FF3366" d="M1013.6,530l21.5,57.3l21.5-57.3h12.7v68.5h-8.8v-56.5l0,0l-21.5,56.5h-8l-21.5-56.5l0,0v56.5h-8.8V530
		H1013.6z"/>
	<path fill="#4B9E15" d="M1113.1,530l26.3,68.5H1129l-7.2-20.7h-28.7l-8,20.7h-8.8l26.3-68.5H1113.1z M1119.4,569.8l-11.1-31.8l0,0
		l-11.9,31.8H1119.4z"/>
	<path fill="#FF3366" d="M1155.2,530v60.5h35.8v8h-45.4V530H1155.2z"/>
	<path fill="#4B9E15" d="M1208.6,530v60.5h35.8v8H1199V530H1208.6z"/>
	<path fill="#FF3366" d="M1299.3,530v8h-38.2v21.5h35.8v8h-35.8v23.9h38.2v8h-47.8V530H1299.3z"/>
	<path fill="#4B9E15" d="M1339.1,597.7h-8.8v-27.9l-26.3-40.6h11.1l20.7,32.6l19.9-32.6h10.3l-27.1,40.6V597.7z"/>
</g>
</svg>
